{
.appVersion = "1342";
copyright = "Copyright 2020 Google LLC. All Rights Reserved.";
customParameters = (
{
name = description;
value = "This font is designed based on Nüshu Duben, with the design by Liu Zhao, the engineering by Eiso Chan, the quality assurance by Kushim Jiang, and Kwat Ulan as the design assistant, copywriting by Zhu Kui.";
},
{
name = trademark;
value = "Noto is a trademark of Google LLC.";
},
{
name = licenseURL;
value = "http://scripts.sil.org/OFL";
},
{
name = sampleText;
value = "   ";
},
{
name = license;
value = "This Font Software is licensed under the SIL Open Font License, Version 1.1. This Font Software is distributed on an \"AS IS\" BASIS, WITHOUT WARRANTIES OR CONDITIONS OF ANY KIND, either express or implied. See the SIL Open Font License for the specific language, permissions and limitations governing your use of this Font Software.";
},
{
name = vendorID;
value = GOOG;
},
{
name = panose;
value = (
2,
0,
6,
9,
0,
0,
0,
0,
0,
0
);
},
{
name = unicodeRanges;
value = (
0,
57,
59
);
},
{
name = fsType;
value = (
);
},
{
name = blueShift;
value = 0;
},
{
name = glyphOrder;
value = (
.notdef,
space,
comma,
hyphen,
period,
zero,
one,
two,
three,
four,
five,
six,
seven,
eight,
nine,
A,
B,
C,
D,
E,
F,
G,
H,
I,
J,
K,
L,
M,
N,
O,
P,
Q,
R,
S,
T,
U,
V,
W,
X,
Y,
Z,
a,
b,
c,
d,
e,
f,
g,
h,
i,
j,
k,
l,
m,
n,
o,
p,
q,
r,
s,
t,
u,
v,
w,
x,
y,
z,
ensp,
emsp,
uni3000,
uni4E00,
uni4E66,
uni4F20,
uni4F53,
uni5973,
uni7EDF,
u16FE1,
u1B170,
u1B171,
u1B172,
u1B173,
u1B174,
u1B175,
u1B176,
u1B177,
u1B178,
u1B179,
u1B17A,
u1B17B,
u1B17C,
u1B17D,
u1B17E,
u1B17F,
u1B180,
u1B181,
u1B182,
u1B183,
u1B184,
u1B185,
u1B186,
u1B187,
u1B188,
u1B189,
u1B18A,
u1B18B,
u1B18C,
u1B18D,
u1B18E,
u1B18F,
u1B190,
u1B191,
u1B192,
u1B193,
u1B194,
u1B195,
u1B196,
u1B197,
u1B198,
u1B199,
u1B19A,
u1B19B,
u1B19C,
u1B19D,
u1B19E,
u1B19F,
u1B1A0,
u1B1A1,
u1B1A2,
u1B1A3,
u1B1A4,
u1B1A5,
u1B1A6,
u1B1A7,
u1B1A8,
u1B1A9,
u1B1AA,
u1B1AB,
u1B1AC,
u1B1AD,
u1B1AE,
u1B1AF,
u1B1B0,
u1B1B1,

glyphs = (
{
glyphname = .notdef;
layers = (
{
hints = (
{
horizontal = 1;
place = "{0, 34}";
type = Stem;
},
{
horizontal = 1;
place = "{648, 34}";
type = Stem;
},
{
place = "{364, 34}";
type = Stem;
},
{
place = "{602, 34}";
type = Stem;
}
);
layerId = "41DC85D1-EFC7-4239-A657-2B8BDE01F0BA";
paths = (
{
closed = 1;
nodes = (
"364 0 LINE",
"636 0 LINE",
"636 682 LINE",
"364 682 LINE"
);
},
{
closed = 1;
nodes = (
"398 34 LINE",
"398 648 LINE",
"602 648 LINE",
"602 34 LINE"
);
}
);
vertWidth = 1200;
width = 1000;
}
);
note = .notdef;
},
{
glyphname = comma;
layers = (
{
hints = (
{
horizontal = 1;
place = "{4, 174}";
type = Stem;
},
{
place = "{72, 201}";
type = Stem;
},
{
place = "{173, 100}";
type = Stem;
}
);
layerId = "41DC85D1-EFC7-4239-A657-2B8BDE01F0BA";
paths = (
{
closed = 1;
nodes = (
"84 -213 LINE",
"109.99 -204.32 OFFCURVE",
"133.94 -193.25 OFFCURVE",
"155.86 -179.8 CURVE SMOOTH",
"233.95 -131.1 OFFCURVE",
"273 -60.17 OFFCURVE",
"273 33 CURVE SMOOTH",
"272.93 53.83 OFFCURVE",
"270.87 73.06 OFFCURVE",
"266.84 90.69 CURVE SMOOTH",
"252.93 148.9 OFFCURVE",
"219.65 178 OFFCURVE",
"167 178 CURVE SMOOTH",
"150.96 177.85 OFFCURVE",
"135.79 174.62 OFFCURVE",
"121.5 168.3 CURVE SMOOTH",
"88.5 152.94 OFFCURVE",
"72 127.17 OFFCURVE",
"72 91 CURVE SMOOTH",
"72.17 75.02 OFFCURVE",
"75.87 60.35 OFFCURVE",
"83.1 46.99 CURVE SMOOTH",
"99.54 18.33 OFFCURVE",
"126.51 4 OFFCURVE",
"164 4 CURVE SMOOTH",
"173 4 LINE",
"173.2 -7.42 OFFCURVE",
"171.6 -18.64 OFFCURVE",
"168.18 -29.67 CURVE SMOOTH",
"154.04 -75.26 OFFCURVE",
"115.65 -109.71 OFFCURVE",
"53 -133 CURVE"
);
}
);
vertWidth = 1000;
width = 325;
}
);
note = comma;
unicode = 002C;
},
{
glyphname = hyphen;
layers = (
{
hints = (
{
horizontal = 1;
place = "{234, 105}";
type = Stem;
},
{
place = "{49, 273}";
type = Stem;
}
);
layerId = "41DC85D1-EFC7-4239-A657-2B8BDE01F0BA";
paths = (
{
closed = 1;
nodes = (
"49 234 LINE",
"322 234 LINE",
"322 339 LINE",
"49 339 LINE"
);
}
);
vertWidth = 1000;
width = 370;
}
);
note = hyphen;
unicode = 002D;
},
{
glyphname = period;
layers = (
{
hints = (
{
horizontal = 1;
place = "{-14, 21}";
target = up;
type = BottomGhost;
},
{
place = "{71, 183}";
type = Stem;
},
{
horizontal = 1;
place = "{-14, 192}";
type = Stem;
}
);
layerId = "41DC85D1-EFC7-4239-A657-2B8BDE01F0BA";
paths = (
{
closed = 1;
nodes = (
"178.94 -13.81 OFFCURVE",
"194.74 -9.51 OFFCURVE",
"209.41 -1.11 CURVE SMOOTH",
"239.14 16.82 OFFCURVE",
"254 44.53 OFFCURVE",
"254 82 CURVE SMOOTH",
"253.84 99.11 OFFCURVE",
"250.05 115.11 OFFCURVE",
"242.64 129.99 CURVE SMOOTH",
"225.89 161.99 OFFCURVE",
"199.01 178 OFFCURVE",
"162 178 CURVE SMOOTH",
"145.86 177.82 OFFCURVE",
"130.71 173.85 OFFCURVE",
"116.57 166.08 CURVE SMOOTH",
"86.19 148.5 OFFCURVE",
"71 120.47 OFFCURVE",
"71 82 CURVE SMOOTH",
"71.17 64.63 OFFCURVE",
"75.18 48.34 OFFCURVE",
"83.04 33.11 CURVE SMOOTH",
"100.05 1.7 OFFCURVE",
"126.37 -14 OFFCURVE",
"162 -14 CURVE SMOOTH"
);
}
);
vertWidth = 1000;
width = 325;
}
);
note = period;
unicode = 002E;
},
{
glyphname = zero;
layers = (
{
hints = (
{
horizontal = 1;
place = "{-14, 115}";
type = Stem;
},
{
horizontal = 1;
place = "{640, 114}";
type = Stem;
},
{
place = "{44, 139}";
type = Stem;
},
{
place = "{406, 139}";
type = Stem;
}
);
layerId = "41DC85D1-EFC7-4239-A657-2B8BDE01F0BA";
paths = (
{
closed = 1;
nodes = (
"344.1 -13.78 OFFCURVE",
"387.21 0.11 OFFCURVE",
"424.33 27.67 CURVE SMOOTH",
"504.78 88.64 OFFCURVE",
"545 203.75 OFFCURVE",
"545 373 CURVE SMOOTH",
"544.88 466.17 OFFCURVE",
"531.77 543.76 OFFCURVE",
"505.65 605.77 CURVE SMOOTH",
"463.47 704.59 OFFCURVE",
"393.25 754 OFFCURVE",
"295 754 CURVE SMOOTH",
"249.35 753.81 OFFCURVE",
"208.87 742.37 OFFCURVE",
"173.55 719.67 CURVE SMOOTH",
"87.18 662.96 OFFCURVE",
"44 547.4 OFFCURVE",
"44 373 CURVE SMOOTH",
"44.13 272.84 OFFCURVE",
"59.31 190.23 OFFCURVE",
"89.54 125.18 CURVE SMOOTH",
"133.21 32.4 OFFCURVE",
"201.7 -14 OFFCURVE",
"295 -14 CURVE SMOOTH"
);
},
{
closed = 1;
nodes = (
"220.8 101.55 OFFCURVE",
"183.47 192.21 OFFCURVE",
"183 373 CURVE SMOOTH",
"183.01 385.71 OFFCURVE",
"183.2 398.3 OFFCURVE",
"183.58 410.77 CURVE SMOOTH",
"188.43 563.59 OFFCURVE",
"225.57 640 OFFCURVE",
"295 640 CURVE SMOOTH",
"298.04 639.97 OFFCURVE",
"301.35 639.8 OFFCURVE",
"304.92 639.49 CURVE SMOOTH",
"372.3 632.41 OFFCURVE",
"406 543.58 OFFCURVE",
"406 373 CURVE SMOOTH",
"405.7 193.19 OFFCURVE",
"368.7 102.53 OFFCURVE",
"295 101 CURVE SMOOTH"
);
}
);
vertWidth = 1000;
width = 589;
}
);
note = zero;
unicode = 0030;
},
{
glyphname = one;
layers = (
{
hints = (
{
horizontal = 1;
place = "{0, 119}";
type = Stem;
},
{
horizontal = 1;
place = "{587, 154}";
type = Stem;
},
{
place = "{241, 147}";
type = Stem;
}
);
layerId = "41DC85D1-EFC7-4239-A657-2B8BDE01F0BA";
paths = (
{
closed = 1;
nodes = (
"82 0 LINE",
"527 0 LINE",
"527 119 LINE",
"388 119 LINE",
"388 741 LINE",
"279 741 LINE",
"233.99 712.42 OFFCURVE",
"176.66 691.42 OFFCURVE",
"107 678 CURVE",
"107 587 LINE",
"241 587 LINE",
"241 119 LINE",
"82 119 LINE"
);
}
);
vertWidth = 1000;
width = 589;
}
);
note = one;
unicode = 0031;
},
{
glyphname = two;
layers = (
{
hints = (
{
horizontal = 1;
place = "{0, 124}";
type = Stem;
},
{
horizontal = 1;
place = "{638, 116}";
type = Stem;
},
{
place = "{363, 141}";
type = Stem;
}
);
layerId = "41DC85D1-EFC7-4239-A657-2B8BDE01F0BA";
paths = (
{
closed = 1;
nodes = (
"43 0 LINE",
"539 0 LINE",
"539 124 LINE",
"379 124 LINE SMOOTH",
"347.7 123.94 OFFCURVE",
"307.37 121.27 OFFCURVE",
"258 116 CURVE",
"421.34 275.92 OFFCURVE",
"503.34 412.59 OFFCURVE",
"504 526 CURVE SMOOTH",
"503.79 580.12 OFFCURVE",
"489.95 626.67 OFFCURVE",
"462.48 665.63 CURVE SMOOTH",
"420.09 724.54 OFFCURVE",
"356.26 754 OFFCURVE",
"271 754 CURVE SMOOTH",
"250.95 753.95 OFFCURVE",
"231.68 752.33 OFFCURVE",
"213.18 749.16 CURVE SMOOTH",
"151.35 738.14 OFFCURVE",
"92.29 702.42 OFFCURVE",
"36 642 CURVE",
"116 562 LINE",
"162.61 612.06 OFFCURVE",
"207.94 637.4 OFFCURVE",
"252 638 CURVE SMOOTH",
"266.25 637.91 OFFCURVE",
"279.67 636 OFFCURVE",
"292.26 632.28 CURVE SMOOTH",
"339.42 617.48 OFFCURVE",
"363 579.39 OFFCURVE",
"363 518 CURVE SMOOTH",
"362.84 489.34 OFFCURVE",
"355.09 458.08 OFFCURVE",
"339.76 424.24 CURVE SMOOTH",
"301.21 340.72 OFFCURVE",
"202.29 227.64 OFFCURVE",
"43 85 CURVE"
);
}
);
vertWidth = 1000;
width = 589;
}
);
note = two;
unicode = 0032;
},
{
glyphname = three;
layers = (
{
hints = (
{
horizontal = 1;
place = "{-14, 120}";
type = Stem;
},
{
horizontal = 1;
place = "{328, 105}";
type = Stem;
},
{
horizontal = 1;
place = "{638, 116}";
type = Stem;
},
{
place = "{386, 148}";
type = Stem;
},
{
place = "{362, 148}";
type = Stem;
}
);
layerId = "41DC85D1-EFC7-4239-A657-2B8BDE01F0BA";
paths = (
{
closed = 1;
nodes = (
"335.33 -13.82 OFFCURVE",
"389 0.01 OFFCURVE",
"435.01 27.48 CURVE SMOOTH",
"501 67.53 OFFCURVE",
"534 125.37 OFFCURVE",
"534 201 CURVE SMOOTH",
"533.87 226.5 OFFCURVE",
"529.35 250.48 OFFCURVE",
"520.44 272.94 CURVE SMOOTH",
"497.9 327.91 OFFCURVE",
"453.42 364.6 OFFCURVE",
"387 383 CURVE",
"387 388 LINE",
"388.5 388.6 OFFCURVE",
"390.33 389.35 OFFCURVE",
"392.48 390.25 CURVE SMOOTH",
"470.82 423.33 OFFCURVE",
"510 478.92 OFFCURVE",
"510 557 CURVE SMOOTH",
"509.8 599.31 OFFCURVE",
"498.9 636.08 OFFCURVE",
"477.31 667.33 CURVE SMOOTH",
"436.35 725.11 OFFCURVE",
"367.25 754 OFFCURVE",
"270 754 CURVE SMOOTH",
"191.79 753.72 OFFCURVE",
"117.79 723.38 OFFCURVE",
"48 663 CURVE",
"123 573 LINE",
"169.14 615.75 OFFCURVE",
"215.8 637.42 OFFCURVE",
"263 638 CURVE SMOOTH",
"273.97 637.93 OFFCURVE",
"284.52 636.83 OFFCURVE",
"294.63 634.69 CURVE SMOOTH",
"339.54 624.47 OFFCURVE",
"362 594.91 OFFCURVE",
"362 546 CURVE SMOOTH",
"361.44 471.4 OFFCURVE",
"301.44 433.73 OFFCURVE",
"182 433 CURVE",
"182 328 LINE",
"233.35 327.92 OFFCURVE",
"274.83 323.06 OFFCURVE",
"306.44 313.41 CURVE SMOOTH",
"359.48 296.77 OFFCURVE",
"386 262.3 OFFCURVE",
"386 210 CURVE SMOOTH",
"385.86 194.22 OFFCURVE",
"382.91 179.59 OFFCURVE",
"377.14 166.1 CURVE SMOOTH",
"359 126.03 OFFCURVE",
"319.95 106 OFFCURVE",
"260 106 CURVE SMOOTH",
"202.3 106.34 OFFCURVE",
"147.3 131.68 OFFCURVE",
"95 182 CURVE",
"26 89 LINE",
"86.48 20.81 OFFCURVE",
"169.14 -13.52 OFFCURVE",
"274 -14 CURVE SMOOTH"
);
}
);
vertWidth = 1000;
width = 589;
}
);
note = three;
unicode = 0033;
},
{
glyphname = four;
layers = (
{
hints = (
{
horizontal = 1;
place = "{0, 21}";
target = up;
type = BottomGhost;
},
{
horizontal = 1;
place = "{192, 112}";
type = Stem;
},
{
horizontal = 1;
place = "{609, 132}";
type = Stem;
},
{
place = "{337, 137}";
type = Stem;
}
);
layerId = "41DC85D1-EFC7-4239-A657-2B8BDE01F0BA";
paths = (
{
closed = 1;
nodes = (
"164 304 LINE",
"279 488 LINE",
"300.04 528.12 OFFCURVE",
"319.71 568.46 OFFCURVE",
"338 609 CURVE",
"342 609 LINE",
"338.69 536.22 OFFCURVE",
"337.03 484.88 OFFCURVE",
"337 455 CURVE SMOOTH",
"337 304 LINE"
);
},
{
closed = 1;
nodes = (
"337 0 LINE",
"474 0 LINE",
"474 192 LINE",
"561 192 LINE",
"561 304 LINE",
"474 304 LINE",
"474 741 LINE",
"297 741 LINE",
"21 292 LINE",
"21 192 LINE",
"337 192 LINE"
);
}
);
vertWidth = 1000;
width = 589;
}
);
note = four;
unicode = 0034;
},
{
glyphname = five;
layers = (
{
hints = (
{
horizontal = 1;
place = "{-14, 120}";
type = Stem;
},
{
horizontal = 1;
place = "{376, 105}";
type = Stem;
},
{
horizontal = 1;
place = "{617, 124}";
type = Stem;
},
{
place = "{95, 130}";
type = Stem;
},
{
place = "{388, 147}";
type = Stem;
}
);
layerId = "41DC85D1-EFC7-4239-A657-2B8BDE01F0BA";
paths = (
{
closed = 1;
nodes = (
"336.54 -13.77 OFFCURVE",
"389.92 3.19 OFFCURVE",
"436.14 36.89 CURVE SMOOTH",
"502.04 85.71 OFFCURVE",
"535 155.42 OFFCURVE",
"535 246 CURVE SMOOTH",
"534.8 305.25 OFFCURVE",
"520.83 354.8 OFFCURVE",
"493.09 394.65 CURVE SMOOTH",
"452.16 452.22 OFFCURVE",
"390.13 481 OFFCURVE",
"307 481 CURVE SMOOTH",
"278.14 480.87 OFFCURVE",
"248.47 473.87 OFFCURVE",
"218 460 CURVE",
"232 617 LINE",
"501 617 LINE",
"501 741 LINE",
"105 741 LINE",
"85 381 LINE",
"152 337 LINE",
"157.72 340.72 OFFCURVE",
"163.22 344.19 OFFCURVE",
"168.49 347.43 CURVE SMOOTH",
"199.73 366.47 OFFCURVE",
"231.24 376 OFFCURVE",
"263 376 CURVE SMOOTH",
"282.16 375.88 OFFCURVE",
"299.9 372.66 OFFCURVE",
"316.21 366.35 CURVE SMOOTH",
"364.07 346.97 OFFCURVE",
"388 305.52 OFFCURVE",
"388 242 CURVE SMOOTH",
"387.86 216.12 OFFCURVE",
"383.01 192.99 OFFCURVE",
"373.46 172.59 CURVE SMOOTH",
"351.86 128.19 OFFCURVE",
"313.04 106 OFFCURVE",
"257 106 CURVE SMOOTH",
"200.04 106.34 OFFCURVE",
"145.71 131.34 OFFCURVE",
"94 181 CURVE",
"26 87 LINE",
"93.21 20.11 OFFCURVE",
"176.54 -13.56 OFFCURVE",
"276 -14 CURVE SMOOTH"
);
}
);
vertWidth = 1000;
width = 589;
}
);
note = five;
unicode = 0035;
},
{
glyphname = six;
layers = (
{
hints = (
{
horizontal = 1;
place = "{-14, 111}";
type = Stem;
},
{
horizontal = 1;
place = "{362, 104}";
type = Stem;
},
{
horizontal = 1;
place = "{636, 118}";
type = Stem;
},
{
place = "{50, 134}";
type = Stem;
},
{
place = "{414, 134}";
type = Stem;
}
);
layerId = "41DC85D1-EFC7-4239-A657-2B8BDE01F0BA";
paths = (
{
closed = 1;
nodes = (
"316.65 361.94 OFFCURVE",
"325.2 361.12 OFFCURVE",
"333.64 359.55 CURVE SMOOTH",
"387.21 348.7 OFFCURVE",
"414 306.85 OFFCURVE",
"414 234 CURVE SMOOTH",
"413.87 204.99 OFFCURVE",
"409.15 179.52 OFFCURVE",
"399.84 157.59 CURVE SMOOTH",
"382.05 117.19 OFFCURVE",
"353.1 97 OFFCURVE",
"313 97 CURVE",
"246.66 101.91 OFFCURVE",
"204.66 164.24 OFFCURVE",
"187 284 CURVE",
"188.2 285.95 OFFCURVE",
"189.62 288.2 OFFCURVE",
"191.28 290.77 CURVE SMOOTH",
"222.55 338.26 OFFCURVE",
"261.46 362 OFFCURVE",
"308 362 CURVE SMOOTH"
);
},
{
closed = 1;
nodes = (
"370.36 -13.75 OFFCURVE",
"418.32 2.74 OFFCURVE",
"459.89 35.49 CURVE SMOOTH",
"518.63 82.61 OFFCURVE",
"548 148.78 OFFCURVE",
"548 234 CURVE SMOOTH",
"547.86 282.61 OFFCURVE",
"539.47 324.57 OFFCURVE",
"522.83 359.88 CURVE SMOOTH",
"488.71 430.63 OFFCURVE",
"426.43 466 OFFCURVE",
"336 466 CURVE SMOOTH",
"325.91 466 OFFCURVE",
"315.22 464.7 OFFCURVE",
"303.93 462.1 CURVE SMOOTH",
"255.68 451 OFFCURVE",
"215.71 425.63 OFFCURVE",
"184 386 CURVE",
"185.26 423.24 OFFCURVE",
"189.13 456.82 OFFCURVE",
"195.61 486.75 CURVE SMOOTH",
"217.64 586.25 OFFCURVE",
"267.44 636 OFFCURVE",
"345 636 CURVE SMOOTH",
"349.89 635.96 OFFCURVE",
"355.19 635.61 OFFCURVE",
"360.89 634.95 CURVE SMOOTH",
"400.13 629.84 OFFCURVE",
"432.83 612.19 OFFCURVE",
"459 582 CURVE",
"537 670 LINE",
"482.33 725.54 OFFCURVE",
"415.33 753.54 OFFCURVE",
"336 754 CURVE SMOOTH",
"276.03 753.77 OFFCURVE",
"223.04 735.69 OFFCURVE",
"177.01 699.75 CURVE SMOOTH",
"92.34 632.59 OFFCURVE",
"50 519.34 OFFCURVE",
"50 360 CURVE SMOOTH",
"50.18 248.72 OFFCURVE",
"72.35 159.92 OFFCURVE",
"116.51 93.61 CURVE SMOOTH",
"164.93 21.87 OFFCURVE",
"231.43 -14 OFFCURVE",
"316 -14 CURVE SMOOTH"
);
}
);
vertWidth = 1000;
width = 589;
}
);
note = six;
unicode = 0036;
},
{
glyphname = seven;
layers = (
{
hints = (
{
horizontal = 1;
place = "{0, 21}";
target = up;
type = BottomGhost;
},
{
horizontal = 1;
place = "{617, 124}";
type = Stem;
},
{
place = "{186, 149}";
type = Stem;
}
);
layerId = "41DC85D1-EFC7-4239-A657-2B8BDE01F0BA";
paths = (
{
closed = 1;
nodes = (
"335 0 LINE",
"341.28 151.12 OFFCURVE",
"354.45 264.82 OFFCURVE",
"374.53 341.11 CURVE SMOOTH",
"402.14 445.1 OFFCURVE",
"457.96 548.4 OFFCURVE",
"542 651 CURVE",
"542 741 LINE",
"50 741 LINE",
"50 617 LINE",
"383 617 LINE",
"331.7 545.55 OFFCURVE",
"291.71 475.09 OFFCURVE",
"263.03 405.6 CURVE SMOOTH",
"220.05 300.69 OFFCURVE",
"194.38 165.49 OFFCURVE",
"186 0 CURVE"
);
}
);
vertWidth = 1000;
width = 589;
}
);
note = seven;
unicode = 0037;
},
{
glyphname = eight;
layers = (
{
hints = (
{
horizontal = 1;
place = "{-14, 104}";
type = Stem;
},
{
horizontal = 1;
place = "{650, 103}";
type = Stem;
},
{
place = "{406, 137}";
type = Stem;
},
{
place = "{76, 130}";
type = Stem;
},
{
place = "{394, 120}";
type = Stem;
},
{
place = "{47, 127}";
type = Stem;
}
);
layerId = "41DC85D1-EFC7-4239-A657-2B8BDE01F0BA";
paths = (
{
closed = 1;
nodes = (
"358.57 -13.8 OFFCURVE",
"413.51 1.26 OFFCURVE",
"458.8 31.18 CURVE SMOOTH",
"514.93 68.93 OFFCURVE",
"543 119.87 OFFCURVE",
"543 184 CURVE SMOOTH",
"542.52 270.27 OFFCURVE",
"501.18 336.27 OFFCURVE",
"419 382 CURVE",
"419 387 LINE",
"424.83 391.21 OFFCURVE",
"430.85 395.95 OFFCURVE",
"437.04 401.22 CURVE SMOOTH",
"488.34 445.68 OFFCURVE",
"514 497.28 OFFCURVE",
"514 556 CURVE SMOOTH",
"513.8 599.19 OFFCURVE",
"502.8 637.01 OFFCURVE",
"481.02 669.46 CURVE SMOOTH",
"442.71 725.15 OFFCURVE",
"382.04 753 OFFCURVE",
"299 753 CURVE SMOOTH",
"247.03 752.81 OFFCURVE",
"201.7 740.91 OFFCURVE",
"163 717.28 CURVE SMOOTH",
"105 681.15 OFFCURVE",
"76 628.06 OFFCURVE",
"76 558 CURVE SMOOTH",
"76.41 488.26 OFFCURVE",
"109.08 429.59 OFFCURVE",
"174 382 CURVE",
"174 377 LINE",
"173.62 376.8 OFFCURVE",
"172.91 376.42 OFFCURVE",
"171.86 375.87 CURVE SMOOTH",
"88.62 331.64 OFFCURVE",
"47 267.68 OFFCURVE",
"47 184 CURVE SMOOTH",
"47.29 136.26 OFFCURVE",
"64.32 94.64 OFFCURVE",
"98.08 59.14 CURVE SMOOTH",
"145.49 10.38 OFFCURVE",
"210.8 -14 OFFCURVE",
"294 -14 CURVE SMOOTH"
);
},
{
closed = 1;
nodes = (
"320.45 431.19 OFFCURVE",
"302.81 439.11 OFFCURVE",
"288.09 446.75 CURVE SMOOTH",
"233.36 475.49 OFFCURVE",
"206 512.57 OFFCURVE",
"206 558 CURVE SMOOTH",
"206.14 573.78 OFFCURVE",
"209.11 588.33 OFFCURVE",
"214.91 601.63 CURVE SMOOTH",
"229.81 633.87 OFFCURVE",
"256.84 650 OFFCURVE",
"296 650 CURVE SMOOTH",
"312.09 649.86 OFFCURVE",
"326.96 646.86 OFFCURVE",
"340.6 640.99 CURVE SMOOTH",
"376.2 624.78 OFFCURVE",
"394 593.45 OFFCURVE",
"394 547 CURVE SMOOTH",
"393.72 502.04 OFFCURVE",
"376.05 460.71 OFFCURVE",
"341 423 CURVE"
);
},
{
closed = 1;
nodes = (
"274.44 90.16 OFFCURVE",
"252.77 95.06 OFFCURVE",
"232.98 104.72 CURVE SMOOTH",
"193.66 124.64 OFFCURVE",
"174 156.4 OFFCURVE",
"174 200 CURVE SMOOTH",
"176.68 251.73 OFFCURVE",
"199.35 297.4 OFFCURVE",
"242 337 CURVE",
"282.74 320.44 OFFCURVE",
"313.03 306.5 OFFCURVE",
"332.88 295.21 CURVE SMOOTH",
"381.63 267.14 OFFCURVE",
"406 231.74 OFFCURVE",
"406 189 CURVE SMOOTH",
"405.87 173.75 OFFCURVE",
"403.2 159.59 OFFCURVE",
"397.98 146.53 CURVE SMOOTH",
"382.01 108.84 OFFCURVE",
"348.69 90 OFFCURVE",
"298 90 CURVE SMOOTH"
);
}
);
vertWidth = 1000;
width = 589;
}
);
note = eight;
unicode = 0038;
},
{
glyphname = nine;
layers = (
{
hints = (
{
horizontal = 1;
place = "{-14, 120}";
type = Stem;
},
{
horizontal = 1;
place = "{274, 105}";
type = Stem;
},
{
horizontal = 1;
place = "{643, 111}";
type = Stem;
},
{
place = "{40, 135}";
type = Stem;
},
{
place = "{404, 135}";
type = Stem;
}
);
layerId = "41DC85D1-EFC7-4239-A657-2B8BDE01F0BA";
paths = (
{
closed = 1;
nodes = (
"175.12 534.35 OFFCURVE",
"179.25 558.54 OFFCURVE",
"187.39 579.55 CURVE SMOOTH",
"204.41 621.85 OFFCURVE",
"233.62 643 OFFCURVE",
"275 643 CURVE SMOOTH",
"344.05 639.34 OFFCURVE",
"386.38 578.01 OFFCURVE",
"402 459 CURVE",
"400.81 457.03 OFFCURVE",
"399.4 454.75 OFFCURVE",
"397.76 452.16 CURVE SMOOTH",
"366.25 403.39 OFFCURVE",
"327 379 OFFCURVE",
"280 379 CURVE SMOOTH",
"272.85 379.05 OFFCURVE",
"265.68 379.62 OFFCURVE",
"258.48 380.7 CURVE SMOOTH",
"202.83 389.93 OFFCURVE",
"175 432.03 OFFCURVE",
"175 507 CURVE SMOOTH"
);
},
{
closed = 1;
nodes = (
"315.15 -13.76 OFFCURVE",
"368.33 5.3 OFFCURVE",
"414.54 43.17 CURVE SMOOTH",
"497.51 112.24 OFFCURVE",
"539 226.85 OFFCURVE",
"539 387 CURVE SMOOTH",
"538.81 496.49 OFFCURVE",
"516.49 583.81 OFFCURVE",
"472.03 648.94 CURVE SMOOTH",
"423.55 718.98 OFFCURVE",
"357.21 754 OFFCURVE",
"273 754 CURVE SMOOTH",
"218.51 753.76 OFFCURVE",
"170.5 737.56 OFFCURVE",
"128.95 705.42 CURVE SMOOTH",
"69.65 658.69 OFFCURVE",
"40 592.55 OFFCURVE",
"40 507 CURVE SMOOTH",
"40.15 455.07 OFFCURVE",
"49.9 410.64 OFFCURVE",
"69.25 373.73 CURVE SMOOTH",
"104.87 307.24 OFFCURVE",
"165.79 274 OFFCURVE",
"252 274 CURVE SMOOTH",
"261.89 274.08 OFFCURVE",
"272.52 275.3 OFFCURVE",
"283.9 277.66 CURVE SMOOTH",
"332.63 288.37 OFFCURVE",
"372.66 313.82 OFFCURVE",
"404 354 CURVE",
"402.9 325.89 OFFCURVE",
"400.35 299.74 OFFCURVE",
"396.35 275.54 CURVE SMOOTH",
"377.23 162.51 OFFCURVE",
"327.12 106 OFFCURVE",
"246 106 CURVE SMOOTH",
"242.2 106.03 OFFCURVE",
"238.02 106.23 OFFCURVE",
"233.47 106.61 CURVE SMOOTH",
"192.38 110.55 OFFCURVE",
"157.89 128.01 OFFCURVE",
"130 159 CURVE",
"52 70 LINE",
"106.67 14.44 OFFCURVE",
"174.34 -13.56 OFFCURVE",
"255 -14 CURVE SMOOTH"
);
}
);
vertWidth = 1000;
width = 589;
}
);
note = nine;
unicode = 0039;
},
{
glyphname = A;
layers = (
{
hints = (
{
horizontal = 1;
place = "{0, 21}";
target = up;
type = BottomGhost;
},
{
horizontal = 1;
place = "{190, 115}";
type = Stem;
},
{
horizontal = 1;
place = "{628, 113}";
type = Stem;
},
{
place = "{-4, 649}";
type = Stem;
}
);
layerId = "41DC85D1-EFC7-4239-A657-2B8BDE01F0BA";
paths = (
{
closed = 1;
nodes = (
"252 386 LINE SMOOTH",
"275.12 466.97 OFFCURVE",
"296.12 547.64 OFFCURVE",
"315 628 CURVE",
"320 628 LINE",
"359.58 477.07 OFFCURVE",
"380.92 396.4 OFFCURVE",
"384 386 CURVE SMOOTH",
"406 305 LINE",
"230 305 LINE"
);
},
{
closed = 1;
nodes = (
"-4 0 LINE",
"146 0 LINE",
"198 190 LINE",
"438 190 LINE",
"490 0 LINE",
"645 0 LINE",
"407 741 LINE",
"233 741 LINE"
);
}
);
vertWidth = 1000;
width = 641;
}
);
note = A;
unicode = 0041;
},
{
glyphname = B;
layers = (
{
hints = (
{
horizontal = 1;
place = "{0, 114}";
type = Stem;
},
{
horizontal = 1;
place = "{330, 109}";
type = Stem;
},
{
horizontal = 1;
place = "{627, 114}";
type = Stem;
},
{
place = "{91, 148}";
type = Stem;
},
{
place = "{498, 144}";
type = Stem;
},
{
place = "{460, 144}";
type = Stem;
}
);
layerId = "41DC85D1-EFC7-4239-A657-2B8BDE01F0BA";
paths = (
{
closed = 1;
nodes = (
"91 0 LINE",
"355 0 LINE SMOOTH",
"414.15 0.11 OFFCURVE",
"465.88 8.99 OFFCURVE",
"510.2 26.64 CURVE SMOOTH",
"598.07 62.22 OFFCURVE",
"642 126.01 OFFCURVE",
"642 218 CURVE SMOOTH",
"641.92 237.19 OFFCURVE",
"639.66 255.45 OFFCURVE",
"635.22 272.78 CURVE SMOOTH",
"618.34 336 OFFCURVE",
"574.26 376.08 OFFCURVE",
"503 393 CURVE",
"503 398 LINE",
"520.93 404.46 OFFCURVE",
"537.46 414.93 OFFCURVE",
"552.6 429.41 CURVE SMOOTH",
"586.87 463.29 OFFCURVE",
"604 506.15 OFFCURVE",
"604 558 CURVE SMOOTH",
"603.24 678.97 OFFCURVE",
"513.9 739.97 OFFCURVE",
"336 741 CURVE SMOOTH",
"91 741 LINE"
);
},
{
closed = 1;
nodes = (
"239 439 LINE",
"239 627 LINE",
"327 627 LINE SMOOTH",
"343.93 627 OFFCURVE",
"359.07 626.05 OFFCURVE",
"372.42 624.16 CURVE SMOOTH",
"430.8 615.88 OFFCURVE",
"460 586.49 OFFCURVE",
"460 536 CURVE SMOOTH",
"456.79 475.65 OFFCURVE",
"411.79 443.31 OFFCURVE",
"325 439 CURVE SMOOTH"
);
},
{
closed = 1;
nodes = (
"239 114 LINE",
"239 330 LINE",
"342 330 LINE SMOOTH",
"444.7 329.6 OFFCURVE",
"496.7 295.26 OFFCURVE",
"498 227 CURVE SMOOTH",
"497.31 152.65 OFFCURVE",
"445.31 114.98 OFFCURVE",
"342 114 CURVE SMOOTH"
);
}
);
vertWidth = 1000;
width = 681;
}
);
note = B;
unicode = 0042;
},
{
glyphname = C;
layers = (
{
hints = (
{
horizontal = 1;
place = "{-14, 128}";
type = Stem;
},
{
horizontal = 1;
place = "{627, 127}";
type = Stem;
},
{
place = "{54, 151}";
type = Stem;
}
);
layerId = "41DC85D1-EFC7-4239-A657-2B8BDE01F0BA";
paths = (
{
closed = 1;
nodes = (
"487.36 -13.68 OFFCURVE",
"566.03 22.65 OFFCURVE",
"629 95 CURVE",
"551 187 LINE",
"505.94 138.89 OFFCURVE",
"454.94 114.56 OFFCURVE",
"398 114 CURVE SMOOTH",
"358.24 114.22 OFFCURVE",
"323.24 125.31 OFFCURVE",
"292.99 147.27 CURVE SMOOTH",
"234.33 190.98 OFFCURVE",
"205 265.89 OFFCURVE",
"205 372 CURVE SMOOTH",
"205.18 437.95 OFFCURVE",
"219.07 493.55 OFFCURVE",
"246.67 538.78 CURVE SMOOTH",
"283.21 597.59 OFFCURVE",
"334.65 627 OFFCURVE",
"401 627 CURVE SMOOTH",
"448.23 626.68 OFFCURVE",
"493.9 606.01 OFFCURVE",
"538 565 CURVE",
"615 659 LINE",
"614.65 659.36 OFFCURVE",
"613.99 660.05 OFFCURVE",
"612.99 661.07 CURVE SMOOTH",
"552.42 723.02 OFFCURVE",
"480.75 754 OFFCURVE",
"398 754 CURVE SMOOTH",
"309.8 753.73 OFFCURVE",
"234.26 724.84 OFFCURVE",
"171.37 667.33 CURVE SMOOTH",
"93.13 594.92 OFFCURVE",
"54 494.81 OFFCURVE",
"54 367 CURVE SMOOTH",
"54.24 253.65 OFFCURVE",
"84.68 162.2 OFFCURVE",
"145.3 92.68 CURVE SMOOTH",
"208.08 21.56 OFFCURVE",
"290.65 -14 OFFCURVE",
"393 -14 CURVE SMOOTH"
);
}
);
vertWidth = 1000;
width = 657;
}
);
note = C;
unicode = 0043;
},
{
glyphname = D;
layers = (
{
hints = (
{
horizontal = 1;
place = "{0, 119}";
type = Stem;
},
{
horizontal = 1;
place = "{622, 119}";
type = Stem;
},
{
place = "{91, 148}";
type = Stem;
},
{
place = "{509, 151}";
type = Stem;
}
);
layerId = "41DC85D1-EFC7-4239-A657-2B8BDE01F0BA";
paths = (
{
closed = 1;
nodes = (
"91 0 LINE",
"302 0 LINE SMOOTH",
"377.78 0.15 OFFCURVE",
"442.99 15 OFFCURVE",
"497.63 44.54 CURVE SMOOTH",
"605.88 103.9 OFFCURVE",
"660 213.39 OFFCURVE",
"660 373 CURVE SMOOTH",
"659.87 445.39 OFFCURVE",
"648.06 507.98 OFFCURVE",
"624.56 560.77 CURVE SMOOTH",
"570.26 680.92 OFFCURVE",
"460.07 741 OFFCURVE",
"294 741 CURVE SMOOTH",
"91 741 LINE"
);
},
{
closed = 1;
nodes = (
"239 119 LINE",
"239 622 LINE",
"285 622 LINE SMOOTH",
"289.66 621.99 OFFCURVE",
"294.58 621.9 OFFCURVE",
"299.76 621.73 CURVE SMOOTH",
"439.25 616.56 OFFCURVE",
"509 533.65 OFFCURVE",
"509 373 CURVE SMOOTH",
"508.37 205.08 OFFCURVE",
"433.7 120.41 OFFCURVE",
"285 119 CURVE SMOOTH"
);
}
);
vertWidth = 1000;
width = 714;
}
);
note = D;
unicode = 0044;
},
{
glyphname = E;
layers = (
{
hints = (
{
horizontal = 1;
place = "{0, 124}";
type = Stem;
},
{
horizontal = 1;
place = "{322, 124}";
type = Stem;
},
{
horizontal = 1;
place = "{617, 124}";
type = Stem;
},
{
place = "{91, 148}";
type = Stem;
}
);
layerId = "41DC85D1-EFC7-4239-A657-2B8BDE01F0BA";
paths = (
{
closed = 1;
nodes = (
"91 0 LINE",
"556 0 LINE",
"556 124 LINE",
"239 124 LINE",
"239 322 LINE",
"499 322 LINE",
"499 446 LINE",
"239 446 LINE",
"239 617 LINE",
"545 617 LINE",
"545 741 LINE",
"91 741 LINE"
);
}
);
vertWidth = 1000;
width = 615;
}
);
note = E;
unicode = 0045;
},
{
glyphname = F;
layers = (
{
hints = (
{
horizontal = 1;
place = "{0, 21}";
target = up;
type = BottomGhost;
},
{
horizontal = 1;
place = "{300, 124}";
type = Stem;
},
{
horizontal = 1;
place = "{617, 124}";
type = Stem;
},
{
place = "{91, 148}";
type = Stem;
}
);
layerId = "41DC85D1-EFC7-4239-A657-2B8BDE01F0BA";
paths = (
{
closed = 1;
nodes = (
"91 0 LINE",
"239 0 LINE",
"239 300 LINE",
"502 300 LINE",
"502 424 LINE",
"239 424 LINE",
"239 617 LINE",
"547 617 LINE",
"547 741 LINE",
"91 741 LINE"
);
}
);
vertWidth = 1000;
width = 585;
}
);
note = F;
unicode = 0046;
},
{
glyphname = G;
layers = (
{
hints = (
{
horizontal = 1;
place = "{-14, 128}";
type = Stem;
},
{
horizontal = 1;
place = "{288, 121}";
type = Stem;
},
{
horizontal = 1;
place = "{627, 127}";
type = Stem;
},
{
place = "{54, 151}";
type = Stem;
},
{
place = "{517, 132}";
type = Stem;
}
);
layerId = "41DC85D1-EFC7-4239-A657-2B8BDE01F0BA";
paths = (
{
closed = 1;
nodes = (
"425.07 -13.96 OFFCURVE",
"441.35 -12.95 OFFCURVE",
"457.85 -10.96 CURVE SMOOTH",
"536.91 -1.06 OFFCURVE",
"600.62 27.6 OFFCURVE",
"649 75 CURVE",
"649 409 LINE",
"386 409 LINE",
"386 288 LINE",
"517 288 LINE",
"517 142 LINE",
"495.14 123.72 OFFCURVE",
"464.47 114.39 OFFCURVE",
"425 114 CURVE SMOOTH",
"389.08 114.12 OFFCURVE",
"356.88 120.11 OFFCURVE",
"328.39 131.94 CURVE SMOOTH",
"246.13 167.05 OFFCURVE",
"205 247.07 OFFCURVE",
"205 372 CURVE SMOOTH",
"205.17 435.25 OFFCURVE",
"218.37 488.87 OFFCURVE",
"244.59 532.87 CURVE SMOOTH",
"282.69 595.63 OFFCURVE",
"339.16 627.01 OFFCURVE",
"414 627.01 CURVE SMOOTH",
"467.04 626.72 OFFCURVE",
"515.7 606.05 OFFCURVE",
"560 565.01 CURVE",
"638 659.01 LINE",
"576.05 721.92 OFFCURVE",
"499.72 753.58 OFFCURVE",
"409 754.01 CURVE SMOOTH",
"317.08 753.75 OFFCURVE",
"238.93 725.18 OFFCURVE",
"174.56 668.29 CURVE SMOOTH",
"94.19 596.41 OFFCURVE",
"54 495.98 OFFCURVE",
"54 367.01 CURVE SMOOTH",
"54.24 256.86 OFFCURVE",
"83.58 167.57 OFFCURVE",
"142.04 99.12 CURVE SMOOTH",
"207.25 23.71 OFFCURVE",
"296.24 -13.99 OFFCURVE",
"409 -13.99 CURVE SMOOTH"
);
}
);
vertWidth = 1000;
width = 717;
}
);
note = G;
unicode = 0047;
},
{
glyphname = H;
layers = (
{
hints = (
{
horizontal = 1;
place = "{0, 21}";
target = up;
type = BottomGhost;
},
{
horizontal = 1;
place = "{320, 129}";
type = Stem;
},
{
horizontal = 1;
place = "{741, -20}";
target = down;
type = TopGhost;
},
{
place = "{91, 148}";
type = Stem;
},
{
place = "{519, 147}";
type = Stem;
}
);
layerId = "41DC85D1-EFC7-4239-A657-2B8BDE01F0BA";
paths = (
{
closed = 1;
nodes = (
"91 0 LINE",
"239 0 LINE",
"239 320 LINE",
"519 320 LINE",
"519 0 LINE",
"666 0 LINE",
"666 741 LINE",
"519 741 LINE",
"519 449 LINE",
"239 449 LINE",
"239 741 LINE",
"91 741 LINE"
);
}
);
vertWidth = 1000;
width = 757;
}
);
note = H;
unicode = 0048;
},
{
glyphname = I;
layers = (
{
hints = (
{
horizontal = 1;
place = "{0, 21}";
target = up;
type = BottomGhost;
},
{
horizontal = 1;
place = "{741, -20}";
target = down;
type = TopGhost;
},
{
place = "{91, 148}";
type = Stem;
}
);
layerId = "41DC85D1-EFC7-4239-A657-2B8BDE01F0BA";
paths = (
{
closed = 1;
nodes = (
"91 0 LINE",
"239 0 LINE",
"239 741 LINE",
"91 741 LINE"
);
}
);
vertWidth = 1000;
width = 330;
}
);
note = I;
unicode = 0049;
},
{
glyphname = J;
layers = (
{
hints = (
{
horizontal = 1;
place = "{-14, 128}";
type = Stem;
},
{
horizontal = 1;
place = "{741, -20}";
target = down;
type = TopGhost;
},
{
place = "{333, 148}";
type = Stem;
}
);
layerId = "41DC85D1-EFC7-4239-A657-2B8BDE01F0BA";
paths = (
{
closed = 1;
nodes = (
"306.44 -13.8 OFFCURVE",
"352.41 -0.43 OFFCURVE",
"389.91 26.1 CURVE SMOOTH",
"450.64 70.04 OFFCURVE",
"481 141 OFFCURVE",
"481 239 CURVE SMOOTH",
"481 741 LINE",
"333 741 LINE",
"333 251 LINE SMOOTH",
"332.93 225.71 OFFCURVE",
"330.73 203.84 OFFCURVE",
"326.39 185.41 CURVE SMOOTH",
"314.68 137.8 OFFCURVE",
"283.89 114 OFFCURVE",
"234 114 CURVE SMOOTH",
"188.75 114.45 OFFCURVE",
"152.09 140.12 OFFCURVE",
"124 191 CURVE",
"23 116 LINE",
"72.36 30.08 OFFCURVE",
"148.7 -13.25 OFFCURVE",
"252 -14 CURVE SMOOTH"
);
}
);
vertWidth = 1000;
width = 568;
}
);
note = J;
unicode = 004A;
},
{
glyphname = K;
layers = (
{
hints = (
{
horizontal = 1;
place = "{0, 21}";
target = up;
type = BottomGhost;
},
{
horizontal = 1;
place = "{741, -20}";
target = down;
type = TopGhost;
},
{
place = "{91, 148}";
type = Stem;
}
);
layerId = "41DC85D1-EFC7-4239-A657-2B8BDE01F0BA";
paths = (
{
closed = 1;
nodes = (
"91 0 LINE",
"239 0 LINE",
"239 208 LINE",
"336 333 LINE",
"528 0 LINE",
"690 0 LINE",
"424 449 LINE",
"650 741 LINE",
"487 741 LINE",
"242 419 LINE",
"239 419 LINE",
"239 741 LINE",
"91 741 LINE"
);
}
);
vertWidth = 1000;
width = 686;
}
);
note = K;
unicode = 004B;
},
{
glyphname = L;
layers = (
{
hints = (
{
horizontal = 1;
place = "{0, 124}";
type = Stem;
},
{
horizontal = 1;
place = "{741, -20}";
target = down;
type = TopGhost;
},
{
place = "{91, 148}";
type = Stem;
}
);
layerId = "41DC85D1-EFC7-4239-A657-2B8BDE01F0BA";
paths = (
{
closed = 1;
nodes = (
"91 0 LINE",
"540 0 LINE",
"540 124 LINE",
"239 124 LINE",
"239 741 LINE",
"91 741 LINE"
);
}
);
vertWidth = 1000;
width = 578;
}
);
note = L;
unicode = 004C;
},
{
glyphname = M;
layers = (
{
hints = (
{
horizontal = 1;
place = "{0, 21}";
target = up;
type = BottomGhost;
},
{
horizontal = 1;
place = "{67, 185}";
type = Stem;
},
{
horizontal = 1;
place = "{552, 189}";
type = Stem;
},
{
place = "{91, 133}";
type = Stem;
},
{
place = "{628, 135}";
type = Stem;
},
{
horizontal = 1;
place = "{741, -20}";
target = down;
type = TopGhost;
}
);
layerId = "41DC85D1-EFC7-4239-A657-2B8BDE01F0BA";
paths = (
{
closed = 1;
nodes = (
"91 0 LINE",
"224 0 LINE",
"224 309 LINE SMOOTH",
"223.95 344.25 OFFCURVE",
"217.62 425.25 OFFCURVE",
"205 552 CURVE",
"209 552 LINE",
"268 378 LINE",
"383 67 LINE",
"468 67 LINE",
"582 378 LINE",
"642 552 LINE",
"647 552 LINE",
"634.4 441.65 OFFCURVE",
"628.07 360.65 OFFCURVE",
"628 309 CURVE SMOOTH",
"628 0 LINE",
"763 0 LINE",
"763 741 LINE",
"599 741 LINE",
"476 394 LINE SMOOTH",
"470.54 378.25 OFFCURVE",
"462.75 353.74 OFFCURVE",
"452.62 320.48 CURVE SMOOTH",
"443.32 289.86 OFFCURVE",
"436.12 267.03 OFFCURVE",
"431 252 CURVE",
"426 252 LINE",
"422.51 262.94 OFFCURVE",
"417.26 279.84 OFFCURVE",
"410.23 302.72 CURVE SMOOTH",
"397.61 343.82 OFFCURVE",
"387.87 374.25 OFFCURVE",
"381 394 CURVE SMOOTH",
"255 741 LINE",
"91 741 LINE"
);
}
);
vertWidth = 1000;
width = 854;
}
);
note = M;
unicode = 004D;
},
{
glyphname = N;
layers = (
{
hints = (
{
horizontal = 1;
place = "{0, 21}";
target = up;
type = BottomGhost;
},
{
horizontal = 1;
place = "{555, 186}";
type = Stem;
},
{
place = "{91, 140}";
type = Stem;
},
{
place = "{517, 140}";
type = Stem;
},
{
horizontal = 1;
place = "{0, 186}";
type = Stem;
},
{
horizontal = 1;
place = "{741, -20}";
target = down;
type = TopGhost;
}
);
layerId = "41DC85D1-EFC7-4239-A657-2B8BDE01F0BA";
paths = (
{
closed = 1;
nodes = (
"91 0 LINE",
"231 0 LINE",
"231 297 LINE SMOOTH",
"230.99 302.52 OFFCURVE",
"230.94 308.48 OFFCURVE",
"230.84 314.9 CURVE SMOOTH",
"230.33 344.82 OFFCURVE",
"224.38 424.85 OFFCURVE",
"213 555 CURVE",
"218 555 LINE",
"293 396 LINE",
"507 0 LINE",
"657 0 LINE",
"657 741 LINE",
"517 741 LINE",
"517 445 LINE SMOOTH",
"517.01 437.08 OFFCURVE",
"517.12 428.52 OFFCURVE",
"517.35 419.31 CURVE SMOOTH",
"518.03 393.1 OFFCURVE",
"524.25 315.33 OFFCURVE",
"536 186 CURVE",
"531 186 LINE",
"457 346 LINE",
"242 741 LINE",
"91 741 LINE"
);
}
);
vertWidth = 1000;
width = 749;
}
);
note = N;
unicode = 004E;
},
{
glyphname = O;
layers = (
{
hints = (
{
horizontal = 1;
place = "{-14, 128}";
type = Stem;
},
{
horizontal = 1;
place = "{627, 127}";
type = Stem;
},
{
place = "{54, 151}";
type = Stem;
},
{
place = "{565, 151}";
type = Stem;
}
);
layerId = "41DC85D1-EFC7-4239-A657-2B8BDE01F0BA";
paths = (
{
closed = 1;
nodes = (
"469.98 -13.74 OFFCURVE",
"541.55 12.49 OFFCURVE",
"599.72 64.69 CURVE SMOOTH",
"677.24 135.22 OFFCURVE",
"716 237.99 OFFCURVE",
"716 373 CURVE SMOOTH",
"715.79 479.06 OFFCURVE",
"690.55 565.94 OFFCURVE",
"640.27 633.65 CURVE SMOOTH",
"579.94 713.89 OFFCURVE",
"494.85 754 OFFCURVE",
"385 754 CURVE SMOOTH",
"302.51 753.76 OFFCURVE",
"232.79 730.04 OFFCURVE",
"175.82 682.82 CURVE SMOOTH",
"94.6 614.56 OFFCURVE",
"54 511.28 OFFCURVE",
"54 373 CURVE SMOOTH",
"54.21 264.57 OFFCURVE",
"80.37 175.61 OFFCURVE",
"132.48 106.11 CURVE SMOOTH",
"193.24 26.03 OFFCURVE",
"277.42 -14 OFFCURVE",
"385 -14 CURVE SMOOTH"
);
},
{
closed = 1;
nodes = (
"347.58 114.24 OFFCURVE",
"314.6 125.82 OFFCURVE",
"286.08 148.74 CURVE SMOOTH",
"232.03 193.37 OFFCURVE",
"205 268.12 OFFCURVE",
"205 373 CURVE SMOOTH",
"205.13 431.96 OFFCURVE",
"214.59 482.36 OFFCURVE",
"233.38 524.18 CURVE SMOOTH",
"264.77 592.72 OFFCURVE",
"315.31 627 OFFCURVE",
"385 627 CURVE SMOOTH",
"420.33 626.79 OFFCURVE",
"451.65 617 OFFCURVE",
"478.97 597.65 CURVE SMOOTH",
"536.32 555.86 OFFCURVE",
"565 480.97 OFFCURVE",
"565 373 CURVE SMOOTH",
"564.86 311.05 OFFCURVE",
"554.42 258.16 OFFCURVE",
"533.67 214.31 CURVE SMOOTH",
"501.45 147.44 OFFCURVE",
"451.89 114 OFFCURVE",
"385 114 CURVE SMOOTH"
);
}
);
vertWidth = 1000;
width = 770;
}
);
note = O;
unicode = 004F;
},
{
glyphname = P;
layers = (
{
hints = (
{
horizontal = 1;
place = "{0, 21}";
target = up;
type = BottomGhost;
},
{
horizontal = 1;
place = "{263, 117}";
type = Stem;
},
{
horizontal = 1;
place = "{623, 118}";
type = Stem;
},
{
place = "{91, 148}";
type = Stem;
},
{
place = "{479, 145}";
type = Stem;
}
);
layerId = "41DC85D1-EFC7-4239-A657-2B8BDE01F0BA";
paths = (
{
closed = 1;
nodes = (
"91 0 LINE",
"239 0 LINE",
"239 263 LINE",
"338 263 LINE SMOOTH",
"396.86 263.13 OFFCURVE",
"448.5 273.25 OFFCURVE",
"492.9 293.37 CURVE SMOOTH",
"580.3 333.63 OFFCURVE",
"624 405.17 OFFCURVE",
"624 508 CURVE SMOOTH",
"623.23 662.13 OFFCURVE",
"526.57 739.8 OFFCURVE",
"334 741 CURVE SMOOTH",
"91 741 LINE"
);
},
{
closed = 1;
nodes = (
"239 380 LINE",
"239 623 LINE",
"323 623 LINE SMOOTH",
"350.1 622.94 OFFCURVE",
"373.55 620.77 OFFCURVE",
"393.37 616.48 CURVE SMOOTH",
"450.46 603.64 OFFCURVE",
"479 567.48 OFFCURVE",
"479 508 CURVE SMOOTH",
"478.35 423.79 OFFCURVE",
"428.02 381.12 OFFCURVE",
"328 380 CURVE SMOOTH"
);
}
);
vertWidth = 1000;
width = 667;
}
);
note = P;
unicode = 0050;
},
{
glyphname = Q;
layers = (
{
hints = (
{
horizontal = 1;
place = "{-201, 119}";
type = Stem;
},
{
horizontal = 1;
place = "{-3, 21}";
target = up;
type = BottomGhost;
},
{
horizontal = 1;
place = "{627, 127}";
type = Stem;
},
{
place = "{54, 151}";
type = Stem;
},
{
place = "{565, 151}";
type = Stem;
}
);
layerId = "41DC85D1-EFC7-4239-A657-2B8BDE01F0BA";
paths = (
{
closed = 1;
nodes = (
"349.25 107.23 OFFCURVE",
"317.59 117.76 OFFCURVE",
"290.05 138.6 CURVE SMOOTH",
"233.35 182.72 OFFCURVE",
"205 260.85 OFFCURVE",
"205 373 CURVE SMOOTH",
"205.13 431.96 OFFCURVE",
"214.59 482.36 OFFCURVE",
"233.38 524.18 CURVE SMOOTH",
"264.77 592.72 OFFCURVE",
"315.31 627 OFFCURVE",
"385 627 CURVE SMOOTH",
"420.33 626.79 OFFCURVE",
"451.65 617 OFFCURVE",
"478.97 597.65 CURVE SMOOTH",
"536.32 555.86 OFFCURVE",
"565 480.97 OFFCURVE",
"565 373 CURVE SMOOTH",
"564.87 309.86 OFFCURVE",
"554.96 256.13 OFFCURVE",
"535.25 211.83 CURVE SMOOTH",
"503.61 141.95 OFFCURVE",
"453.52 107 OFFCURVE",
"385 107 CURVE SMOOTH"
);
},
{
closed = 1;
nodes = (
"675.02 -200.85 OFFCURVE",
"716.69 -193.52 OFFCURVE",
"749 -179 CURVE",
"722 -70 LINE",
"698.15 -77.83 OFFCURVE",
"671.15 -81.83 OFFCURVE",
"641 -82 CURVE SMOOTH",
"636.59 -82 OFFCURVE",
"632.21 -81.9 OFFCURVE",
"627.85 -81.7 CURVE SMOOTH",
"554.44 -78.35 OFFCURVE",
"502.82 -52.11 OFFCURVE",
"473 -3 CURVE",
"521.17 9.64 OFFCURVE",
"563.57 32.45 OFFCURVE",
"600.18 65.42 CURVE SMOOTH",
"677.39 136.01 OFFCURVE",
"716 238.53 OFFCURVE",
"716 373 CURVE SMOOTH",
"715.79 479.06 OFFCURVE",
"690.55 565.94 OFFCURVE",
"640.27 633.65 CURVE SMOOTH",
"579.94 713.89 OFFCURVE",
"494.85 754 OFFCURVE",
"385 754 CURVE SMOOTH",
"302.51 753.76 OFFCURVE",
"232.79 730.04 OFFCURVE",
"175.82 682.82 CURVE SMOOTH",
"94.6 614.56 OFFCURVE",
"54 511.28 OFFCURVE",
"54 373 CURVE SMOOTH",
"54.16 287.36 OFFCURVE",
"70.98 213 OFFCURVE",
"104.46 149.91 CURVE SMOOTH",
"151.36 62.64 OFFCURVE",
"222.21 10 OFFCURVE",
"317 -8 CURVE",
"328.36 -32.74 OFFCURVE",
"342.28 -55.85 OFFCURVE",
"358.75 -77.32 CURVE SMOOTH",
"422.89 -159.78 OFFCURVE",
"511.3 -201 OFFCURVE",
"624 -201 CURVE SMOOTH"
);
}
);
vertWidth = 1000;
width = 770;
}
);
note = Q;
unicode = 0051;
},
{
glyphname = R;
layers = (
{
hints = (
{
horizontal = 1;
place = "{0, 21}";
target = up;
type = BottomGhost;
},
{
horizontal = 1;
place = "{280, 117}";
type = Stem;
},
{
horizontal = 1;
place = "{623, 118}";
type = Stem;
},
{
place = "{91, 148}";
type = Stem;
},
{
place = "{483, 144}";
type = Stem;
}
);
layerId = "41DC85D1-EFC7-4239-A657-2B8BDE01F0BA";
paths = (
{
closed = 1;
nodes = (
"91 0 LINE",
"239 0 LINE",
"239 280 LINE",
"342 280 LINE",
"494 0 LINE",
"659 0 LINE",
"486 303 LINE",
"487.66 303.65 OFFCURVE",
"489.64 304.45 OFFCURVE",
"491.94 305.38 CURVE SMOOTH",
"581.98 342.74 OFFCURVE",
"627 412.94 OFFCURVE",
"627 516 CURVE SMOOTH",
"626.98 521.73 OFFCURVE",
"626.83 527.7 OFFCURVE",
"626.53 533.9 CURVE SMOOTH",
"619.08 671.97 OFFCURVE",
"526.57 741 OFFCURVE",
"349 741 CURVE SMOOTH",
"91 741 LINE"
);
},
{
closed = 1;
nodes = (
"239 397 LINE",
"239 623 LINE",
"335 623 LINE SMOOTH",
"356.97 622.95 OFFCURVE",
"376.54 621.42 OFFCURVE",
"393.69 618.41 CURVE SMOOTH",
"453.23 607.49 OFFCURVE",
"483 573.35 OFFCURVE",
"483 516 CURVE SMOOTH",
"482.97 511.04 OFFCURVE",
"482.73 505.88 OFFCURVE",
"482.28 500.52 CURVE SMOOTH",
"475.62 431.51 OFFCURVE",
"426.53 397 OFFCURVE",
"335 397 CURVE SMOOTH"
);
}
);
vertWidth = 1000;
width = 682;
}
);
note = R;
unicode = 0052;
},
{
glyphname = S;
layers = (
{
hints = (
{
horizontal = 1;
place = "{-14, 128}";
type = Stem;
},
{
horizontal = 1;
place = "{627, 127}";
type = Stem;
},
{
place = "{73, 150}";
type = Stem;
},
{
place = "{433, 151}";
type = Stem;
}
);
layerId = "41DC85D1-EFC7-4239-A657-2B8BDE01F0BA";
paths = (
{
closed = 1;
nodes = (
"387.46 -13.78 OFFCURVE",
"450.25 5.23 OFFCURVE",
"500.39 43.01 CURVE SMOOTH",
"556.13 85.72 OFFCURVE",
"584 141.38 OFFCURVE",
"584 210 CURVE SMOOTH",
"583.94 225.37 OFFCURVE",
"582.66 240.26 OFFCURVE",
"580.15 254.67 CURVE SMOOTH",
"567.39 324.36 OFFCURVE",
"519 376.47 OFFCURVE",
"435 411 CURVE SMOOTH",
"338 452 LINE SMOOTH",
"310.64 462.85 OFFCURVE",
"291.52 470.94 OFFCURVE",
"280.63 476.26 CURVE SMOOTH",
"242.21 495.3 OFFCURVE",
"223 519.55 OFFCURVE",
"223 549 CURVE SMOOTH",
"223.11 558.2 OFFCURVE",
"224.68 567.1 OFFCURVE",
"227.7 575.7 CURVE SMOOTH",
"240.78 609.9 OFFCURVE",
"274.55 627 OFFCURVE",
"329 627 CURVE SMOOTH",
"384.19 626.75 OFFCURVE",
"436.52 606.41 OFFCURVE",
"486 566 CURVE",
"561 659 LINE",
"555.63 664.41 OFFCURVE",
"549.72 669.95 OFFCURVE",
"543.25 675.62 CURVE SMOOTH",
"482.68 727.87 OFFCURVE",
"411.26 754 OFFCURVE",
"329 754 CURVE SMOOTH",
"261.77 753.78 OFFCURVE",
"204.38 736.42 OFFCURVE",
"156.83 701.93 CURVE SMOOTH",
"100.95 660.7 OFFCURVE",
"73 606.73 OFFCURVE",
"73 540 CURVE SMOOTH",
"73.02 534.44 OFFCURVE",
"73.25 528.61 OFFCURVE",
"73.67 522.53 CURVE SMOOTH",
"80.15 439.98 OFFCURVE",
"129.92 379.47 OFFCURVE",
"223 341 CURVE SMOOTH",
"322 299 LINE SMOOTH",
"352.45 286.09 OFFCURVE",
"373.13 276.67 OFFCURVE",
"384.05 270.72 CURVE SMOOTH",
"416.69 252.65 OFFCURVE",
"433 228.74 OFFCURVE",
"433 199 CURVE SMOOTH",
"432.91 191.03 OFFCURVE",
"431.86 183.17 OFFCURVE",
"429.83 175.42 CURVE SMOOTH",
"418.07 134.47 OFFCURVE",
"379.79 114 OFFCURVE",
"315 114 CURVE SMOOTH",
"310.86 114.02 OFFCURVE",
"306.34 114.18 OFFCURVE",
"301.45 114.47 CURVE SMOOTH",
"239.35 118.71 OFFCURVE",
"181.2 145.89 OFFCURVE",
"127 196 CURVE",
"42 94 LINE",
"48.61 87.71 OFFCURVE",
"55.78 81.35 OFFCURVE",
"63.53 74.91 CURVE SMOOTH",
"135.77 15.64 OFFCURVE",
"218.59 -14 OFFCURVE",
"312 -14 CURVE SMOOTH"
);
}
);
vertWidth = 1000;
width = 624;
}
);
note = S;
unicode = 0053;
},
{
glyphname = T;
layers = (
{
hints = (
{
horizontal = 1;
place = "{0, 21}";
target = up;
type = BottomGhost;
},
{
horizontal = 1;
place = "{617, 124}";
type = Stem;
},
{
place = "{238, 148}";
type = Stem;
}
);
layerId = "41DC85D1-EFC7-4239-A657-2B8BDE01F0BA";
paths = (
{
closed = 1;
nodes = (
"238 0 LINE",
"386 0 LINE",
"386 617 LINE",
"596 617 LINE",
"596 741 LINE",
"30 741 LINE",
"30 617 LINE",
"238 617 LINE"
);
}
);
vertWidth = 1000;
width = 625;
}
);
note = T;
unicode = 0054;
},
{
glyphname = U;
layers = (
{
hints = (
{
horizontal = 1;
place = "{-14, 128}";
type = Stem;
},
{
horizontal = 1;
place = "{741, -20}";
target = down;
type = TopGhost;
},
{
place = "{87, 148}";
type = Stem;
},
{
place = "{519, 142}";
type = Stem;
}
);
layerId = "41DC85D1-EFC7-4239-A657-2B8BDE01F0BA";
paths = (
{
closed = 1;
nodes = (
"381.45 -13.99 OFFCURVE",
"388.12 -13.84 OFFCURVE",
"395.02 -13.57 CURVE SMOOTH",
"572.34 -5.85 OFFCURVE",
"661 109.67 OFFCURVE",
"661 333 CURVE SMOOTH",
"661 741 LINE",
"519 741 LINE",
"519 320 LINE SMOOTH",
"518.96 294.62 OFFCURVE",
"517.38 271.32 OFFCURVE",
"514.27 250.09 CURVE SMOOTH",
"500.5 159.36 OFFCURVE",
"454.07 114 OFFCURVE",
"375 114 CURVE SMOOTH",
"364.77 114.05 OFFCURVE",
"354.82 114.85 OFFCURVE",
"345.14 116.39 CURVE SMOOTH",
"271.71 128.98 OFFCURVE",
"235 196.85 OFFCURVE",
"235 320 CURVE SMOOTH",
"235 741 LINE",
"87 741 LINE",
"87 333 LINE SMOOTH",
"87.58 103.08 OFFCURVE",
"183.58 -12.58 OFFCURVE",
"375 -14 CURVE SMOOTH"
);
}
);
vertWidth = 1000;
width = 748;
}
);
note = U;
unicode = 0055;
},
{
glyphname = V;
layers = (
{
hints = (
{
horizontal = 1;
place = "{0, 21}";
target = up;
type = BottomGhost;
},
{
horizontal = 1;
place = "{741, -20}";
target = down;
type = TopGhost;
},
{
place = "{-5, 629}";
type = Stem;
},
{
horizontal = 1;
place = "{0, 141}";
type = Stem;
}
);
layerId = "41DC85D1-EFC7-4239-A657-2B8BDE01F0BA";
paths = (
{
closed = 1;
nodes = (
"221 0 LINE",
"398 0 LINE",
"624 741 LINE",
"474 741 LINE",
"378 380 LINE SMOOTH",
"370.95 354.82 OFFCURVE",
"361.26 317.85 OFFCURVE",
"348.94 269.07 CURVE SMOOTH",
"334.87 213.29 OFFCURVE",
"323.56 170.6 OFFCURVE",
"315 141 CURVE",
"310 141 LINE",
"302.61 167.71 OFFCURVE",
"292.53 206.67 OFFCURVE",
"279.75 257.88 CURVE SMOOTH",
"266.45 311.26 OFFCURVE",
"255.87 351.97 OFFCURVE",
"248 380 CURVE SMOOTH",
"150 741 LINE",
"-5 741 LINE"
);
}
);
vertWidth = 1000;
width = 618;
}
);
note = V;
unicode = 0056;
},
{
glyphname = W;
layers = (
{
hints = (
{
horizontal = 1;
place = "{0, 143}";
type = Stem;
},
{
horizontal = 1;
place = "{741, -20}";
target = down;
type = TopGhost;
},
{
place = "{19, 876}";
type = Stem;
}
);
layerId = "41DC85D1-EFC7-4239-A657-2B8BDE01F0BA";
paths = (
{
closed = 1;
nodes = (
"161 0 LINE",
"342 0 LINE",
"423 366 LINE SMOOTH",
"430.94 404.43 OFFCURVE",
"441.6 461.77 OFFCURVE",
"455 538 CURVE",
"459 538 LINE",
"466.68 489.47 OFFCURVE",
"477.35 432.13 OFFCURVE",
"491 366 CURVE SMOOTH",
"574 0 LINE",
"758 0 LINE",
"895 741 LINE",
"755 741 LINE",
"696 379 LINE SMOOTH",
"686.26 310.81 OFFCURVE",
"675.26 232.14 OFFCURVE",
"663 143 CURVE",
"658 143 LINE",
"654.21 161.95 OFFCURVE",
"648.56 190.64 OFFCURVE",
"641.04 229.08 CURVE SMOOTH",
"627.85 296.57 OFFCURVE",
"617.83 346.54 OFFCURVE",
"611 379 CURVE SMOOTH",
"526 741 LINE",
"399 741 LINE",
"313 379 LINE SMOOTH",
"294.32 289.1 OFFCURVE",
"278.66 210.44 OFFCURVE",
"266 143 CURVE",
"262 143 LINE",
"257.89 172.85 OFFCURVE",
"251.49 217.44 OFFCURVE",
"242.79 276.79 CURVE SMOOTH",
"236.12 322.25 OFFCURVE",
"231.19 356.32 OFFCURVE",
"228 379 CURVE SMOOTH",
"169 741 LINE",
"19 741 LINE"
);
}
);
vertWidth = 1000;
width = 915;
}
);
note = W;
unicode = 0057;
},
{
glyphname = X;
layers = (
{
hints = (
{
horizontal = 1;
place = "{0, 21}";
target = up;
type = BottomGhost;
},
{
horizontal = 1;
place = "{741, -20}";
target = down;
type = TopGhost;
},
{
place = "{14, 599}";
type = Stem;
}
);
layerId = "41DC85D1-EFC7-4239-A657-2B8BDE01F0BA";
paths = (
{
closed = 1;
nodes = (
"14 0 LINE",
"171 0 LINE",
"250 164 LINE SMOOTH",
"272.04 210.56 OFFCURVE",
"290.04 251.22 OFFCURVE",
"304 286 CURVE",
"308 286 LINE",
"314.79 272.1 OFFCURVE",
"324.3 252.02 OFFCURVE",
"336.55 225.75 CURVE SMOOTH",
"349.49 197.96 OFFCURVE",
"359.31 177.38 OFFCURVE",
"366 164 CURVE SMOOTH",
"449 0 LINE",
"613 0 LINE",
"405 375 LINE",
"600 741 LINE",
"444 741 LINE",
"374 588 LINE SMOOTH",
"359.24 555.67 OFFCURVE",
"342.91 516.67 OFFCURVE",
"325 471 CURVE",
"320 471 LINE",
"314.08 483.4 OFFCURVE",
"305.95 500.92 OFFCURVE",
"295.6 523.56 CURVE SMOOTH",
"282.24 552.83 OFFCURVE",
"272.04 574.31 OFFCURVE",
"265 588 CURVE SMOOTH",
"191 741 LINE",
"27 741 LINE",
"222 382 LINE"
);
}
);
vertWidth = 1000;
width = 627;
}
);
note = X;
unicode = 0058;
},
{
glyphname = Y;
layers = (
{
hints = (
{
horizontal = 1;
place = "{0, 21}";
target = up;
type = BottomGhost;
},
{
horizontal = 1;
place = "{741, -20}";
target = down;
type = TopGhost;
},
{
place = "{216, 148}";
type = Stem;
}
);
layerId = "41DC85D1-EFC7-4239-A657-2B8BDE01F0BA";
paths = (
{
closed = 1;
nodes = (
"216 0 LINE",
"364 0 LINE",
"364 271 LINE",
"587 741 LINE",
"433 741 LINE",
"359 560 LINE SMOOTH",
"357.15 555.17 OFFCURVE",
"335.15 500.5 OFFCURVE",
"293 396 CURVE",
"289 396 LINE",
"271.99 438.19 OFFCURVE",
"250.65 492.85 OFFCURVE",
"225 560 CURVE SMOOTH",
"151 741 LINE",
"-6 741 LINE",
"216 271 LINE"
);
}
);
vertWidth = 1000;
width = 581;
}
);
note = Y;
unicode = 0059;
},
{
glyphname = Z;
layers = (
{
hints = (
{
horizontal = 1;
place = "{0, 124}";
type = Stem;
},
{
horizontal = 1;
place = "{617, 124}";
type = Stem;
},
{
place = "{43, 530}";
type = Stem;
}
);
layerId = "41DC85D1-EFC7-4239-A657-2B8BDE01F0BA";
paths = (
{
closed = 1;
nodes = (
"43 0 LINE",
"573 0 LINE",
"573 124 LINE",
"225 124 LINE",
"570 652 LINE",
"570 741 LINE",
"76 741 LINE",
"76 617 LINE",
"388 617 LINE",
"43 89 LINE"
);
}
);
vertWidth = 1000;
width = 613;
}
);
note = Z;
unicode = 005A;
},
{
glyphname = a;
layers = (
{
hints = (
{
horizontal = 1;
place = "{-14, 115}";
type = Stem;
},
{
horizontal = 1;
place = "{456, 118}";
type = Stem;
},
{
place = "{51, 140}";
type = Stem;
},
{
place = "{374, 146}";
type = Stem;
},
{
horizontal = 1;
place = "{0, 21}";
target = up;
type = BottomGhost;
}
);
layerId = "41DC85D1-EFC7-4239-A657-2B8BDE01F0BA";
paths = (
{
closed = 1;
nodes = (
"272.11 -14 OFFCURVE",
"328.44 10.67 OFFCURVE",
"386 60 CURVE",
"390 60 LINE",
"400 0 LINE",
"520 0 LINE",
"520 327 LINE SMOOTH",
"519.97 344.31 OFFCURVE",
"519.1 361.09 OFFCURVE",
"517.39 377.35 CURVE SMOOTH",
"503.01 508.45 OFFCURVE",
"432.21 574 OFFCURVE",
"305 574 CURVE SMOOTH",
"228.77 573.76 OFFCURVE",
"150.77 549.09 OFFCURVE",
"71 500 CURVE",
"124 403 LINE",
"184.73 437.94 OFFCURVE",
"236.06 455.61 OFFCURVE",
"278 456 CURVE SMOOTH",
"337.1 455.25 OFFCURVE",
"369.1 422.92 OFFCURVE",
"374 359 CURVE",
"296.61 350.72 OFFCURVE",
"233.75 337.62 OFFCURVE",
"185.41 319.71 CURVE SMOOTH",
"95.8 286.1 OFFCURVE",
"51 230.2 OFFCURVE",
"51 152 CURVE SMOOTH",
"51.2 116.44 OFFCURVE",
"60.12 84.7 OFFCURVE",
"77.77 56.78 CURVE SMOOTH",
"108.43 9.6 OFFCURVE",
"154.84 -14 OFFCURVE",
"217 -14 CURVE SMOOTH"
);
},
{
closed = 1;
nodes = (
"261.27 101.03 OFFCURVE",
"257.32 101.2 OFFCURVE",
"253.14 101.52 CURVE SMOOTH",
"211.72 105.25 OFFCURVE",
"191 126.07 OFFCURVE",
"191 164 CURVE SMOOTH",
"192.1 217.91 OFFCURVE",
"253.1 252.91 OFFCURVE",
"374 269 CURVE",
"374 156 LINE",
"373.34 155.36 OFFCURVE",
"372.35 154.41 OFFCURVE",
"371.04 153.14 CURVE SMOOTH",
"334.68 118.38 OFFCURVE",
"299.34 101 OFFCURVE",
"265 101 CURVE SMOOTH"
);
}
);
vertWidth = 1000;
width = 591;
}
);
note = a;
unicode = 0061;
},
{
glyphname = b;
layers = (
{
hints = (
{
horizontal = 1;
place = "{-14, 121}";
type = Stem;
},
{
horizontal = 1;
place = "{453, 121}";
type = Stem;
},
{
place = "{79, 147}";
type = Stem;
},
{
place = "{447, 151}";
type = Stem;
},
{
horizontal = 1;
place = "{0, 21}";
target = up;
type = BottomGhost;
}
);
layerId = "41DC85D1-EFC7-4239-A657-2B8BDE01F0BA";
paths = (
{
closed = 1;
nodes = (
"414.16 -13.71 OFFCURVE",
"462.51 5.83 OFFCURVE",
"505.04 44.63 CURVE SMOOTH",
"567.01 102.14 OFFCURVE",
"598 183.93 OFFCURVE",
"598 290 CURVE SMOOTH",
"597.85 358.2 OFFCURVE",
"585.08 416.31 OFFCURVE",
"559.69 464.33 CURVE SMOOTH",
"520.39 537.44 OFFCURVE",
"459.49 574 OFFCURVE",
"377 574 CURVE SMOOTH",
"323.13 573.66 OFFCURVE",
"271.47 551.33 OFFCURVE",
"222 507 CURVE",
"226 597 LINE",
"226 798 LINE",
"79 798 LINE",
"79 0 LINE",
"194 0 LINE",
"207 59 LINE",
"211 59 LINE",
"257.39 10.96 OFFCURVE",
"307.06 -13.37 OFFCURVE",
"360 -14 CURVE SMOOTH"
);
},
{
closed = 1;
nodes = (
"291.58 107.26 OFFCURVE",
"257.92 121.26 OFFCURVE",
"226 149 CURVE",
"226 395 LINE",
"263.26 432.96 OFFCURVE",
"299.93 452.29 OFFCURVE",
"336 453 CURVE SMOOTH",
"409.08 452.32 OFFCURVE",
"446.08 396.99 OFFCURVE",
"447 287 CURVE SMOOTH",
"446.89 249.36 OFFCURVE",
"441.9 216.63 OFFCURVE",
"432.01 188.8 CURVE SMOOTH",
"412.06 134.27 OFFCURVE",
"377.06 107 OFFCURVE",
"327 107 CURVE SMOOTH"
);
}
);
vertWidth = 1000;
width = 644;
}
);
note = b;
unicode = 0062;
},
{
glyphname = c;
layers = (
{
hints = (
{
horizontal = 1;
place = "{-14, 120}";
type = Stem;
},
{
horizontal = 1;
place = "{454, 120}";
type = Stem;
},
{
place = "{44, 150}";
type = Stem;
}
);
layerId = "41DC85D1-EFC7-4239-A657-2B8BDE01F0BA";
paths = (
{
closed = 1;
nodes = (
"387.21 -13.74 OFFCURVE",
"448.54 8.93 OFFCURVE",
"501 54 CURVE",
"442 151 LINE",
"406.48 121.48 OFFCURVE",
"370.14 106.48 OFFCURVE",
"333 106 CURVE SMOOTH",
"305.91 106.22 OFFCURVE",
"281.34 113.89 OFFCURVE",
"259.29 129.03 CURVE SMOOTH",
"215.76 159.95 OFFCURVE",
"194 210.27 OFFCURVE",
"194 280 CURVE SMOOTH",
"194.15 317.74 OFFCURVE",
"201.5 350.94 OFFCURVE",
"216.05 379.61 CURVE SMOOTH",
"241.91 429.2 OFFCURVE",
"282.56 454 OFFCURVE",
"338 454 CURVE SMOOTH",
"365.89 454 OFFCURVE",
"394.22 441.67 OFFCURVE",
"423 417 CURVE",
"493 512 LINE",
"444.77 552.9 OFFCURVE",
"390.44 573.57 OFFCURVE",
"330 574 CURVE SMOOTH",
"260.4 573.76 OFFCURVE",
"199.66 553.2 OFFCURVE",
"147.8 512.33 CURVE SMOOTH",
"78.6 457 OFFCURVE",
"44 379.56 OFFCURVE",
"44 280 CURVE SMOOTH",
"44.23 200.37 OFFCURVE",
"64.96 134.24 OFFCURVE",
"106.21 81.61 CURVE SMOOTH",
"156.97 17.87 OFFCURVE",
"227.23 -14 OFFCURVE",
"317 -14 CURVE SMOOTH"
);
}
);
vertWidth = 1000;
width = 527;
}
);
note = c;
unicode = 0063;
},
{
glyphname = d;
layers = (
{
hints = (
{
horizontal = 1;
place = "{-14, 121}";
type = Stem;
},
{
horizontal = 1;
place = "{453, 121}";
type = Stem;
},
{
place = "{47, 151}";
type = Stem;
},
{
place = "{419, 146}";
type = Stem;
},
{
horizontal = 1;
place = "{0, 21}";
target = up;
type = BottomGhost;
}
);
layerId = "41DC85D1-EFC7-4239-A657-2B8BDE01F0BA";
paths = (
{
closed = 1;
nodes = (
"329.78 -13.62 OFFCURVE",
"381.45 10.38 OFFCURVE",
"431 58 CURVE",
"435 58 LINE",
"446 0 LINE",
"565 0 LINE",
"565 798 LINE",
"419 798 LINE",
"419 601 LINE",
"424 513 LINE",
"421.45 515.34 OFFCURVE",
"418.64 517.88 OFFCURVE",
"415.56 520.62 CURVE SMOOTH",
"375.04 556.21 OFFCURVE",
"330.52 574 OFFCURVE",
"282 574 CURVE SMOOTH",
"227.54 573.7 OFFCURVE",
"178.81 553.32 OFFCURVE",
"135.81 512.86 CURVE SMOOTH",
"76.61 456.2 OFFCURVE",
"47 378.58 OFFCURVE",
"47 280 CURVE SMOOTH",
"47.16 206.87 OFFCURVE",
"61 145.31 OFFCURVE",
"88.52 95.33 CURVE SMOOTH",
"129.31 22.44 OFFCURVE",
"191.8 -14 OFFCURVE",
"276 -14 CURVE SMOOTH"
);
},
{
closed = 1;
nodes = (
"309.26 107.03 OFFCURVE",
"304.31 107.31 OFFCURVE",
"299.15 107.83 CURVE SMOOTH",
"231.72 115.59 OFFCURVE",
"198 173.31 OFFCURVE",
"198 281 CURVE SMOOTH",
"198.14 321.94 OFFCURVE",
"205.14 357.11 OFFCURVE",
"218.98 386.51 CURVE SMOOTH",
"240.45 430.84 OFFCURVE",
"272.12 453 OFFCURVE",
"314 453 CURVE SMOOTH",
"352.88 452.77 OFFCURVE",
"387.88 438.77 OFFCURVE",
"419 411 CURVE",
"419 165 LINE",
"388.89 127.13 OFFCURVE",
"353.89 107.8 OFFCURVE",
"314 107 CURVE SMOOTH"
);
}
);
vertWidth = 1000;
width = 644;
}
);
note = d;
unicode = 0064;
},
{
glyphname = e;
layers = (
{
hints = (
{
horizontal = 1;
place = "{-14, 113}";
type = Stem;
},
{
horizontal = 1;
place = "{239, 98}";
type = Stem;
},
{
horizontal = 1;
place = "{460, 114}";
type = Stem;
},
{
place = "{44, 141}";
type = Stem;
},
{
place = "{413, 126}";
type = Stem;
}
);
layerId = "41DC85D1-EFC7-4239-A657-2B8BDE01F0BA";
paths = (
{
closed = 1;
nodes = (
"392.83 -13.75 OFFCURVE",
"457.83 6.92 OFFCURVE",
"518 48 CURVE",
"468 138 LINE",
"426.74 112.4 OFFCURVE",
"384.74 99.4 OFFCURVE",
"342 99 CURVE SMOOTH",
"323.08 99.09 OFFCURVE",
"305.15 101.67 OFFCURVE",
"288.2 106.72 CURVE SMOOTH",
"229.87 124.87 OFFCURVE",
"196.13 168.96 OFFCURVE",
"187 239 CURVE",
"532 239 LINE",
"536.55 254.37 OFFCURVE",
"538.88 277.03 OFFCURVE",
"539 307 CURVE SMOOTH",
"538.85 365.27 OFFCURVE",
"527.73 415.93 OFFCURVE",
"505.65 459 CURVE SMOOTH",
"465.63 535.67 OFFCURVE",
"398.75 574 OFFCURVE",
"305 574 CURVE SMOOTH",
"242.98 573.71 OFFCURVE",
"187.64 551.98 OFFCURVE",
"138.96 508.79 CURVE SMOOTH",
"75.66 451.78 OFFCURVE",
"44 375.52 OFFCURVE",
"44 280 CURVE SMOOTH",
"44.24 199.63 OFFCURVE",
"66.21 132.88 OFFCURVE",
"109.91 79.76 CURVE SMOOTH",
"162.15 17.25 OFFCURVE",
"233.18 -14 OFFCURVE",
"323 -14 CURVE SMOOTH"
);
},
{
closed = 1;
nodes = (
"185 337 LINE",
"188.19 359.59 OFFCURVE",
"194.64 379.93 OFFCURVE",
"204.34 398.02 CURVE SMOOTH",
"227.23 439.34 OFFCURVE",
"261.45 460 OFFCURVE",
"307 460 CURVE SMOOTH",
"315.31 459.94 OFFCURVE",
"323.53 459.24 OFFCURVE",
"331.65 457.9 CURVE SMOOTH",
"385.88 448.06 OFFCURVE",
"413 407.76 OFFCURVE",
"413 337 CURVE"
);
}
);
vertWidth = 1000;
width = 581;
}
);
note = e;
unicode = 0065;
},
{
glyphname = f;
layers = (
{
hints = (
{
horizontal = 1;
place = "{0, 21}";
target = up;
type = BottomGhost;
},
{
horizontal = 1;
place = "{444, 116}";
type = Stem;
},
{
horizontal = 1;
place = "{696, 116}";
type = Stem;
},
{
place = "{104, 147}";
type = Stem;
},
{
horizontal = 1;
place = "{444, 115}";
type = Stem;
}
);
layerId = "41DC85D1-EFC7-4239-A657-2B8BDE01F0BA";
paths = (
{
closed = 1;
nodes = (
"104 0 LINE",
"251 0 LINE",
"251 444 LINE",
"356 444 LINE",
"356 560 LINE",
"251 560 LINE",
"251 608 LINE SMOOTH",
"251.51 665.27 OFFCURVE",
"274.18 694.6 OFFCURVE",
"319 696 CURVE SMOOTH",
"339.08 695.85 OFFCURVE",
"358.75 691.85 OFFCURVE",
"378 684 CURVE",
"405 793 LINE",
"370.02 805.5 OFFCURVE",
"334.68 811.83 OFFCURVE",
"299 812 CURVE SMOOTH",
"269.55 811.9 OFFCURVE",
"242.9 807.86 OFFCURVE",
"219.04 799.89 CURVE SMOOTH",
"142.35 773.42 OFFCURVE",
"104 708.45 OFFCURVE",
"104 605 CURVE SMOOTH",
"104 559 LINE",
"29 553 LINE",
"29 444 LINE",
"104 444 LINE"
);
}
);
vertWidth = 1000;
width = 372;
}
);
note = f;
unicode = 0066;
},
{
glyphname = g;
layers = (
{
hints = (
{
horizontal = 1;
place = "{-243, 93}";
type = Stem;
},
{
horizontal = 1;
place = "{-11, 107}";
type = Stem;
},
{
horizontal = 1;
place = "{177, 91}";
type = Stem;
},
{
place = "{71, 118}";
type = Stem;
},
{
place = "{440, 141}";
type = Stem;
},
{
horizontal = 1;
place = "{-19, 115}";
type = Stem;
},
{
horizontal = 1;
place = "{452, 108}";
type = Stem;
},
{
place = "{373, 128}";
type = Stem;
},
{
place = "{59, 138}";
type = Stem;
},
{
place = "{373, 198}";
type = Stem;
},
{
horizontal = 1;
place = "{474, 100}";
type = Stem;
},
{
place = "{42, 123}";
type = Stem;
}
);
layerId = "41DC85D1-EFC7-4239-A657-2B8BDE01F0BA";
paths = (
{
closed = 1;
nodes = (
"359.64 -242.83 OFFCURVE",
"429.36 -226.61 OFFCURVE",
"485.16 -194.35 CURVE SMOOTH",
"549.06 -156.85 OFFCURVE",
"581 -106.73 OFFCURVE",
"581 -44 CURVE SMOOTH",
"580.33 48.4 OFFCURVE",
"510.66 95.06 OFFCURVE",
"372 96 CURVE SMOOTH",
"277 96 LINE SMOOTH",
"267 96.03 OFFCURVE",
"257.58 96.43 OFFCURVE",
"248.75 97.21 CURVE SMOOTH",
"208.92 101.03 OFFCURVE",
"189 115.96 OFFCURVE",
"189 142 CURVE SMOOTH",
"189.29 159.44 OFFCURVE",
"197.29 175.44 OFFCURVE",
"213 190 CURVE",
"238.66 181.55 OFFCURVE",
"262.66 177.22 OFFCURVE",
"285 177 CURVE SMOOTH",
"328.96 177.14 OFFCURVE",
"368.03 185.46 OFFCURVE",
"402.22 201.94 CURVE SMOOTH",
"468.07 234.39 OFFCURVE",
"501 289.41 OFFCURVE",
"501 367 CURVE SMOOTH",
"500.75 400.57 OFFCURVE",
"492.42 428.9 OFFCURVE",
"476 452 CURVE",
"571 452 LINE",
"571 560 LINE",
"369 560 LINE",
"342.36 569.14 OFFCURVE",
"314.36 573.81 OFFCURVE",
"285 574 CURVE SMOOTH",
"235.26 573.82 OFFCURVE",
"190.94 562.3 OFFCURVE",
"152.05 539.44 CURVE SMOOTH",
"90.02 502.29 OFFCURVE",
"59 446.48 OFFCURVE",
"59 372 CURVE SMOOTH",
"59.06 362.26 OFFCURVE",
"59.89 352.26 OFFCURVE",
"61.52 342.02 CURVE SMOOTH",
"69.89 292.69 OFFCURVE",
"94.05 253.68 OFFCURVE",
"134 225 CURVE",
"134 221 LINE",
"132.39 219.85 OFFCURVE",
"130.47 218.43 OFFCURVE",
"128.22 216.74 CURVE SMOOTH",
"90.07 187.37 OFFCURVE",
"71 153.79 OFFCURVE",
"71 116 CURVE SMOOTH",
"71.41 76.32 OFFCURVE",
"88.41 44.98 OFFCURVE",
"122 22 CURVE",
"122 17 LINE",
"69.54 -13.25 OFFCURVE",
"42.88 -51.92 OFFCURVE",
"42 -99 CURVE SMOOTH",
"42.21 -124.85 OFFCURVE",
"49.35 -147.95 OFFCURVE",
"63.42 -168.3 CURVE SMOOTH",
"99.22 -218.1 OFFCURVE",
"170.08 -243 OFFCURVE",
"276 -243 CURVE SMOOTH"
);
},
{
closed = 1;
nodes = (
"272.6 268.14 OFFCURVE",
"260.72 270.59 OFFCURVE",
"249.37 275.36 CURVE SMOOTH",
"214.46 290.99 OFFCURVE",
"197 323.2 OFFCURVE",
"197 372 CURVE SMOOTH",
"197.13 390.21 OFFCURVE",
"200.19 406.83 OFFCURVE",
"206.2 421.86 CURVE SMOOTH",
"220.84 456.62 OFFCURVE",
"247.1 474 OFFCURVE",
"285 474 CURVE SMOOTH",
"297.37 473.87 OFFCURVE",
"309.19 471.51 OFFCURVE",
"320.47 466.94 CURVE SMOOTH",
"355.49 451.77 OFFCURVE",
"373 420.12 OFFCURVE",
"373 372 CURVE SMOOTH",
"372.87 353.03 OFFCURVE",
"369.66 335.79 OFFCURVE",
"363.37 320.27 CURVE SMOOTH",
"348.51 285.42 OFFCURVE",
"322.39 268 OFFCURVE",
"285 268 CURVE SMOOTH"
);
},
{
closed = 1;
nodes = (
"275.96 -149.93 OFFCURVE",
"255.84 -147.89 OFFCURVE",
"237.63 -143.88 CURVE SMOOTH",
"189.21 -132.77 OFFCURVE",
"165 -110.14 OFFCURVE",
"165 -76 CURVE SMOOTH",
"165.35 -52.29 OFFCURVE",
"177.35 -30.62 OFFCURVE",
"201 -11 CURVE",
"222.15 -16.21 OFFCURVE",
"248.15 -18.87 OFFCURVE",
"279 -19 CURVE SMOOTH",
"347 -19 LINE SMOOTH",
"362.81 -19.03 OFFCURVE",
"376.46 -19.81 OFFCURVE",
"387.95 -21.34 CURVE SMOOTH",
"422.65 -26.27 OFFCURVE",
"440 -42.16 OFFCURVE",
"440 -69 CURVE SMOOTH",
"439.72 -81.87 OFFCURVE",
"434.7 -94.28 OFFCURVE",
"424.93 -106.21 CURVE SMOOTH",
"399.54 -135.4 OFFCURVE",
"357.23 -150 OFFCURVE",
"298 -150 CURVE SMOOTH"
);
}
);
vertWidth = 1000;
width = 597;
}
);
note = g;
unicode = 0067;
},
{
glyphname = h;
layers = (
{
hints = (
{
horizontal = 1;
place = "{0, 21}";
target = up;
type = BottomGhost;
},
{
horizontal = 1;
place = "{448, 126}";
type = Stem;
},
{
place = "{79, 147}";
type = Stem;
},
{
place = "{421, 147}";
type = Stem;
}
);
layerId = "41DC85D1-EFC7-4239-A657-2B8BDE01F0BA";
paths = (
{
closed = 1;
nodes = (
"79 0 LINE",
"226 0 LINE",
"226 385 LINE",
"233.19 392.17 OFFCURVE",
"239.95 398.67 OFFCURVE",
"246.29 404.5 CURVE SMOOTH",
"278.13 433.5 OFFCURVE",
"310.04 448 OFFCURVE",
"342 448 CURVE SMOOTH",
"354.46 447.9 OFFCURVE",
"365.53 446.2 OFFCURVE",
"375.21 442.88 CURVE SMOOTH",
"405.74 431.52 OFFCURVE",
"421 394.23 OFFCURVE",
"421 331 CURVE SMOOTH",
"421 0 LINE",
"568 0 LINE",
"568 349 LINE SMOOTH",
"567.51 497.75 OFFCURVE",
"509.84 572.75 OFFCURVE",
"395 574 CURVE SMOOTH",
"336.72 573.65 OFFCURVE",
"278.06 546.32 OFFCURVE",
"219 492 CURVE",
"226 597 LINE",
"226 798 LINE",
"79 798 LINE"
);
}
);
vertWidth = 1000;
width = 640;
}
);
note = h;
unicode = 0068;
},
{
glyphname = i;
layers = (
{
hints = (
{
horizontal = 1;
place = "{0, 21}";
target = up;
type = BottomGhost;
},
{
horizontal = 1;
place = "{560, -20}";
target = down;
type = TopGhost;
},
{
horizontal = 1;
place = "{650, 161}";
type = Stem;
},
{
place = "{79, 147}";
type = Stem;
},
{
place = "{67, 171}";
type = Stem;
}
);
layerId = "41DC85D1-EFC7-4239-A657-2B8BDE01F0BA";
paths = (
{
closed = 1;
nodes = (
"79 0 LINE",
"226 0 LINE",
"226 560 LINE",
"79 560 LINE"
);
},
{
closed = 1;
nodes = (
"166 650.12 OFFCURVE",
"178.3 652.37 OFFCURVE",
"189.9 656.73 CURVE SMOOTH",
"221.97 669.6 OFFCURVE",
"238 694.35 OFFCURVE",
"238 731 CURVE SMOOTH",
"237.86 743.38 OFFCURVE",
"235.43 755.09 OFFCURVE",
"230.71 766.13 CURVE SMOOTH",
"217.01 796.04 OFFCURVE",
"191.11 811 OFFCURVE",
"153 811 CURVE SMOOTH",
"139.34 810.88 OFFCURVE",
"126.49 808.5 OFFCURVE",
"114.45 803.87 CURVE SMOOTH",
"82.81 790.92 OFFCURVE",
"67 766.63 OFFCURVE",
"67 731 CURVE SMOOTH",
"67.13 719.05 OFFCURVE",
"69.31 707.71 OFFCURVE",
"73.55 696.98 CURVE SMOOTH",
"86.82 665.66 OFFCURVE",
"113.31 650 OFFCURVE",
"153 650 CURVE SMOOTH"
);
}
);
vertWidth = 1000;
width = 304;
}
);
note = i;
unicode = 0069;
},
{
glyphname = j;
layers = (
{
hints = (
{
horizontal = 1;
place = "{-229, 116}";
type = Stem;
},
{
horizontal = 1;
place = "{560, -20}";
target = down;
type = TopGhost;
},
{
horizontal = 1;
place = "{650, 161}";
type = Stem;
},
{
place = "{80, 147}";
type = Stem;
},
{
horizontal = 1;
place = "{-214, 21}";
target = up;
type = BottomGhost;
},
{
place = "{68, 171}";
type = Stem;
}
);
layerId = "41DC85D1-EFC7-4239-A657-2B8BDE01F0BA";
paths = (
{
closed = 1;
nodes = (
"159.49 -225.95 OFFCURVE",
"221.82 -154.28 OFFCURVE",
"227 -14 CURVE",
"227 560 LINE",
"80 560 LINE",
"80 -18 LINE SMOOTH",
"79.96 -34 OFFCURVE",
"78.96 -47.93 OFFCURVE",
"77.01 -59.8 CURVE SMOOTH",
"70.79 -95.27 OFFCURVE",
"51.45 -113 OFFCURVE",
"19 -113 CURVE SMOOTH",
"4.04 -112.89 OFFCURVE",
"-11.62 -110.22 OFFCURVE",
"-28 -105 CURVE",
"-54 -214 LINE",
"-26.71 -223.83 OFFCURVE",
"4.62 -228.83 OFFCURVE",
"40 -229 CURVE SMOOTH"
);
},
{
closed = 1;
nodes = (
"166.1 650.12 OFFCURVE",
"178.47 652.31 OFFCURVE",
"190.12 656.58 CURVE SMOOTH",
"222.71 669.31 OFFCURVE",
"239 694.11 OFFCURVE",
"239 731 CURVE SMOOTH",
"238.86 743.25 OFFCURVE",
"236.48 754.84 OFFCURVE",
"231.85 765.77 CURVE SMOOTH",
"218.18 795.92 OFFCURVE",
"191.9 811 OFFCURVE",
"153 811 CURVE SMOOTH",
"139.44 810.87 OFFCURVE",
"126.67 808.44 OFFCURVE",
"114.68 803.71 CURVE SMOOTH",
"83.56 790.62 OFFCURVE",
"68 766.39 OFFCURVE",
"68 731 CURVE SMOOTH",
"68.14 718.36 OFFCURVE",
"70.57 706.45 OFFCURVE",
"75.29 695.25 CURVE SMOOTH",
"88.91 665.08 OFFCURVE",
"114.82 650 OFFCURVE",
"153 650 CURVE SMOOTH"
);
}
);
vertWidth = 1000;
width = 306;
}
);
note = j;
unicode = 006A;
},
{
glyphname = k;
layers = (
{
hints = (
{
horizontal = 1;
place = "{0, 21}";
target = up;
type = BottomGhost;
},
{
horizontal = 1;
place = "{560, -20}";
target = down;
type = TopGhost;
},
{
place = "{79, 143}";
type = Stem;
}
);
layerId = "41DC85D1-EFC7-4239-A657-2B8BDE01F0BA";
paths = (
{
closed = 1;
nodes = (
"79 0 LINE",
"222 0 LINE",
"222 140 LINE",
"303 232 LINE",
"439 0 LINE",
"598 0 LINE",
"386 331 LINE",
"580 560 LINE",
"420 560 LINE",
"227 318 LINE",
"222 318 LINE",
"222 798 LINE",
"79 798 LINE"
);
}
);
vertWidth = 1000;
width = 605;
}
);
note = k;
unicode = 006B;
},
{
glyphname = l;
layers = (
{
hints = (
{
horizontal = 1;
place = "{-14, 21}";
target = up;
type = BottomGhost;
},
{
place = "{79, 147}";
type = Stem;
},
{
horizontal = 1;
place = "{-14, 120}";
type = Stem;
}
);
layerId = "41DC85D1-EFC7-4239-A657-2B8BDE01F0BA";
paths = (
{
closed = 1;
nodes = (
"246.03 -13.87 OFFCURVE",
"271.36 -9.54 OFFCURVE",
"293 -1 CURVE",
"275 108 LINE",
"269.03 106.86 OFFCURVE",
"262.37 106.19 OFFCURVE",
"255 106 CURVE SMOOTH",
"236.29 106.66 OFFCURVE",
"226.62 121.66 OFFCURVE",
"226 151 CURVE SMOOTH",
"226 798 LINE",
"79 798 LINE",
"79 157 LINE SMOOTH",
"79.46 44.21 OFFCURVE",
"125.46 -12.79 OFFCURVE",
"217 -14 CURVE SMOOTH"
);
}
);
vertWidth = 1000;
width = 315;
}
);
note = l;
unicode = 006C;
},
{
glyphname = m;
layers = (
{
hints = (
{
horizontal = 1;
place = "{0, 21}";
target = up;
type = BottomGhost;
},
{
horizontal = 1;
place = "{448, 126}";
type = Stem;
},
{
horizontal = 1;
place = "{560, -20}";
target = down;
type = TopGhost;
}
);
layerId = "41DC85D1-EFC7-4239-A657-2B8BDE01F0BA";
paths = (
{
closed = 1;
nodes = (
"79 0 LINE",
"226 0 LINE",
"226 385 LINE",
"264.58 426.22 OFFCURVE",
"300.25 447.22 OFFCURVE",
"333 448 CURVE SMOOTH",
"342.72 447.92 OFFCURVE",
"351.73 446.8 OFFCURVE",
"360.04 444.64 CURVE SMOOTH",
"394.68 434.76 OFFCURVE",
"412 396.88 OFFCURVE",
"412 331 CURVE SMOOTH",
"412 0 LINE",
"558 0 LINE",
"558 385 LINE",
"598 427 OFFCURVE",
"634 448 OFFCURVE",
"666 448 CURVE SMOOTH",
"676.63 447.91 OFFCURVE",
"686.34 446.57 OFFCURVE",
"695.11 443.98 CURVE SMOOTH",
"727.71 433.46 OFFCURVE",
"744 395.8 OFFCURVE",
"744 331 CURVE SMOOTH",
"744 0 LINE",
"891 0 LINE",
"891 349 LINE SMOOTH",
"890.96 368.12 OFFCURVE",
"889.91 386.44 OFFCURVE",
"887.84 403.96 CURVE SMOOTH",
"873.92 517.32 OFFCURVE",
"816.97 574 OFFCURVE",
"717 574 CURVE SMOOTH",
"707.69 573.95 OFFCURVE",
"698.18 573.17 OFFCURVE",
"688.47 571.68 CURVE SMOOTH",
"641.8 563.98 OFFCURVE",
"591.97 532.08 OFFCURVE",
"539 476 CURVE",
"510.47 540.53 OFFCURVE",
"459.14 573.2 OFFCURVE",
"385 574 CURVE SMOOTH",
"379.89 573.97 OFFCURVE",
"374.49 573.75 OFFCURVE",
"368.8 573.33 CURVE SMOOTH",
"317.26 569 OFFCURVE",
"265.33 539.56 OFFCURVE",
"213 485 CURVE",
"210 485 LINE",
"199 560 LINE",
"79 560 LINE"
);
}
);
vertWidth = 1000;
width = 964;
}
);
note = m;
unicode = 006D;
},
{
glyphname = n;
layers = (
{
hints = (
{
horizontal = 1;
place = "{0, 21}";
target = up;
type = BottomGhost;
},
{
horizontal = 1;
place = "{448, 126}";
type = Stem;
},
{
place = "{79, 147}";
type = Stem;
},
{
place = "{421, 147}";
type = Stem;
},
{
horizontal = 1;
place = "{560, -20}";
target = down;
type = TopGhost;
}
);
layerId = "41DC85D1-EFC7-4239-A657-2B8BDE01F0BA";
paths = (
{
closed = 1;
nodes = (
"79 0 LINE",
"226 0 LINE",
"226 385 LINE",
"233.19 392.17 OFFCURVE",
"239.95 398.67 OFFCURVE",
"246.29 404.5 CURVE SMOOTH",
"278.13 433.5 OFFCURVE",
"310.04 448 OFFCURVE",
"342 448 CURVE SMOOTH",
"354.46 447.9 OFFCURVE",
"365.53 446.2 OFFCURVE",
"375.21 442.88 CURVE SMOOTH",
"405.74 431.52 OFFCURVE",
"421 394.23 OFFCURVE",
"421 331 CURVE SMOOTH",
"421 0 LINE",
"568 0 LINE",
"568 349 LINE SMOOTH",
"567.51 497.75 OFFCURVE",
"509.84 572.75 OFFCURVE",
"395 574 CURVE SMOOTH",
"334.03 573.65 OFFCURVE",
"273.36 544.31 OFFCURVE",
"213 486 CURVE",
"210 486 LINE",
"199 560 LINE",
"79 560 LINE"
);
}
);
vertWidth = 1000;
width = 641;
}
);
note = n;
unicode = 006E;
},
{
glyphname = o;
layers = (
{
hints = (
{
horizontal = 1;
place = "{-14, 120}";
type = Stem;
},
{
horizontal = 1;
place = "{454, 120}";
type = Stem;
},
{
place = "{44, 150}";
type = Stem;
},
{
place = "{432, 150}";
type = Stem;
}
);
layerId = "41DC85D1-EFC7-4239-A657-2B8BDE01F0BA";
paths = (
{
closed = 1;
nodes = (
"376.85 -13.74 OFFCURVE",
"433.2 6.51 OFFCURVE",
"482.06 46.75 CURVE SMOOTH",
"548.69 102.47 OFFCURVE",
"582 180.21 OFFCURVE",
"582 280 CURVE SMOOTH",
"581.73 365.67 OFFCURVE",
"556.07 436.19 OFFCURVE",
"505.02 491.54 CURVE SMOOTH",
"453.53 546.51 OFFCURVE",
"389.53 574 OFFCURVE",
"313 574 CURVE SMOOTH",
"249.15 573.74 OFFCURVE",
"192.8 553.49 OFFCURVE",
"143.94 513.25 CURVE SMOOTH",
"77.31 457.53 OFFCURVE",
"44 379.79 OFFCURVE",
"44 280 CURVE SMOOTH",
"44.27 194.33 OFFCURVE",
"69.93 123.81 OFFCURVE",
"120.98 68.46 CURVE SMOOTH",
"172.47 13.49 OFFCURVE",
"236.47 -14 OFFCURVE",
"313 -14 CURVE SMOOTH"
);
},
{
closed = 1;
nodes = (
"294.02 106 OFFCURVE",
"276.97 110.19 OFFCURVE",
"261.84 118.56 CURVE SMOOTH",
"216.62 143.59 OFFCURVE",
"194 197.4 OFFCURVE",
"194 280 CURVE SMOOTH",
"194.09 312.15 OFFCURVE",
"198.14 340.94 OFFCURVE",
"206.13 366.37 CURVE SMOOTH",
"225.04 424.79 OFFCURVE",
"260.67 454 OFFCURVE",
"313 454 CURVE SMOOTH",
"331.93 453.83 OFFCURVE",
"349.32 449.4 OFFCURVE",
"365.17 440.73 CURVE SMOOTH",
"409.72 415.13 OFFCURVE",
"432 361.55 OFFCURVE",
"432 280 CURVE SMOOTH",
"431.91 248.19 OFFCURVE",
"428.01 219.71 OFFCURVE",
"420.31 194.56 CURVE SMOOTH",
"401.68 135.52 OFFCURVE",
"365.91 106 OFFCURVE",
"313 106 CURVE SMOOTH"
);
}
);
vertWidth = 1000;
width = 626;
}
);
note = o;
unicode = 006F;
},
{
glyphname = p;
layers = (
{
hints = (
{
horizontal = 1;
place = "{-215, 21}";
target = up;
type = BottomGhost;
},
{
horizontal = 1;
place = "{-14, 121}";
type = Stem;
},
{
horizontal = 1;
place = "{453, 121}";
type = Stem;
},
{
place = "{79, 147}";
type = Stem;
},
{
place = "{447, 151}";
type = Stem;
},
{
horizontal = 1;
place = "{560, -20}";
target = down;
type = TopGhost;
}
);
layerId = "41DC85D1-EFC7-4239-A657-2B8BDE01F0BA";
paths = (
{
closed = 1;
nodes = (
"79 -215 LINE",
"226 -215 LINE",
"226 -45 LINE",
"221 47 LINE",
"265.56 6.89 OFFCURVE",
"311.89 -13.44 OFFCURVE",
"360 -14 CURVE SMOOTH",
"414.33 -13.71 OFFCURVE",
"462.81 5.93 OFFCURVE",
"505.45 44.93 CURVE SMOOTH",
"567.15 102.34 OFFCURVE",
"598 183.69 OFFCURVE",
"598 289 CURVE SMOOTH",
"597.85 356.78 OFFCURVE",
"585.5 414.58 OFFCURVE",
"560.95 462.4 CURVE SMOOTH",
"522.11 536.8 OFFCURVE",
"461.13 574 OFFCURVE",
"378 574 CURVE SMOOTH",
"324.4 574 OFFCURVE",
"269.4 550 OFFCURVE",
"213 502 CURVE",
"210 502 LINE",
"199 560 LINE",
"79 560 LINE"
);
},
{
closed = 1;
nodes = (
"291.58 107.26 OFFCURVE",
"257.92 121.26 OFFCURVE",
"226 149 CURVE",
"226 395 LINE",
"263.26 432.96 OFFCURVE",
"299.93 452.29 OFFCURVE",
"336 453 CURVE SMOOTH",
"409.08 452.32 OFFCURVE",
"446.08 396.99 OFFCURVE",
"447 287 CURVE SMOOTH",
"446.89 249.36 OFFCURVE",
"441.9 216.63 OFFCURVE",
"432.01 188.8 CURVE SMOOTH",
"412.06 134.27 OFFCURVE",
"377.06 107 OFFCURVE",
"327 107 CURVE SMOOTH"
);
}
);
vertWidth = 1000;
width = 644;
}
);
note = p;
unicode = 0070;
},
{
glyphname = q;
layers = (
{
hints = (
{
horizontal = 1;
place = "{-215, 21}";
target = up;
type = BottomGhost;
},
{
horizontal = 1;
place = "{-14, 121}";
type = Stem;
},
{
horizontal = 1;
place = "{560, -20}";
target = down;
type = TopGhost;
},
{
place = "{47, 151}";
type = Stem;
},
{
place = "{419, 146}";
type = Stem;
},
{
horizontal = 1;
place = "{453, 121}";
type = Stem;
}
);
layerId = "41DC85D1-EFC7-4239-A657-2B8BDE01F0BA";
paths = (
{
closed = 1;
nodes = (
"419 -215 LINE",
"565 -215 LINE",
"565 560 LINE",
"450 560 LINE",
"438 505 LINE",
"434 505 LINE",
"390.24 550.38 OFFCURVE",
"339.57 573.38 OFFCURVE",
"282 574 CURVE SMOOTH",
"227.54 573.7 OFFCURVE",
"178.81 553.32 OFFCURVE",
"135.81 512.86 CURVE SMOOTH",
"76.61 456.2 OFFCURVE",
"47 378.58 OFFCURVE",
"47 280 CURVE SMOOTH",
"47.16 206.87 OFFCURVE",
"61 145.31 OFFCURVE",
"88.52 95.33 CURVE SMOOTH",
"129.31 22.44 OFFCURVE",
"191.8 -14 OFFCURVE",
"276 -14 CURVE SMOOTH",
"328.49 -11.51 OFFCURVE",
"377.83 10.83 OFFCURVE",
"424 53 CURVE",
"419 -37 LINE"
);
},
{
closed = 1;
nodes = (
"309.26 107.03 OFFCURVE",
"304.31 107.31 OFFCURVE",
"299.15 107.83 CURVE SMOOTH",
"231.72 115.59 OFFCURVE",
"198 173.31 OFFCURVE",
"198 281 CURVE SMOOTH",
"198.14 321.94 OFFCURVE",
"205.14 357.11 OFFCURVE",
"218.98 386.51 CURVE SMOOTH",
"240.45 430.84 OFFCURVE",
"272.12 453 OFFCURVE",
"314 453 CURVE SMOOTH",
"352.88 452.77 OFFCURVE",
"387.88 438.77 OFFCURVE",
"419 411 CURVE",
"419 165 LINE",
"388.89 127.13 OFFCURVE",
"353.89 107.8 OFFCURVE",
"314 107 CURVE SMOOTH"
);
}
);
vertWidth = 1000;
width = 644;
}
);
note = q;
unicode = 0071;
},
{
glyphname = r;
layers = (
{
hints = (
{
horizontal = 1;
place = "{0, 21}";
target = up;
type = BottomGhost;
},
{
horizontal = 1;
place = "{444, 130}";
type = Stem;
},
{
place = "{79, 147}";
type = Stem;
},
{
horizontal = 1;
place = "{562, -20}";
target = down;
type = TopGhost;
},
{
horizontal = 1;
place = "{560, -20}";
target = down;
type = TopGhost;
}
);
layerId = "41DC85D1-EFC7-4239-A657-2B8BDE01F0BA";
paths = (
{
closed = 1;
nodes = (
"79 0 LINE",
"226 0 LINE",
"226 334 LINE",
"231.09 347.12 OFFCURVE",
"237.01 359.55 OFFCURVE",
"243.78 371.27 CURVE SMOOTH",
"272.39 419.75 OFFCURVE",
"309.13 444 OFFCURVE",
"354 444 CURVE SMOOTH",
"372.84 443.92 OFFCURVE",
"392.51 440.92 OFFCURVE",
"413 435 CURVE",
"438 562 LINE",
"418.88 569.79 OFFCURVE",
"396.88 573.79 OFFCURVE",
"372 574 CURVE SMOOTH",
"362.53 574 OFFCURVE",
"353.02 572.94 OFFCURVE",
"343.48 570.82 CURVE SMOOTH",
"291.08 559.19 OFFCURVE",
"247.59 522.58 OFFCURVE",
"213 461 CURVE",
"210 461 LINE",
"199 560 LINE",
"79 560 LINE"
);
}
);
vertWidth = 1000;
width = 436;
}
);
note = r;
unicode = 0072;
},
{
glyphname = s;
layers = (
{
hints = (
{
horizontal = 1;
place = "{-14, 110}";
type = Stem;
},
{
horizontal = 1;
place = "{464, 110}";
type = Stem;
},
{
place = "{57, 138}";
type = Stem;
},
{
place = "{324, 138}";
type = Stem;
}
);
layerId = "41DC85D1-EFC7-4239-A657-2B8BDE01F0BA";
paths = (
{
closed = 1;
nodes = (
"295.39 -13.83 OFFCURVE",
"342.9 -2.27 OFFCURVE",
"381.53 20.66 CURVE SMOOTH",
"435.18 53.21 OFFCURVE",
"462 100.65 OFFCURVE",
"462 163 CURVE SMOOTH",
"461.78 197.72 OFFCURVE",
"452.22 227.81 OFFCURVE",
"433.33 253.27 CURVE SMOOTH",
"411.32 281.96 OFFCURVE",
"368.88 308.2 OFFCURVE",
"306 332 CURVE SMOOTH",
"274.37 343.77 OFFCURVE",
"255.16 351.11 OFFCURVE",
"248.36 354.03 CURVE SMOOTH",
"212.79 369.54 OFFCURVE",
"195 388.19 OFFCURVE",
"195 410 CURVE",
"198.34 441.82 OFFCURVE",
"223.34 459.82 OFFCURVE",
"270 464 CURVE",
"305.56 463.73 OFFCURVE",
"345.56 447.73 OFFCURVE",
"390 416 CURVE",
"456 505 LINE",
"395.77 550.63 OFFCURVE",
"332.44 573.63 OFFCURVE",
"266 574 CURVE SMOOTH",
"216.46 573.83 OFFCURVE",
"173.75 563.51 OFFCURVE",
"137.87 543.04 CURVE SMOOTH",
"83.96 511.59 OFFCURVE",
"57 464.91 OFFCURVE",
"57 403 CURVE SMOOTH",
"57.1 388.41 OFFCURVE",
"59.11 374.26 OFFCURVE",
"63.04 360.56 CURVE SMOOTH",
"78.27 310.22 OFFCURVE",
"126.26 269.7 OFFCURVE",
"207 239 CURVE SMOOTH",
"236.08 227.68 OFFCURVE",
"254.48 220.33 OFFCURVE",
"262.22 216.93 CURVE SMOOTH",
"303.41 198.63 OFFCURVE",
"324 177.99 OFFCURVE",
"324 155 CURVE SMOOTH",
"321.37 119.07 OFFCURVE",
"294.37 99.4 OFFCURVE",
"243 96 CURVE",
"195.48 96.27 OFFCURVE",
"145.48 116.6 OFFCURVE",
"93 157 CURVE",
"26 65 LINE",
"32.54 59.67 OFFCURVE",
"39.75 54.26 OFFCURVE",
"47.61 48.77 CURVE SMOOTH",
"108.48 6.92 OFFCURVE",
"172.27 -14 OFFCURVE",
"239 -14 CURVE SMOOTH"
);
}
);
vertWidth = 1000;
width = 495;
}
);
note = s;
unicode = 0073;
},
{
glyphname = t;
layers = (
{
hints = (
{
horizontal = 1;
place = "{-14, 116}";
type = Stem;
},
{
horizontal = 1;
place = "{444, 116}";
type = Stem;
},
{
place = "{100, 147}";
type = Stem;
}
);
layerId = "41DC85D1-EFC7-4239-A657-2B8BDE01F0BA";
paths = (
{
closed = 1;
nodes = (
"320.26 -13.86 OFFCURVE",
"359.59 -6.86 OFFCURVE",
"402 7 CURVE",
"378 114 LINE",
"358.21 106.22 OFFCURVE",
"339.88 102.22 OFFCURVE",
"323 102 CURVE SMOOTH",
"273.39 102.64 OFFCURVE",
"248.06 133.97 OFFCURVE",
"247 196 CURVE SMOOTH",
"247 444 LINE",
"385 444 LINE",
"385 560 LINE",
"247 560 LINE",
"247 711 LINE",
"125 711 LINE",
"108 560 LINE",
"21 553 LINE",
"21 444 LINE",
"100 444 LINE",
"100 196 LINE SMOOTH",
"100.54 57.19 OFFCURVE",
"161.88 -12.81 OFFCURVE",
"284 -14 CURVE SMOOTH"
);
}
);
vertWidth = 1000;
width = 420;
}
);
note = t;
unicode = 0074;
},
{
glyphname = u;
layers = (
{
hints = (
{
horizontal = 1;
place = "{-14, 126}";
type = Stem;
},
{
horizontal = 1;
place = "{560, -20}";
target = down;
type = TopGhost;
},
{
place = "{73, 147}";
type = Stem;
},
{
place = "{412, 147}";
type = Stem;
},
{
horizontal = 1;
place = "{0, 21}";
target = up;
type = BottomGhost;
}
);
layerId = "41DC85D1-EFC7-4239-A657-2B8BDE01F0BA";
paths = (
{
closed = 1;
nodes = (
"311.35 -13.64 OFFCURVE",
"370.68 17.69 OFFCURVE",
"424 80 CURVE",
"428 80 LINE",
"439 0 LINE",
"559 0 LINE",
"559 560 LINE",
"412 560 LINE",
"412 182 LINE",
"406.19 174.4 OFFCURVE",
"400.36 167.24 OFFCURVE",
"394.5 160.52 CURVE SMOOTH",
"365.88 128.17 OFFCURVE",
"333.72 112 OFFCURVE",
"298 112 CURVE SMOOTH",
"287.2 112.09 OFFCURVE",
"277.37 113.46 OFFCURVE",
"268.5 116.12 CURVE SMOOTH",
"236.16 126.7 OFFCURVE",
"220 164.33 OFFCURVE",
"220 229 CURVE SMOOTH",
"220 560 LINE",
"73 560 LINE",
"73 210 LINE SMOOTH",
"73.49 61.91 OFFCURVE",
"131.16 -12.75 OFFCURVE",
"246 -14 CURVE SMOOTH"
);
}
);
vertWidth = 1000;
width = 637;
}
);
note = u;
unicode = 0075;
},
{
glyphname = v;
layers = (
{
hints = (
{
horizontal = 1;
place = "{0, 111}";
type = Stem;
},
{
horizontal = 1;
place = "{560, -20}";
target = down;
type = TopGhost;
},
{
place = "{14, 548}";
type = Stem;
}
);
layerId = "41DC85D1-EFC7-4239-A657-2B8BDE01F0BA";
paths = (
{
closed = 1;
nodes = (
"205 0 LINE",
"375 0 LINE",
"562 560 LINE",
"421 560 LINE",
"339 281 LINE SMOOTH",
"334.09 262.98 OFFCURVE",
"319.09 206.31 OFFCURVE",
"294 111 CURVE",
"289 111 LINE",
"264.32 204.8 OFFCURVE",
"249.32 261.47 OFFCURVE",
"244 281 CURVE SMOOTH",
"162 560 LINE",
"14 560 LINE"
);
}
);
vertWidth = 1000;
width = 576;
}
);
note = v;
unicode = 0076;
},
{
glyphname = w;
layers = (
{
hints = (
{
horizontal = 1;
place = "{0, 120}";
type = Stem;
},
{
horizontal = 1;
place = "{407, 153}";
type = Stem;
},
{
place = "{27, 808}";
type = Stem;
},
{
horizontal = 1;
place = "{560, -20}";
target = down;
type = TopGhost;
}
);
layerId = "41DC85D1-EFC7-4239-A657-2B8BDE01F0BA";
paths = (
{
closed = 1;
nodes = (
"172 0 LINE",
"340 0 LINE",
"397 244 LINE SMOOTH",
"399.01 252.73 OFFCURVE",
"409.34 307.06 OFFCURVE",
"428 407 CURVE",
"433 407 LINE",
"448.07 326.12 OFFCURVE",
"458.74 271.79 OFFCURVE",
"465 244 CURVE SMOOTH",
"524 0 LINE",
"697 0 LINE",
"835 560 LINE",
"699 560 LINE",
"638 284 LINE SMOOTH",
"634.54 264.94 OFFCURVE",
"629.64 236.31 OFFCURVE",
"623.29 198.12 CURVE SMOOTH",
"617.59 163.73 OFFCURVE",
"613.16 137.69 OFFCURVE",
"610 120 CURVE",
"605 120 LINE",
"602.27 132.77 OFFCURVE",
"598.26 151.97 OFFCURVE",
"592.98 177.62 CURVE SMOOTH",
"583.31 224.64 OFFCURVE",
"575.65 260.1 OFFCURVE",
"570 284 CURVE SMOOTH",
"500 560 LINE",
"370 560 LINE",
"302 284 LINE SMOOTH",
"294.42 254.68 OFFCURVE",
"282.76 200.01 OFFCURVE",
"267 120 CURVE",
"263 120 LINE",
"260.34 134.94 OFFCURVE",
"256.62 157.31 OFFCURVE",
"251.82 187.13 CURVE SMOOTH",
"244.96 229.95 OFFCURVE",
"239.35 262.24 OFFCURVE",
"235 284 CURVE SMOOTH",
"174 560 LINE",
"27 560 LINE"
);
}
);
vertWidth = 1000;
width = 863;
}
);
note = w;
unicode = 0077;
},
{
glyphname = x;
layers = (
{
hints = (
{
horizontal = 1;
place = "{0, 21}";
target = up;
type = BottomGhost;
},
{
horizontal = 1;
place = "{560, -20}";
target = down;
type = TopGhost;
},
{
place = "{16, 530}";
type = Stem;
}
);
layerId = "41DC85D1-EFC7-4239-A657-2B8BDE01F0BA";
paths = (
{
closed = 1;
nodes = (
"16 0 LINE",
"168 0 LINE",
"220 103 LINE SMOOTH",
"224.2 111.67 OFFCURVE",
"230.55 125 OFFCURVE",
"239.05 142.97 CURVE SMOOTH",
"251.33 168.95 OFFCURVE",
"260.64 188.29 OFFCURVE",
"267 201 CURVE",
"272 201 LINE",
"277.88 190.54 OFFCURVE",
"286.88 174.2 OFFCURVE",
"299 152 CURVE SMOOTH",
"311 130 OFFCURVE",
"320 113.67 OFFCURVE",
"326 103 CURVE SMOOTH",
"388 0 LINE",
"546 0 LINE",
"371 275 LINE",
"535 560 LINE",
"383 560 LINE",
"336 461 LINE SMOOTH",
"331.2 449.23 OFFCURVE",
"323.5 431.31 OFFCURVE",
"312.9 407.22 CURVE SMOOTH",
"304.76 388.79 OFFCURVE",
"298.8 375.05 OFFCURVE",
"295 366 CURVE",
"291 366 LINE",
"272.34 400.06 OFFCURVE",
"255.67 431.72 OFFCURVE",
"241 461 CURVE SMOOTH",
"185 560 LINE",
"27 560 LINE",
"191 292 LINE"
);
}
);
vertWidth = 1000;
width = 562;
}
);
note = x;
unicode = 0078;
},
{
glyphname = y;
layers = (
{
hints = (
{
horizontal = 1;
place = "{-225, 117}";
type = Stem;
},
{
horizontal = 1;
place = "{560, -20}";
target = down;
type = TopGhost;
},
{
place = "{14, 547}";
type = Stem;
},
{
horizontal = 1;
place = "{-214, 21}";
target = up;
type = BottomGhost;
}
);
layerId = "41DC85D1-EFC7-4239-A657-2B8BDE01F0BA";
paths = (
{
closed = 1;
nodes = (
"169.53 -224.84 OFFCURVE",
"205.76 -216.01 OFFCURVE",
"236.68 -198.51 CURVE SMOOTH",
"285.92 -169.91 OFFCURVE",
"327.69 -109.41 OFFCURVE",
"362 -17 CURVE SMOOTH",
"561 560 LINE",
"420 560 LINE",
"343 300 LINE SMOOTH",
"338.72 282.88 OFFCURVE",
"332.05 256.54 OFFCURVE",
"323 221 CURVE SMOOTH",
"314 185.67 OFFCURVE",
"307.33 159.33 OFFCURVE",
"303 142 CURVE",
"298 142 LINE",
"268.19 242.75 OFFCURVE",
"252.53 295.42 OFFCURVE",
"251 300 CURVE SMOOTH",
"162 560 LINE",
"14 560 LINE",
"232 10 LINE",
"222 -23 LINE SMOOTH",
"203.36 -78.74 OFFCURVE",
"168.36 -107.07 OFFCURVE",
"117 -108 CURVE SMOOTH",
"106.56 -108 OFFCURVE",
"93.56 -105.67 OFFCURVE",
"78 -101 CURVE",
"51 -214 LINE",
"73.73 -221.15 OFFCURVE",
"99.4 -224.82 OFFCURVE",
"128 -225 CURVE SMOOTH"
);
}
);
vertWidth = 1000;
width = 574;
}
);
note = y;
unicode = 0079;
},
{
glyphname = z;
layers = (
{
hints = (
{
horizontal = 1;
place = "{0, 116}";
type = Stem;
},
{
horizontal = 1;
place = "{444, 116}";
type = Stem;
},
{
place = "{41, 443}";
type = Stem;
}
);
layerId = "41DC85D1-EFC7-4239-A657-2B8BDE01F0BA";
paths = (
{
closed = 1;
nodes = (
"41 0 LINE",
"484 0 LINE",
"484 116 LINE",
"224 116 LINE",
"475 481 LINE",
"475 560 LINE",
"69 560 LINE",
"69 444 LINE",
"292 444 LINE",
"41 79 LINE"
);
}
);
vertWidth = 1000;
width = 511;
}
);
note = z;
unicode = 007A;
},
{
glyphname = uni4E00;
layers = (
{
hints = (
{
horizontal = 1;
place = "{325, 129}";
type = Stem;
},
{
place = "{41, 920}";
type = Stem;
}
);
layerId = "41DC85D1-EFC7-4239-A657-2B8BDE01F0BA";
paths = (
{
closed = 1;
nodes = (
"41 454 LINE",
"41 325 LINE",
"961 325 LINE",
"961 454 LINE"
);
}
);
vertWidth = 1000;
width = 1000;
}
);
note = uni4E00;
unicode = 4E00;
},
{
glyphname = uni4E66;
layers = (
{
hints = (
{
horizontal = 1;
place = "{0, 108}";
type = Stem;
},
{
horizontal = 1;
place = "{300, 112}";
type = Stem;
},
{
horizontal = 1;
place = "{565, 115}";
type = Stem;
},
{
place = "{386, 123}";
type = Stem;
},
{
place = "{692, 120}";
type = Stem;
},
{
place = "{827, 130}";
type = Stem;
},
{
horizontal = 1;
place = "{664, 16}";
type = Stem;
}
);
layerId = "41DC85D1-EFC7-4239-A657-2B8BDE01F0BA";
paths = (
{
closed = 1;
nodes = (
"509 565 LINE",
"692 565 LINE",
"692 412 LINE",
"509 412 LINE"
);
},
{
closed = 1;
nodes = (
"812 412 LINE",
"812 664 LINE",
"848.02 638.41 OFFCURVE",
"873.35 618.41 OFFCURVE",
"888 604 CURVE",
"961 695 LINE",
"915.67 732.27 OFFCURVE",
"846.67 776.93 OFFCURVE",
"754 829 CURVE",
"685 749 LINE",
"710.79 733.64 OFFCURVE",
"745.79 710.64 OFFCURVE",
"790 680 CURVE",
"509 680 LINE",
"509 843 LINE",
"386 843 LINE",
"386 680 LINE",
"113 680 LINE",
"113 565 LINE",
"386 565 LINE",
"386 412 LINE",
"59 412 LINE",
"59 300 LINE",
"386 300 LINE",
"386 -82 LINE",
"509 -82 LINE",
"509 300 LINE",
"827 300 LINE",
"817.61 195.74 OFFCURVE",
"803.94 135.08 OFFCURVE",
"786 118 CURVE",
"777.29 111.73 OFFCURVE",
"762.63 108.4 OFFCURVE",
"742 108 CURVE SMOOTH",
"681.69 108 OFFCURVE",
"631.02 110 OFFCURVE",
"590 114 CURVE",
"614.04 80.1 OFFCURVE",
"628.04 42.1 OFFCURVE",
"632 0 CURVE",
"701.55 -2.25 OFFCURVE",
"753.88 -1.92 OFFCURVE",
"789 1 CURVE SMOOTH",
"789.52 1.04 OFFCURVE",
"790.38 1.1 OFFCURVE",
"791.56 1.19 CURVE SMOOTH",
"834.37 4.46 OFFCURVE",
"866.85 18.4 OFFCURVE",
"889 43 CURVE SMOOTH",
"891.92 46.13 OFFCURVE",
"894.99 49.99 OFFCURVE",
"898.19 54.61 CURVE SMOOTH",
"922.71 91.89 OFFCURVE",
"941.31 194.68 OFFCURVE",
"954 363 CURVE SMOOTH",
"955.92 395 OFFCURVE",
"956.92 411.33 OFFCURVE",
"957 412 CURVE"
);
}
);
vertWidth = 1000;
width = 1000;
}
);
note = uni4E66;
unicode = 4E66;
},
{
glyphname = uni4F20;
layers = (
{
hints = (
{
horizontal = 1;
place = "{250, 111}";
type = Stem;
},
{
horizontal = 1;
place = "{445, 110}";
type = Stem;
},
{
horizontal = 1;
place = "{633, 108}";
type = Stem;
},
{
place = "{142, 115}";
type = Stem;
}
);
layerId = "41DC85D1-EFC7-4239-A657-2B8BDE01F0BA";
paths = (
{
closed = 1;
nodes = (
"242 843 LINE",
"233.88 819.85 OFFCURVE",
"224.62 796.27 OFFCURVE",
"214.24 772.27 CURVE SMOOTH",
"160.84 649.51 OFFCURVE",
"94.43 548.42 OFFCURVE",
"15 469 CURVE",
"16.24 467.18 OFFCURVE",
"17.76 464.89 OFFCURVE",
"19.55 462.14 CURVE SMOOTH",
"45.25 422.06 OFFCURVE",
"65.06 383.01 OFFCURVE",
"79 345 CURVE",
"97.44 365.24 OFFCURVE",
"118.44 389.9 OFFCURVE",
"142 419 CURVE",
"142 -86 LINE",
"257 -86 LINE",
"257 596 LINE",
"293.75 662.84 OFFCURVE",
"326.42 733.18 OFFCURVE",
"355 807 CURVE"
);
},
{
closed = 1;
nodes = (
"962 445 LINE",
"962 555 LINE",
"601 555 LINE",
"621 633 LINE",
"910 633 LINE",
"910 741 LINE",
"648 741 LINE",
"668 821 LINE",
"550 836 LINE",
"540.81 795.31 OFFCURVE",
"533.48 763.65 OFFCURVE",
"528 741 CURVE",
"352 741 LINE",
"352 633 LINE",
"502 633 LINE",
"481 555 LINE",
"295 555 LINE",
"295 445 LINE",
"449 445 LINE",
"435.42 397.85 OFFCURVE",
"415.08 332.85 OFFCURVE",
"388 250 CURVE",
"725 250 LINE",
"703.15 226.19 OFFCURVE",
"667.48 188.86 OFFCURVE",
"618 138 CURVE",
"590.52 155.63 OFFCURVE",
"562.19 172.29 OFFCURVE",
"533 188 CURVE",
"450 116 LINE",
"464.64 107.26 OFFCURVE",
"480.12 97.62 OFFCURVE",
"496.47 87.09 CURVE SMOOTH",
"596.17 22.61 OFFCURVE",
"672.35 -36.42 OFFCURVE",
"725 -90 CURVE",
"809 0 LINE",
"782.79 23.93 OFFCURVE",
"750.46 49.26 OFFCURVE",
"712 76 CURVE",
"798.38 164.63 OFFCURVE",
"872.38 243.63 OFFCURVE",
"934 313 CURVE",
"851 367 LINE",
"833 361 LINE",
"547 361 LINE",
"555 388 OFFCURVE",
"563 416 OFFCURVE",
"571 445 CURVE"
);
}
);
vertWidth = 1000;
width = 1000;
}
);
note = uni4F20;
unicode = 4F20;
},
{
glyphname = uni4F53;
layers = (
{
hints = (
{
horizontal = 1;
place = "{556, 113}";
type = Stem;
},
{
place = "{143, 113}";
type = Stem;
},
{
place = "{435, 9}";
type = Stem;
},
{
place = "{566, 116}";
type = Stem;
},
{
place = "{805, 11}";
type = Stem;
},
{
horizontal = 1;
place = "{81, 106}";
type = Stem;
},
{
horizontal = 1;
place = "{173, 14}";
type = Stem;
},
{
horizontal = 1;
place = "{169, 18}";
type = Stem;
}
);
layerId = "41DC85D1-EFC7-4239-A657-2B8BDE01F0BA";
paths = (
{
closed = 1;
nodes = (
"223 843 LINE",
"216.86 823.83 OFFCURVE",
"209.99 804.25 OFFCURVE",
"202.39 784.27 CURVE SMOOTH",
"153.03 655.24 OFFCURVE",
"90.9 550.15 OFFCURVE",
"16 469 CURVE",
"17.54 466.87 OFFCURVE",
"19.38 464.23 OFFCURVE",
"21.52 461.1 CURVE SMOOTH",
"46.81 423.34 OFFCURVE",
"66.97 384.64 OFFCURVE",
"82 345 CURVE",
"101.12 367.98 OFFCURVE",
"121.45 393.98 OFFCURVE",
"143 423 CURVE",
"143 -85 LINE",
"256 -85 LINE",
"256 616 LINE",
"287.15 680.41 OFFCURVE",
"313.82 744.75 OFFCURVE",
"336 809 CURVE"
);
},
{
closed = 1;
nodes = (
"682 187 LINE",
"682 448 LINE",
"717.13 351.08 OFFCURVE",
"758.13 264.08 OFFCURVE",
"805 187 CURVE"
);
},
{
closed = 1;
nodes = (
"444 187 LINE",
"491.09 261.31 OFFCURVE",
"531.76 345.98 OFFCURVE",
"566 441 CURVE",
"566 187 LINE"
);
},
{
closed = 1;
nodes = (
"958 556 LINE",
"958 669 LINE",
"682 669 LINE",
"682 842 LINE",
"566 842 LINE",
"566 669 LINE",
"313 669 LINE",
"313 556 LINE",
"510 556 LINE",
"498.84 524.02 OFFCURVE",
"486.09 491.92 OFFCURVE",
"471.76 459.68 CURVE SMOOTH",
"411.5 324.74 OFFCURVE",
"341.25 221.51 OFFCURVE",
"261 150 CURVE",
"261.57 149.57 OFFCURVE",
"262.49 148.88 OFFCURVE",
"263.74 147.93 CURVE SMOOTH",
"292.73 125.51 OFFCURVE",
"320.15 96.2 OFFCURVE",
"346 60 CURVE",
"375.17 89.32 OFFCURVE",
"404.84 126.99 OFFCURVE",
"435 173 CURVE",
"435 81 LINE",
"566 81 LINE",
"566 -80 LINE",
"682 -80 LINE",
"682 81 LINE",
"816 81 LINE",
"816 169 LINE",
"842.67 128.06 OFFCURVE",
"869.34 92.73 OFFCURVE",
"896 63 CURVE",
"896.24 63.34 OFFCURVE",
"896.7 64.02 OFFCURVE",
"897.4 65.03 CURVE SMOOTH",
"919.52 96.79 OFFCURVE",
"948.72 126.77 OFFCURVE",
"985 155 CURVE",
"967.64 171.36 OFFCURVE",
"949.98 190.23 OFFCURVE",
"932.01 211.6 CURVE SMOOTH",
"852.75 306.57 OFFCURVE",
"789.08 421.37 OFFCURVE",
"741 556 CURVE"
);
}
);
vertWidth = 1000;
width = 1000;
}
);
note = uni4F53;
unicode = 4F53;
},
{
glyphname = uni5973;
layers = (
{
hints = (
{
horizontal = 1;
place = "{498, 128}";
type = Stem;
},
{
place = "{41, 907}";
type = Stem;
}
);
layerId = "41DC85D1-EFC7-4239-A657-2B8BDE01F0BA";
paths = (
{
closed = 1;
nodes = (
"643 498 LINE",
"615.52 386.54 OFFCURVE",
"575.85 299.88 OFFCURVE",
"524 238 CURVE",
"456.6 267.83 OFFCURVE",
"393.93 295.16 OFFCURVE",
"336 320 CURVE",
"363.95 381.78 OFFCURVE",
"388.62 441.11 OFFCURVE",
"410 498 CURVE"
);
},
{
closed = 1;
nodes = (
"948 498 LINE",
"948 626 LINE",
"457 626 LINE",
"480.7 692.49 OFFCURVE",
"501.37 762.49 OFFCURVE",
"519 836 CURVE",
"392 854 LINE",
"372.84 780.54 OFFCURVE",
"348.51 704.54 OFFCURVE",
"319 626 CURVE",
"58 626 LINE",
"58 498 LINE",
"269 498 LINE",
"229.51 406.63 OFFCURVE",
"191.51 328.29 OFFCURVE",
"155 263 CURVE",
"237.26 230.62 OFFCURVE",
"325.59 191.95 OFFCURVE",
"420 147 CURVE",
"332.85 92.86 OFFCURVE",
"206.51 56.53 OFFCURVE",
"41 38 CURVE",
"68.23 4.14 OFFCURVE",
"89.56 -36.19 OFFCURVE",
"105 -83 CURVE",
"113 -81.68 OFFCURVE",
"121.22 -80.29 OFFCURVE",
"129.65 -78.82 CURVE SMOOTH",
"317.97 -45.85 OFFCURVE",
"458.42 7.76 OFFCURVE",
"551 82 CURVE",
"658.85 27.11 OFFCURVE",
"758.19 -29.56 OFFCURVE",
"849 -88 CURVE",
"942 26 LINE",
"855.27 76.17 OFFCURVE",
"756.61 127.5 OFFCURVE",
"646 180 CURVE",
"705.21 260.22 OFFCURVE",
"749.21 366.22 OFFCURVE",
"778 498 CURVE"
);
}
);
vertWidth = 1000;
width = 1000;
}
);
note = uni5973;
unicode = 5973;
},
{
glyphname = uni7EDF;
layers = (
{
hints = (
{
horizontal = 1;
place = "{-70, 100}";
type = Stem;
},
{
horizontal = 1;
place = "{611, 106}";
type = Stem;
},
{
place = "{398, 9}";
type = Stem;
},
{
place = "{492, 117}";
type = Stem;
},
{
place = "{680, 117}";
type = Stem;
},
{
place = "{869, 101}";
type = Stem;
}
);
layerId = "41DC85D1-EFC7-4239-A657-2B8BDE01F0BA";
paths = (
{
closed = 1;
nodes = (
"964 368 LINE",
"937.77 427.79 OFFCURVE",
"890.11 502.79 OFFCURVE",
"821 593 CURVE",
"730 548 LINE",
"746.71 523.47 OFFCURVE",
"762.38 499.81 OFFCURVE",
"777 477 CURVE",
"579 461 LINE",
"602.64 489.8 OFFCURVE",
"640.64 539.8 OFFCURVE",
"693 611 CURVE",
"953 611 LINE",
"953 717 LINE",
"678 717 LINE",
"742 735 LINE",
"732.41 766.55 OFFCURVE",
"715.75 805.55 OFFCURVE",
"692 852 CURVE",
"580 824 LINE",
"592.38 794.69 OFFCURVE",
"605.38 759.02 OFFCURVE",
"619 717 CURVE",
"398 717 LINE",
"398 611 LINE",
"554 611 LINE",
"497.74 536.93 OFFCURVE",
"461.74 491.93 OFFCURVE",
"446 476 CURVE SMOOTH",
"428.88 461.55 OFFCURVE",
"404.54 450.55 OFFCURVE",
"373 443 CURVE",
"389.68 404.23 OFFCURVE",
"401.35 366.23 OFFCURVE",
"408 329 CURVE",
"413.4 331.34 OFFCURVE",
"419.42 333.53 OFFCURVE",
"426.06 335.57 CURVE SMOOTH",
"456.45 344.53 OFFCURVE",
"591.43 361.33 OFFCURVE",
"831 386 CURVE",
"847.3 353.39 OFFCURVE",
"858.3 329.73 OFFCURVE",
"864 315 CURVE"
);
},
{
closed = 1;
nodes = (
"236 331 LINE",
"300.92 412.78 OFFCURVE",
"357.92 497.11 OFFCURVE",
"407 584 CURVE",
"304 649 LINE",
"289.26 617.88 OFFCURVE",
"270.93 583.21 OFFCURVE",
"249 545 CURVE",
"176 539 LINE",
"233.3 619.39 OFFCURVE",
"281.63 706.72 OFFCURVE",
"321 801 CURVE",
"200 857 LINE",
"191.8 829.62 OFFCURVE",
"181.38 800.15 OFFCURVE",
"168.76 768.57 CURVE SMOOTH",
"137.13 689.87 OFFCURVE",
"107.88 630.68 OFFCURVE",
"81 591 CURVE SMOOTH",
"79.29 588.52 OFFCURVE",
"77.5 585.93 OFFCURVE",
"75.62 583.23 CURVE SMOOTH",
"54.64 553.25 OFFCURVE",
"36.44 536.51 OFFCURVE",
"21 533 CURVE",
"36.78 496.96 OFFCURVE",
"50.78 457.3 OFFCURVE",
"63 414 CURVE",
"78.18 421.98 OFFCURVE",
"117.18 429.64 OFFCURVE",
"180 437 CURVE",
"151.71 395.61 OFFCURVE",
"128.37 364.94 OFFCURVE",
"110 345 CURVE SMOOTH",
"78.95 308.07 OFFCURVE",
"52.61 286.74 OFFCURVE",
"31 281 CURVE",
"45.01 250.65 OFFCURVE",
"57.68 213.98 OFFCURVE",
"69 171 CURVE",
"70.43 171.83 OFFCURVE",
"72.17 172.82 OFFCURVE",
"74.24 173.97 CURVE SMOOTH",
"101.22 188.56 OFFCURVE",
"201.48 215.9 OFFCURVE",
"375 256 CURVE",
"370.86 290.2 OFFCURVE",
"370.86 324.87 OFFCURVE",
"375 360 CURVE"
);
},
{
closed = 1;
nodes = (
"373 184 LINE",
"188.36 119.96 OFFCURVE",
"76.36 82.29 OFFCURVE",
"37 71 CURVE",
"64 -47 LINE",
"172.39 -6.75 OFFCURVE",
"282.72 36.91 OFFCURVE",
"395 84 CURVE"
);
},
{
closed = 1;
nodes = (
"492 345 LINE",
"488.63 250.34 OFFCURVE",
"479.11 182.4 OFFCURVE",
"463.43 141.19 CURVE SMOOTH",
"440.22 81.27 OFFCURVE",
"392.74 36.2 OFFCURVE",
"321 6 CURVE",
"322.26 4.91 OFFCURVE",
"323.87 3.48 OFFCURVE",
"325.84 1.7 CURVE SMOOTH",
"352.4 -23.01 OFFCURVE",
"375.12 -54.24 OFFCURVE",
"394 -92 CURVE",
"473.87 -55.04 OFFCURVE",
"530.13 -0.88 OFFCURVE",
"562.76 70.47 CURVE SMOOTH",
"588.84 128.96 OFFCURVE",
"604.26 220.47 OFFCURVE",
"609 345 CURVE"
);
},
{
closed = 1;
nodes = (
"813 30 LINE SMOOTH",
"810.18 30.05 OFFCURVE",
"807.57 30.35 OFFCURVE",
"805.16 30.9 CURVE SMOOTH",
"799.72 32.72 OFFCURVE",
"797 44.09 OFFCURVE",
"797 65 CURVE SMOOTH",
"797 346 LINE",
"680 346 LINE",
"680 64 LINE SMOOTH",
"680.08 21.48 OFFCURVE",
"684.89 -9.56 OFFCURVE",
"694.43 -29.13 CURVE SMOOTH",
"708.35 -56.38 OFFCURVE",
"740.21 -70 OFFCURVE",
"790 -70 CURVE SMOOTH",
"859 -70 LINE SMOOTH",
"887.16 -69.81 OFFCURVE",
"909.05 -62.46 OFFCURVE",
"924.66 -47.96 CURVE SMOOTH",
"949.4 -23.66 OFFCURVE",
"964.51 36.33 OFFCURVE",
"970 132 CURVE",
"927.13 143.61 OFFCURVE",
"893.46 158.95 OFFCURVE",
"869 178 CURVE",
"867.66 122.2 OFFCURVE",
"865.98 84.6 OFFCURVE",
"863.95 65.22 CURVE SMOOTH",
"861.39 41.74 OFFCURVE",
"855.74 30 OFFCURVE",
"847 30 CURVE SMOOTH"
);
}
);
vertWidth = 1000;
width = 1000;
}
);
note = uni7EDF;
unicode = 7EDF;
},
{
glyphname = u16FE1;
layers = (
{
hints = (
{
horizontal = 1;
place = "{313, 149}";
type = Stem;
},
{
horizontal = 1;
place = "{636, 149}";
type = Stem;
},
{
place = "{68, 142}";
type = Stem;
},
{
place = "{366, 142}";
type = Stem;
},
{
place = "{604, 116}";
type = Stem;
}
);
layerId = "41DC85D1-EFC7-4239-A657-2B8BDE01F0BA";
paths = (
{
closed = 1;
nodes = (
"433 217 LINE",
"521.67 303.67 OFFCURVE",
"590.5 415.17 OFFCURVE",
"639.5 551.5 CURVE SMOOTH",
"688.5 687.83 OFFCURVE",
"713.67 836 OFFCURVE",
"715 996 CURVE",
"599 1000 LINE",
"599 866 OFFCURVE",
"580.33 740.67 OFFCURVE",
"543 624 CURVE SMOOTH",
"505.67 507.33 OFFCURVE",
"454.33 414.33 OFFCURVE",
"389 345 CURVE",
"432 337 LINE",
"291 727 LINE",
"181 688 LINE",
"350 236 LINE"
);
},
{
closed = 1;
nodes = (
"159.67 313 OFFCURVE",
"176.67 320 OFFCURVE",
"190 334 CURVE SMOOTH",
"203.33 348 OFFCURVE",
"210 365.67 OFFCURVE",
"210 387 CURVE SMOOTH",
"210 408.33 OFFCURVE",
"203.33 426.17 OFFCURVE",
"190 440.5 CURVE SMOOTH",
"176.67 454.83 OFFCURVE",
"159.67 462 OFFCURVE",
"139 462 CURVE SMOOTH",
"119 462 OFFCURVE",
"102.17 454.83 OFFCURVE",
"88.5 440.5 CURVE SMOOTH",
"74.83 426.17 OFFCURVE",
"68 408.33 OFFCURVE",
"68 387 CURVE SMOOTH",
"68 366.33 OFFCURVE",
"74.83 348.83 OFFCURVE",
"88.5 334.5 CURVE SMOOTH",
"102.17 320.17 OFFCURVE",
"119 313 OFFCURVE",
"139 313 CURVE SMOOTH"
);
},
{
closed = 1;
nodes = (
"480 -120 LINE",
"556.67 -45.33 OFFCURVE",
"615.83 30.67 OFFCURVE",
"657.5 108 CURVE SMOOTH",
"699.17 185.33 OFFCURVE",
"720 257.67 OFFCURVE",
"720 325 CURVE SMOOTH",
"720 427.67 OFFCURVE",
"692 530.33 OFFCURVE",
"636 633 CURVE",
"564 511 LINE",
"590.67 444.33 OFFCURVE",
"604 382 OFFCURVE",
"604 324 CURVE SMOOTH",
"604 272.67 OFFCURVE",
"586.17 215.67 OFFCURVE",
"550.5 153 CURVE SMOOTH",
"514.83 90.33 OFFCURVE",
"464.33 27 OFFCURVE",
"399 -37 CURVE"
);
},
{
closed = 1;
nodes = (
"366 689.33 OFFCURVE",
"372.83 671.83 OFFCURVE",
"386.5 657.5 CURVE SMOOTH",
"400.17 643.17 OFFCURVE",
"417 636 OFFCURVE",
"437 636 CURVE SMOOTH",
"457.67 636 OFFCURVE",
"474.67 643 OFFCURVE",
"488 657 CURVE SMOOTH",
"501.33 671 OFFCURVE",
"508 688.67 OFFCURVE",
"508 710 CURVE SMOOTH",
"508 731.33 OFFCURVE",
"501.33 749.17 OFFCURVE",
"488 763.5 CURVE SMOOTH",
"474.67 777.83 OFFCURVE",
"457.67 785 OFFCURVE",
"437 785 CURVE SMOOTH",
"417 785 OFFCURVE",
"400.17 777.83 OFFCURVE",
"386.5 763.5 CURVE SMOOTH",
"372.83 749.17 OFFCURVE",
"366 731.33 OFFCURVE",
"366 710 CURVE SMOOTH"
);
}
);
vertWidth = 1000;
width = 850;
}
);
note = u16FE1;
unicode = 16FE1;
},
{
glyphname = u1B170;
layers = (
{
hints = (
{
place = "{528, 123}";
type = Stem;
}
);
layerId = "41DC85D1-EFC7-4239-A657-2B8BDE01F0BA";
paths = (
{
closed = 1;
nodes = (
"214 -120 LINE",
"357.88 24.11 OFFCURVE",
"465.55 186.77 OFFCURVE",
"537 368 CURVE SMOOTH",
"608 548 OFFCURVE",
"646 757 OFFCURVE",
"651 995 CURVE",
"528 1000 LINE",
"522.86 776.31 OFFCURVE",
"488.19 581.64 OFFCURVE",
"424 416 CURVE SMOOTH",
"358.37 247.83 OFFCURVE",
"259.7 98.17 OFFCURVE",
"128 -33 CURVE"
);
}
);
vertWidth = 1000;
width = 850;
}
);
note = u1B170;
unicode = 1B170;
},
{
glyphname = u1B171;
layers = (
{
hints = (
{
place = "{544, 123}";
type = Stem;
}
);
layerId = "41DC85D1-EFC7-4239-A657-2B8BDE01F0BA";
paths = (
{
closed = 1;
nodes = (
"242 210 LINE",
"371.9 302.46 OFFCURVE",
"473.23 415.46 OFFCURVE",
"546 549 CURVE SMOOTH",
"617.35 680.14 OFFCURVE",
"657.68 828.47 OFFCURVE",
"667 994 CURVE",
"544 1000 LINE",
"536.92 862.44 OFFCURVE",
"500.25 732.11 OFFCURVE",
"434 609 CURVE SMOOTH",
"367 486 OFFCURVE",
"278 385 OFFCURVE",
"167 306 CURVE"
);
},
{
closed = 1;
nodes = (
"238 -120 LINE",
"383 -25 OFFCURVE",
"509 86 OFFCURVE",
"616 213 CURVE",
"520 290 LINE",
"427.46 180.93 OFFCURVE",
"310.46 78.26 OFFCURVE",
"169 -18 CURVE"
);
}
);
vertWidth = 1000;
width = 850;
}
);
note = u1B171;
unicode = 1B171;
},
{
glyphname = u1B172;
layers = (
{
hints = (
{
place = "{419, 120}";
type = Stem;
},
{
place = "{597, 115}";
type = Stem;
}
);
layerId = "41DC85D1-EFC7-4239-A657-2B8BDE01F0BA";
paths = (
{
closed = 1;
nodes = (
"428 558 LINE",
"357.26 472.76 OFFCURVE",
"259.26 389.1 OFFCURVE",
"134 307 CURVE",
"198 206 LINE",
"301.69 270.31 OFFCURVE",
"390.02 341.31 OFFCURVE",
"463 419 CURVE"
);
},
{
closed = 1;
nodes = (
"378 -120 LINE",
"484.78 -0.89 OFFCURVE",
"538.44 127.44 OFFCURVE",
"539 265 CURVE SMOOTH",
"538.82 391.76 OFFCURVE",
"490.49 570.76 OFFCURVE",
"394 802 CURVE",
"282 753 LINE",
"328.41 641.13 OFFCURVE",
"363.08 544.46 OFFCURVE",
"386 463 CURVE SMOOTH",
"407.79 384.94 OFFCURVE",
"418.79 318.94 OFFCURVE",
"419 265 CURVE SMOOTH",
"418.88 206.88 OFFCURVE",
"409.22 154.88 OFFCURVE",
"390 109 CURVE SMOOTH",
"368.41 58.98 OFFCURVE",
"334.74 8.98 OFFCURVE",
"289 -41 CURVE"
);
},
{
closed = 1;
nodes = (
"463 409 LINE",
"502.22 450.25 OFFCURVE",
"538.22 495.58 OFFCURVE",
"571 545 CURVE SMOOTH",
"652.48 671.01 OFFCURVE",
"699.48 820.34 OFFCURVE",
"712 993 CURVE",
"597 1000 LINE",
"586.73 853.39 OFFCURVE",
"546.39 724.72 OFFCURVE",
"476 614 CURVE SMOOTH",
"466.75 599.56 OFFCURVE",
"450.75 577.56 OFFCURVE",
"428 548 CURVE"
);
}
);
vertWidth = 1000;
width = 850;
}
);
note = u1B172;
unicode = 1B172;
},
{
glyphname = u1B173;
layers = (
{
hints = (
{
place = "{415, 123}";
type = Stem;
}
);
layerId = "41DC85D1-EFC7-4239-A657-2B8BDE01F0BA";
paths = (
{
closed = 1;
nodes = (
"187 -120 LINE",
"308.33 34.67 OFFCURVE",
"396 199 OFFCURVE",
"450 373 CURVE SMOOTH",
"504 547 OFFCURVE",
"533.33 755.33 OFFCURVE",
"538 998 CURVE",
"415 1000 LINE",
"412.33 875.33 OFFCURVE",
"403.33 762.33 OFFCURVE",
"388 661 CURVE SMOOTH",
"372.67 559.67 OFFCURVE",
"350.33 467.5 OFFCURVE",
"321 384.5 CURVE SMOOTH",
"291.67 301.5 OFFCURVE",
"258.33 226.5 OFFCURVE",
"221 159.5 CURVE SMOOTH",
"183.67 92.5 OFFCURVE",
"138.33 23.67 OFFCURVE",
"85 -47 CURVE"
);
},
{
closed = 1;
nodes = (
"418 345 LINE",
"512 215.67 OFFCURVE",
"593 68.67 OFFCURVE",
"661 -96 CURVE",
"774 -49 LINE",
"681.33 168.33 OFFCURVE",
"578.67 344.67 OFFCURVE",
"466 480 CURVE"
);
}
);
vertWidth = 1000;
width = 850;
}
);
note = u1B173;
unicode = 1B173;
},
{
glyphname = u1B174;
layers = (
{
hints = (
{
place = "{222, 122}";
type = Stem;
},
{
place = "{505, 116}";
type = Stem;
}
);
layerId = "41DC85D1-EFC7-4239-A657-2B8BDE01F0BA";
paths = (
{
closed = 1;
nodes = (
"222 -120 LINE",
"303 44.34 OFFCURVE",
"343.67 207.01 OFFCURVE",
"344 368 CURVE SMOOTH",
"343.86 516.22 OFFCURVE",
"311.19 671.89 OFFCURVE",
"246 835 CURVE",
"132 788 LINE",
"191.71 641.38 OFFCURVE",
"221.71 501.72 OFFCURVE",
"222 369 CURVE SMOOTH",
"221.82 224.96 OFFCURVE",
"184.16 77.96 OFFCURVE",
"109 -72 CURVE"
);
},
{
closed = 1;
nodes = (
"505.18 399.91 OFFCURVE",
"550.51 231.58 OFFCURVE",
"641 59 CURVE",
"751 118 LINE",
"664.71 273.83 OFFCURVE",
"621.38 424.49 OFFCURVE",
"621 570 CURVE SMOOTH",
"621.14 692.23 OFFCURVE",
"648.47 822.56 OFFCURVE",
"703 961 CURVE",
"590 1000 LINE",
"533.59 866.05 OFFCURVE",
"505.26 720.72 OFFCURVE",
"505 564 CURVE SMOOTH"
);
}
);
vertWidth = 1000;
width = 850;
}
);
note = u1B174;
unicode = 1B174;
},
{
glyphname = u1B175;
layers = (
{
hints = (
{
place = "{532, 117}";
type = Stem;
}
);
layerId = "41DC85D1-EFC7-4239-A657-2B8BDE01F0BA";
paths = (
{
closed = 1;
nodes = (
"704 50 LINE",
"652.05 176.25 OFFCURVE",
"582.39 308.58 OFFCURVE",
"495 447 CURVE SMOOTH",
"415 572.31 OFFCURVE",
"334.34 679.31 OFFCURVE",
"253 768 CURVE",
"164 691 LINE",
"261.58 577.9 OFFCURVE",
"351.92 452.57 OFFCURVE",
"435 315 CURVE SMOOTH",
"501.09 205.4 OFFCURVE",
"554.43 101.07 OFFCURVE",
"595 2 CURVE"
);
},
{
closed = 1;
nodes = (
"200 -120 LINE",
"317.85 6.92 OFFCURVE",
"411.52 138.58 OFFCURVE",
"481 275 CURVE",
"406 396 LINE",
"334.72 243.85 OFFCURVE",
"236.06 97.51 OFFCURVE",
"110 -43 CURVE"
);
},
{
closed = 1;
nodes = (
"528 359 LINE",
"594.59 528.84 OFFCURVE",
"634.92 740.84 OFFCURVE",
"649 995 CURVE",
"532 1001 LINE",
"518.86 791.87 OFFCURVE",
"490.53 620.21 OFFCURVE",
"447 486 CURVE"
);
}
);
vertWidth = 1000;
width = 850;
}
);
note = u1B175;
unicode = 1B175;
},
{
glyphname = u1B176;
layers = (
{
hints = (
{
horizontal = 1;
place = "{319, 169}";
type = Stem;
},
{
place = "{152, 158}";
type = Stem;
},
{
place = "{522, 126}";
type = Stem;
}
);
layerId = "41DC85D1-EFC7-4239-A657-2B8BDE01F0BA";
paths = (
{
closed = 1;
nodes = (
"426 -120 LINE",
"573.51 55.24 OFFCURVE",
"647.51 259.58 OFFCURVE",
"648 493 CURVE SMOOTH",
"647.87 646.09 OFFCURVE",
"613.87 814.76 OFFCURVE",
"546 999 CURVE",
"425 957 LINE",
"488.07 767.52 OFFCURVE",
"519.74 608.19 OFFCURVE",
"520 479 CURVE SMOOTH",
"519.73 291.62 OFFCURVE",
"453.73 118.62 OFFCURVE",
"322 -40 CURVE"
);
},
{
closed = 1;
nodes = (
"255.34 319.24 OFFCURVE",
"274.68 326.57 OFFCURVE",
"289 341 CURVE SMOOTH",
"302.55 355.92 OFFCURVE",
"309.55 376.58 OFFCURVE",
"310 403 CURVE SMOOTH",
"310 430 OFFCURVE",
"303 451 OFFCURVE",
"289 466 CURVE SMOOTH",
"275.38 480.15 OFFCURVE",
"256.04 487.49 OFFCURVE",
"231 488 CURVE SMOOTH",
"206.66 487.76 OFFCURVE",
"187.32 480.43 OFFCURVE",
"173 466 CURVE SMOOTH",
"159 451 OFFCURVE",
"152 430 OFFCURVE",
"152 403 CURVE SMOOTH",
"152.22 377.3 OFFCURVE",
"159.22 356.63 OFFCURVE",
"173 341 CURVE SMOOTH",
"186.62 326.85 OFFCURVE",
"205.96 319.51 OFFCURVE",
"231 319 CURVE SMOOTH"
);
}
);
vertWidth = 1000;
width = 850;
}
);
note = u1B176;
unicode = 1B176;
},
{
glyphname = u1B177;
layers = (
{
hints = (
{
horizontal = 1;
place = "{319, 169}";
type = Stem;
},
{
place = "{209, 123}";
type = Stem;
},
{
place = "{548, 158}";
type = Stem;
}
);
layerId = "41DC85D1-EFC7-4239-A657-2B8BDE01F0BA";
paths = (
{
closed = 1;
nodes = (
"489 -45 LINE",
"384.78 113.67 OFFCURVE",
"332.44 270 OFFCURVE",
"332 424 CURVE SMOOTH",
"332 581 OFFCURVE",
"380 756 OFFCURVE",
"476 949 CURVE",
"359 1000 LINE",
"259 792 OFFCURVE",
"209 599 OFFCURVE",
"209 421 CURVE SMOOTH",
"209.22 228.69 OFFCURVE",
"267.55 48.36 OFFCURVE",
"384 -120 CURVE"
);
},
{
closed = 1;
nodes = (
"650.45 319.27 OFFCURVE",
"669.78 326.6 OFFCURVE",
"685 341 CURVE SMOOTH",
"698.55 355.95 OFFCURVE",
"705.55 376.61 OFFCURVE",
"706 403 CURVE SMOOTH",
"706 430 OFFCURVE",
"699 451 OFFCURVE",
"685 466 CURVE SMOOTH",
"671.4 479.2 OFFCURVE",
"652.06 486.54 OFFCURVE",
"627 488 CURVE SMOOTH",
"603.55 487.73 OFFCURVE",
"584.22 480.4 OFFCURVE",
"569 466 CURVE SMOOTH",
"555 451 OFFCURVE",
"548 430 OFFCURVE",
"548 403 CURVE SMOOTH",
"548.22 378.25 OFFCURVE",
"555.22 357.58 OFFCURVE",
"569 341 CURVE SMOOTH",
"582.6 327.8 OFFCURVE",
"601.94 320.46 OFFCURVE",
"627 319 CURVE SMOOTH"
);
}
);
vertWidth = 1000;
width = 850;
}
);
note = u1B177;
unicode = 1B177;
},
{
glyphname = u1B178;
layers = (
{
hints = (
{
place = "{178, 119}";
type = Stem;
},
{
place = "{411, 121}";
type = Stem;
},
{
place = "{575, 119}";
type = Stem;
}
);
layerId = "41DC85D1-EFC7-4239-A657-2B8BDE01F0BA";
paths = (
{
closed = 1;
nodes = (
"304 -120 LINE",
"455.6 56.97 OFFCURVE",
"531.6 310.3 OFFCURVE",
"532 640 CURVE SMOOTH",
"532 744 OFFCURVE",
"525 864 OFFCURVE",
"511 1000 CURVE",
"391 986 LINE",
"404.26 852.13 OFFCURVE",
"410.93 736.8 OFFCURVE",
"411 640 CURVE SMOOTH",
"410.92 483.71 OFFCURVE",
"394.59 350.38 OFFCURVE",
"362 240 CURVE SMOOTH",
"328.51 126.86 OFFCURVE",
"277.84 31.19 OFFCURVE",
"210 -47 CURVE"
);
},
{
closed = 1;
nodes = (
"160 47 LINE",
"250.84 148.22 OFFCURVE",
"296.51 271.55 OFFCURVE",
"297 417 CURVE SMOOTH",
"296.9 482.49 OFFCURVE",
"286.24 556.49 OFFCURVE",
"265 639 CURVE",
"150 609 LINE",
"168.47 540.64 OFFCURVE",
"177.8 476.64 OFFCURVE",
"178 417 CURVE SMOOTH",
"177.75 299.55 OFFCURVE",
"141.08 200.89 OFFCURVE",
"68 121 CURVE"
);
},
{
closed = 1;
nodes = (
"575.17 136.4 OFFCURVE",
"603.5 26.73 OFFCURVE",
"660 -80 CURVE",
"768 -30 LINE",
"719.02 63.29 OFFCURVE",
"694.35 156.29 OFFCURVE",
"694 249 CURVE SMOOTH",
"694.14 326.89 OFFCURVE",
"711.81 409.89 OFFCURVE",
"747 498 CURVE",
"636 539 LINE",
"595.62 442.14 OFFCURVE",
"575.28 345.47 OFFCURVE",
"575 249 CURVE SMOOTH"
);
}
);
vertWidth = 1000;
width = 850;
}
);
note = u1B178;
unicode = 1B178;
},
{
glyphname = u1B179;
layers = (
{
hints = (
{
place = "{403, 119}";
type = Stem;
},
{
place = "{622, 120}";
type = Stem;
},
{
place = "{531, 116}";
type = Stem;
}
);
layerId = "41DC85D1-EFC7-4239-A657-2B8BDE01F0BA";
paths = (
{
closed = 1;
nodes = (
"205 389 LINE",
"355 444 OFFCURVE",
"476 522 OFFCURVE",
"568 623 CURVE SMOOTH",
"656.66 722.91 OFFCURVE",
"714.66 841.25 OFFCURVE",
"742 978 CURVE",
"622 1000 LINE",
"596.02 884.94 OFFCURVE",
"545.02 785.61 OFFCURVE",
"469 702 CURVE SMOOTH",
"393.76 621.03 OFFCURVE",
"290.1 554.37 OFFCURVE",
"158 502 CURVE"
);
},
{
closed = 1;
nodes = (
"498 -120 LINE",
"513.88 -35.32 OFFCURVE",
"521.88 51.35 OFFCURVE",
"522 140 CURVE SMOOTH",
"521.95 210.56 OFFCURVE",
"516.61 273.23 OFFCURVE",
"506 328 CURVE",
"389 289 LINE",
"398.21 233.46 OFFCURVE",
"402.88 183.79 OFFCURVE",
"403 140 CURVE SMOOTH",
"402.94 59.07 OFFCURVE",
"395.27 -20.93 OFFCURVE",
"380 -100 CURVE"
);
},
{
closed = 1;
nodes = (
"207 126 LINE",
"498.01 219.13 OFFCURVE",
"644.68 362.79 OFFCURVE",
"647 557 CURVE SMOOTH",
"646.85 608.6 OFFCURVE",
"633.19 670.93 OFFCURVE",
"606 744 CURVE",
"500 699 LINE",
"520.38 644.74 OFFCURVE",
"530.72 598.07 OFFCURVE",
"531 559 CURVE SMOOTH",
"530.66 493.37 OFFCURVE",
"501.33 434.04 OFFCURVE",
"443 381 CURVE SMOOTH",
"382.43 328.87 OFFCURVE",
"290.1 280.54 OFFCURVE",
"166 236 CURVE"
);
}
);
vertWidth = 1000;
width = 850;
}
);
note = u1B179;
unicode = 1B179;
},
{
glyphname = u1B17A;
layers = (
{
hints = (
{
place = "{415, 123}";
type = Stem;
},
{
place = "{549, 121}";
type = Stem;
}
);
layerId = "41DC85D1-EFC7-4239-A657-2B8BDE01F0BA";
paths = (
{
closed = 1;
nodes = (
"761 355 LINE",
"619 569.67 OFFCURVE",
"431.67 754 OFFCURVE",
"199 908 CURVE",
"128 812 LINE",
"229.33 742.67 OFFCURVE",
"327.17 661.67 OFFCURVE",
"421.5 569 CURVE SMOOTH",
"515.83 476.33 OFFCURVE",
"596 381 OFFCURVE",
"662 283 CURVE"
);
},
{
closed = 1;
nodes = (
"497 -120 LINE",
"524.33 -34.67 OFFCURVE",
"538 61.67 OFFCURVE",
"538 169 CURVE SMOOTH",
"538 231 OFFCURVE",
"531 298.33 OFFCURVE",
"517 371 CURVE",
"397 347 LINE",
"409 277 OFFCURVE",
"415 217.67 OFFCURVE",
"415 169 CURVE SMOOTH",
"415 70.33 OFFCURVE",
"403 -15.33 OFFCURVE",
"379 -88 CURVE"
);
},
{
closed = 1;
nodes = (
"163 251 LINE",
"307.67 348.33 OFFCURVE",
"421.33 456.67 OFFCURVE",
"504 576 CURVE",
"412 670 LINE",
"336.67 555.33 OFFCURVE",
"229.67 448.33 OFFCURVE",
"91 349 CURVE"
);
},
{
closed = 1;
nodes = (
"504 571 LINE",
"585.33 690.33 OFFCURVE",
"640.67 826.33 OFFCURVE",
"670 979 CURVE",
"549 1000 LINE",
"522.33 874.67 OFFCURVE",
"476.67 763 OFFCURVE",
"412 665 CURVE"
);
}
);
vertWidth = 1000;
width = 850;
}
);
note = u1B17A;
unicode = 1B17A;
},
{
glyphname = u1B17B;
layers = (
{
hints = (
{
place = "{591, 115}";
type = Stem;
}
);
layerId = "41DC85D1-EFC7-4239-A657-2B8BDE01F0BA";
paths = (
{
closed = 1;
nodes = (
"283 799 LINE",
"587 -35 LINE",
"700 5 LINE",
"396 839 LINE"
);
},
{
closed = 1;
nodes = (
"231 -120 LINE",
"367.29 8.44 OFFCURVE",
"479.96 150.44 OFFCURVE",
"569 306 CURVE",
"463 360 LINE",
"380.7 216.74 OFFCURVE",
"275.37 84.74 OFFCURVE",
"147 -36 CURVE"
);
},
{
closed = 1;
nodes = (
"192 262 LINE",
"283.6 318.02 OFFCURVE",
"364.27 378.69 OFFCURVE",
"434 444 CURVE",
"387 571 LINE",
"320 500 OFFCURVE",
"233 432 OFFCURVE",
"126 367 CURVE"
);
},
{
closed = 1;
nodes = (
"502 505 LINE",
"621 642 OFFCURVE",
"689 803 OFFCURVE",
"706 988 CURVE",
"591 1000 LINE",
"577.81 864.93 OFFCURVE",
"532.48 743.93 OFFCURVE",
"455 637 CURVE"
);
}
);
vertWidth = 1000;
width = 850;
}
);
note = u1B17B;
unicode = 1B17B;
},
{
glyphname = u1B17C;
layers = (
{
hints = (
{
place = "{526, 120}";
type = Stem;
},
{
place = "{548, 118}";
type = Stem;
}
);
layerId = "41DC85D1-EFC7-4239-A657-2B8BDE01F0BA";
paths = (
{
closed = 1;
nodes = (
"725 -44 LINE",
"683.67 35.43 OFFCURVE",
"632.67 110.09 OFFCURVE",
"572 180 CURVE",
"620.97 259.3 OFFCURVE",
"645.63 347.97 OFFCURVE",
"646 446 CURVE SMOOTH",
"645.88 535.09 OFFCURVE",
"627.21 636.76 OFFCURVE",
"590 751 CURVE",
"618.97 817.78 OFFCURVE",
"644.3 891.78 OFFCURVE",
"666 973 CURVE",
"548 1000 LINE",
"518.27 886.44 OFFCURVE",
"472.61 775.44 OFFCURVE",
"411 667 CURVE SMOOTH",
"349.58 561.23 OFFCURVE",
"274.24 465.56 OFFCURVE",
"185 380 CURVE",
"185 378 LINE",
"275.51 303.42 OFFCURVE",
"350.17 235.42 OFFCURVE",
"409 174 CURVE",
"343.66 111.88 OFFCURVE",
"244.32 48.88 OFFCURVE",
"111 -15 CURVE",
"163 -120 LINE",
"300.06 -59.85 OFFCURVE",
"409.06 8.48 OFFCURVE",
"490 85 CURVE",
"544.26 20.92 OFFCURVE",
"588.93 -43.41 OFFCURVE",
"624 -108 CURVE"
);
},
{
closed = 1;
nodes = (
"416.04 458.43 OFFCURVE",
"467.7 528.1 OFFCURVE",
"509 596 CURVE",
"520.19 539.81 OFFCURVE",
"525.85 490.48 OFFCURVE",
"526 448 CURVE SMOOTH",
"526 381 OFFCURVE",
"513 322 OFFCURVE",
"487 271 CURVE",
"443.43 313.45 OFFCURVE",
"399.09 352.12 OFFCURVE",
"354 387 CURVE"
);
}
);
vertWidth = 1000;
width = 850;
}
);
note = u1B17C;
unicode = 1B17C;
},
{
glyphname = u1B17D;
layers = (
{
hints = (
{
horizontal = 1;
place = "{179, 167}";
type = Stem;
},
{
place = "{428, 120}";
type = Stem;
},
{
place = "{641, 156}";
type = Stem;
},
{
place = "{400, 122}";
type = Stem;
}
);
layerId = "41DC85D1-EFC7-4239-A657-2B8BDE01F0BA";
paths = (
{
closed = 1;
nodes = (
"428 1000 LINE",
"411 838.99 OFFCURVE",
"375.34 699.33 OFFCURVE",
"321 581 CURVE SMOOTH",
"266.74 462.84 OFFCURVE",
"185.41 351.84 OFFCURVE",
"77 248 CURVE",
"165 159 LINE",
"257.24 247.44 OFFCURVE",
"332.57 343.77 OFFCURVE",
"391 448 CURVE",
"397 381 OFFCURVE",
"400 319 OFFCURVE",
"400 262 CURVE SMOOTH",
"399.93 149.61 OFFCURVE",
"386.93 29.27 OFFCURVE",
"361 -99 CURVE",
"482 -120 LINE",
"508.53 16.87 OFFCURVE",
"521.86 144.21 OFFCURVE",
"522 262 CURVE SMOOTH",
"521.94 378.14 OFFCURVE",
"509.94 514.81 OFFCURVE",
"486 672 CURVE",
"516.28 770.16 OFFCURVE",
"536.95 875.82 OFFCURVE",
"548 989 CURVE"
);
},
{
closed = 1;
nodes = (
"763.38 338.15 OFFCURVE",
"744.04 345.49 OFFCURVE",
"719 346 CURVE SMOOTH",
"694.37 345.76 OFFCURVE",
"675.37 338.42 OFFCURVE",
"662 324 CURVE SMOOTH",
"648.45 309.05 OFFCURVE",
"641.45 288.39 OFFCURVE",
"641 262 CURVE SMOOTH",
"641.22 236.94 OFFCURVE",
"648.22 216.61 OFFCURVE",
"662 201 CURVE SMOOTH",
"674.7 186.85 OFFCURVE",
"693.7 179.52 OFFCURVE",
"719 179 CURVE SMOOTH",
"743.34 179.24 OFFCURVE",
"762.68 186.57 OFFCURVE",
"777 201 CURVE SMOOTH",
"789.91 216.29 OFFCURVE",
"796.58 236.62 OFFCURVE",
"797 262 CURVE SMOOTH",
"796.78 287.37 OFFCURVE",
"790.11 308.04 OFFCURVE",
"777 324 CURVE SMOOTH"
);
}
);
vertWidth = 1000;
width = 850;
}
);
note = u1B17D;
unicode = 1B17D;
},
{
glyphname = u1B17E;
layers = (
{
hints = (
{
place = "{284, 126}";
type = Stem;
},
{
place = "{565, 124}";
type = Stem;
}
);
layerId = "41DC85D1-EFC7-4239-A657-2B8BDE01F0BA";
paths = (
{
closed = 1;
nodes = (
"341 -120 LINE",
"386.68 -22.34 OFFCURVE",
"409.68 74.32 OFFCURVE",
"410 170 CURVE SMOOTH",
"409.8 293.42 OFFCURVE",
"374.13 411.09 OFFCURVE",
"303 523 CURVE",
"300 446 LINE",
"384.8 506.33 OFFCURVE",
"458.14 578.33 OFFCURVE",
"520 662 CURVE SMOOTH",
"579.08 743.92 OFFCURVE",
"629.41 842.92 OFFCURVE",
"671 959 CURVE",
"549 1000 LINE",
"510.58 889.12 OFFCURVE",
"461.25 794.45 OFFCURVE",
"401 716 CURVE SMOOTH",
"339.6 636.74 OFFCURVE",
"261.6 566.07 OFFCURVE",
"167 504 CURVE",
"167 496 LINE",
"244.52 391.3 OFFCURVE",
"283.52 282.63 OFFCURVE",
"284 170 CURVE SMOOTH",
"283.84 90.97 OFFCURVE",
"263.84 9.3 OFFCURVE",
"224 -75 CURVE"
);
},
{
closed = 1;
nodes = (
"442 669 LINE",
"482.34 616.3 OFFCURVE",
"513.01 550.97 OFFCURVE",
"534 473 CURVE SMOOTH",
"554.49 395.6 OFFCURVE",
"564.82 318.6 OFFCURVE",
"565 242 CURVE SMOOTH",
"565 223.14 OFFCURVE",
"564.33 206.47 OFFCURVE",
"563 192 CURVE",
"686 188 LINE",
"687.94 207.72 OFFCURVE",
"688.94 229.05 OFFCURVE",
"689 252 CURVE SMOOTH",
"688.9 334.17 OFFCURVE",
"676.24 421.5 OFFCURVE",
"651 514 CURVE SMOOTH",
"624.98 604.64 OFFCURVE",
"588.64 680.97 OFFCURVE",
"542 743 CURVE"
);
}
);
vertWidth = 1000;
width = 850;
}
);
note = u1B17E;
unicode = 1B17E;
},
{
glyphname = u1B17F;
layers = (
{
hints = (
{
horizontal = 1;
place = "{250, 167}";
type = Stem;
},
{
place = "{67, 158}";
type = Stem;
},
{
place = "{400, 123}";
type = Stem;
},
{
place = "{623, 158}";
type = Stem;
}
);
layerId = "41DC85D1-EFC7-4239-A657-2B8BDE01F0BA";
paths = (
{
closed = 1;
nodes = (
"266 -120 LINE",
"360.67 -7.33 OFFCURVE",
"427.17 111.67 OFFCURVE",
"465.5 237 CURVE SMOOTH",
"503.83 362.33 OFFCURVE",
"523 523 OFFCURVE",
"523 719 CURVE SMOOTH",
"523 791.67 OFFCURVE",
"519.67 885.33 OFFCURVE",
"513 1000 CURVE",
"390 992 LINE",
"396.67 894 OFFCURVE",
"400 803 OFFCURVE",
"400 719 CURVE SMOOTH",
"400 537 OFFCURVE",
"383.17 390.33 OFFCURVE",
"349.5 279 CURVE SMOOTH",
"315.83 167.67 OFFCURVE",
"256.33 60.67 OFFCURVE",
"171 -42 CURVE"
);
},
{
closed = 1;
nodes = (
"168.67 250 OFFCURVE",
"187.5 257.83 OFFCURVE",
"202.5 273.5 CURVE SMOOTH",
"217.5 289.17 OFFCURVE",
"225 309 OFFCURVE",
"225 333 CURVE SMOOTH",
"225 357.67 OFFCURVE",
"217.67 377.83 OFFCURVE",
"203 393.5 CURVE SMOOTH",
"188.33 409.17 OFFCURVE",
"169.33 417 OFFCURVE",
"146 417 CURVE SMOOTH",
"123.33 417 OFFCURVE",
"104.5 408.83 OFFCURVE",
"89.5 392.5 CURVE SMOOTH",
"74.5 376.17 OFFCURVE",
"67 356.33 OFFCURVE",
"67 333 CURVE SMOOTH",
"67 309.67 OFFCURVE",
"74.67 290 OFFCURVE",
"90 274 CURVE SMOOTH",
"105.33 258 OFFCURVE",
"124 250 OFFCURVE",
"146 250 CURVE SMOOTH"
);
},
{
closed = 1;
nodes = (
"623 311.67 OFFCURVE",
"630.67 292 OFFCURVE",
"646 276 CURVE SMOOTH",
"661.33 260 OFFCURVE",
"680 252 OFFCURVE",
"702 252 CURVE SMOOTH",
"724.67 252 OFFCURVE",
"743.5 259.83 OFFCURVE",
"758.5 275.5 CURVE SMOOTH",
"773.5 291.17 OFFCURVE",
"781 311 OFFCURVE",
"781 335 CURVE SMOOTH",
"781 359.67 OFFCURVE",
"773.67 379.83 OFFCURVE",
"759 395.5 CURVE SMOOTH",
"744.33 411.17 OFFCURVE",
"725.33 419 OFFCURVE",
"702 419 CURVE SMOOTH",
"679.33 419 OFFCURVE",
"660.5 410.83 OFFCURVE",
"645.5 394.5 CURVE SMOOTH",
"630.5 378.17 OFFCURVE",
"623 358.33 OFFCURVE",
"623 335 CURVE SMOOTH"
);
}
);
vertWidth = 1000;
width = 850;
}
);
note = u1B17F;
unicode = 1B17F;
},
{
glyphname = u1B180;
layers = (
{
hints = (
{
place = "{577, 117}";
type = Stem;
}
);
layerId = "41DC85D1-EFC7-4239-A657-2B8BDE01F0BA";
paths = (
{
closed = 1;
nodes = (
"344 470 LINE",
"288.53 408.88 OFFCURVE",
"216.53 350.21 OFFCURVE",
"128 294 CURVE",
"192 192 LINE",
"267.53 239.18 OFFCURVE",
"333.53 289.85 OFFCURVE",
"390 344 CURVE"
);
},
{
closed = 1;
nodes = (
"288 -120 LINE",
"441.62 -16.81 OFFCURVE",
"583.28 103.52 OFFCURVE",
"713 241 CURVE",
"633 323 LINE",
"518 198 OFFCURVE",
"383 83 OFFCURVE",
"228 -22 CURVE"
);
},
{
closed = 1;
nodes = (
"303 757 LINE",
"192 717 LINE",
"432 58 LINE",
"530 135 LINE"
);
},
{
closed = 1;
nodes = (
"390 339 LINE",
"565.17 499.62 OFFCURVE",
"666.5 715.95 OFFCURVE",
"694 988 CURVE",
"577 999 LINE",
"565.51 894.64 OFFCURVE",
"540.85 796.97 OFFCURVE",
"503 706 CURVE SMOOTH",
"465.29 618.05 OFFCURVE",
"412.29 537.71 OFFCURVE",
"344 465 CURVE"
);
}
);
vertWidth = 1000;
width = 850;
}
);
note = u1B180;
unicode = 1B180;
},
{
glyphname = u1B181;
layers = (
{
hints = (
{
place = "{497, 120}";
type = Stem;
}
);
layerId = "41DC85D1-EFC7-4239-A657-2B8BDE01F0BA";
paths = (
{
closed = 1;
nodes = (
"159 428 LINE",
"354.33 256 OFFCURVE",
"494 73.33 OFFCURVE",
"578 -120 CURVE",
"686 -72 LINE",
"644.67 26 OFFCURVE",
"588 122.33 OFFCURVE",
"516 217 CURVE SMOOTH",
"444 311.67 OFFCURVE",
"366 393 OFFCURVE",
"282 461 CURVE",
"277 386 LINE",
"350.33 441.33 OFFCURVE",
"416 506.33 OFFCURVE",
"474 581 CURVE",
"401 686 LINE",
"343 608.67 OFFCURVE",
"262.33 523.33 OFFCURVE",
"159 430 CURVE"
);
},
{
closed = 1;
nodes = (
"537 663 LINE",
"595.67 750.33 OFFCURVE",
"643 850.33 OFFCURVE",
"679 963 CURVE",
"567 1000 LINE",
"537.67 912.67 OFFCURVE",
"501 833 OFFCURVE",
"457 761 CURVE"
);
},
{
closed = 1;
nodes = (
"547 147 LINE",
"593.67 218.33 OFFCURVE",
"617 303.33 OFFCURVE",
"617 402 CURVE SMOOTH",
"617 517.33 OFFCURVE",
"589.33 615.17 OFFCURVE",
"534 695.5 CURVE SMOOTH",
"478.67 775.83 OFFCURVE",
"395.33 842.33 OFFCURVE",
"284 895 CURVE",
"222 791 LINE",
"311.33 744.33 OFFCURVE",
"379.5 689.67 OFFCURVE",
"426.5 627 CURVE SMOOTH",
"473.5 564.33 OFFCURVE",
"497 489.33 OFFCURVE",
"497 402 CURVE SMOOTH",
"497 348 OFFCURVE",
"486.67 299.33 OFFCURVE",
"466 256 CURVE"
);
},
{
closed = 1;
nodes = (
"414 189 LINE",
"362.67 133 OFFCURVE",
"286.33 84 OFFCURVE",
"185 42 CURVE",
"234 -69 LINE",
"342 -27 OFFCURVE",
"426.33 24.33 OFFCURVE",
"487 85 CURVE"
);
}
);
vertWidth = 1000;
width = 850;
}
);
note = u1B181;
unicode = 1B181;
},
{
glyphname = u1B182;
layers = (
{
hints = (
{
place = "{548, 121}";
type = Stem;
}
);
layerId = "41DC85D1-EFC7-4239-A657-2B8BDE01F0BA";
paths = (
{
closed = 1;
nodes = (
"349 387 LINE",
"510.33 555.67 OFFCURVE",
"621.67 751 OFFCURVE",
"683 973 CURVE",
"566 1000 LINE",
"509.33 798 OFFCURVE",
"410.33 622.67 OFFCURVE",
"269 474 CURVE"
);
},
{
closed = 1;
nodes = (
"452 -120 LINE",
"564 -79 LINE",
"266 738 LINE",
"154 697 LINE"
);
},
{
closed = 1;
nodes = (
"477 110 LINE",
"605 223.33 OFFCURVE",
"669 361.33 OFFCURVE",
"669 524 CURVE SMOOTH",
"669 620.67 OFFCURVE",
"645.67 731.33 OFFCURVE",
"599 856 CURVE",
"518 723 LINE",
"538 647.67 OFFCURVE",
"548 581 OFFCURVE",
"548 523 CURVE SMOOTH",
"548 417.67 OFFCURVE",
"508.33 324.33 OFFCURVE",
"429 243 CURVE"
);
},
{
closed = 1;
nodes = (
"355 192 LINE",
"295.67 147.33 OFFCURVE",
"225.33 102.67 OFFCURVE",
"144 58 CURVE",
"198 -53 LINE",
"274.67 -16.33 OFFCURVE",
"343 22.67 OFFCURVE",
"403 64 CURVE"
);
}
);
vertWidth = 1000;
width = 850;
}
);
note = u1B182;
unicode = 1B182;
},
{
glyphname = u1B183;
layers = (
{
hints = (
{
place = "{555, 122}";
type = Stem;
}
);
layerId = "41DC85D1-EFC7-4239-A657-2B8BDE01F0BA";
paths = (
{
closed = 1;
nodes = (
"193 173 LINE",
"344.33 276.33 OFFCURVE",
"458.83 393.67 OFFCURVE",
"536.5 525 CURVE SMOOTH",
"614.17 656.33 OFFCURVE",
"661 811.67 OFFCURVE",
"677 991 CURVE",
"555 1000 LINE",
"540.33 838.67 OFFCURVE",
"498.17 699.83 OFFCURVE",
"428.5 583.5 CURVE SMOOTH",
"358.83 467.17 OFFCURVE",
"256.33 364.33 OFFCURVE",
"121 275 CURVE"
);
},
{
closed = 1;
nodes = (
"313 -120 LINE",
"469.67 -6 OFFCURVE",
"607 120 OFFCURVE",
"725 258 CURVE",
"633 337 LINE",
"511 197 OFFCURVE",
"382 78.67 OFFCURVE",
"246 -18 CURVE"
);
},
{
closed = 1;
nodes = (
"319 348 LINE",
"424 61 LINE",
"529 140 LINE",
"418 444 LINE"
);
}
);
vertWidth = 1000;
width = 850;
}
);
note = u1B183;
unicode = 1B183;
},
{
glyphname = u1B184;
layers = (
{
hints = (
{
horizontal = 1;
place = "{86, 163}";
type = Stem;
},
{
place = "{248, 152}";
type = Stem;
},
{
place = "{552, 124}";
type = Stem;
}
);
layerId = "41DC85D1-EFC7-4239-A657-2B8BDE01F0BA";
paths = (
{
closed = 1;
nodes = (
"215 268 LINE",
"308.17 359.34 OFFCURVE",
"391.17 466.01 OFFCURVE",
"464 588 CURVE SMOOTH",
"535.03 709.25 OFFCURVE",
"588.03 835.91 OFFCURVE",
"623 968 CURVE",
"502 1000 LINE",
"425.11 746.99 OFFCURVE",
"298.45 530.99 OFFCURVE",
"122 352 CURVE"
);
},
{
closed = 1;
nodes = (
"344.82 86.28 OFFCURVE",
"363.15 93.94 OFFCURVE",
"379 109 CURVE SMOOTH",
"392.52 123.91 OFFCURVE",
"399.52 143.24 OFFCURVE",
"400 167 CURVE SMOOTH",
"399.76 189.83 OFFCURVE",
"392.76 209.5 OFFCURVE",
"379 226 CURVE SMOOTH",
"363.84 240.79 OFFCURVE",
"345.51 248.46 OFFCURVE",
"324 249 CURVE SMOOTH",
"303 249 OFFCURVE",
"285 241 OFFCURVE",
"270 225 CURVE SMOOTH",
"255.85 209.52 OFFCURVE",
"248.51 190.19 OFFCURVE",
"248 167 CURVE SMOOTH",
"248.27 145.83 OFFCURVE",
"255.94 126.83 OFFCURVE",
"271 110 CURVE SMOOTH",
"285.79 94.6 OFFCURVE",
"303.46 86.6 OFFCURVE",
"324 86 CURVE SMOOTH"
);
},
{
closed = 1;
nodes = (
"458 -120 LINE",
"602.72 24.08 OFFCURVE",
"675.39 181.41 OFFCURVE",
"676 352 CURVE SMOOTH",
"675.77 488.87 OFFCURVE",
"627.1 630.2 OFFCURVE",
"530 776 CURVE",
"434 694 LINE",
"512.2 564.03 OFFCURVE",
"551.54 450.37 OFFCURVE",
"552 353 CURVE SMOOTH",
"552 222 OFFCURVE",
"489 93 OFFCURVE",
"363 -34 CURVE"
);
}
);
vertWidth = 1000;
width = 850;
}
);
note = u1B184;
unicode = 1B184;
},
{
glyphname = u1B185;
layers = (
{
hints = (
{
place = "{365, 120}";
type = Stem;
},
{
place = "{379, 122}";
type = Stem;
}
);
layerId = "41DC85D1-EFC7-4239-A657-2B8BDE01F0BA";
paths = (
{
closed = 1;
nodes = (
"175 265 LINE",
"290.33 369 OFFCURVE",
"370.5 476.17 OFFCURVE",
"415.5 586.5 CURVE SMOOTH",
"460.5 696.83 OFFCURVE",
"484 834.33 OFFCURVE",
"486 999 CURVE",
"365 1000 LINE",
"363 850.67 OFFCURVE",
"343 729.17 OFFCURVE",
"305 635.5 CURVE SMOOTH",
"267 541.83 OFFCURVE",
"195.33 447 OFFCURVE",
"90 351 CURVE"
);
},
{
closed = 1;
nodes = (
"470 -120 LINE",
"490.67 -26.67 OFFCURVE",
"501 73.33 OFFCURVE",
"501 180 CURVE SMOOTH",
"501 264 OFFCURVE",
"495.67 340.33 OFFCURVE",
"485 409 CURVE",
"365 390 LINE",
"374.33 319.33 OFFCURVE",
"379 249.33 OFFCURVE",
"379 180 CURVE SMOOTH",
"379 82 OFFCURVE",
"369.33 -10.33 OFFCURVE",
"350 -97 CURVE"
);
},
{
closed = 1;
nodes = (
"382 654 LINE",
"475.33 566 OFFCURVE",
"569 449.67 OFFCURVE",
"663 305 CURVE",
"764 372 LINE",
"714.67 447.33 OFFCURVE",
"665.17 514.67 OFFCURVE",
"615.5 574 CURVE SMOOTH",
"565.83 633.33 OFFCURVE",
"507 696.33 OFFCURVE",
"439 763 CURVE"
);
}
);
vertWidth = 1000;
width = 850;
}
);
note = u1B185;
unicode = 1B185;
},
{
glyphname = u1B186;
layers = (
{
hints = (
{
place = "{230, 117}";
type = Stem;
},
{
place = "{568, 117}";
type = Stem;
}
);
layerId = "41DC85D1-EFC7-4239-A657-2B8BDE01F0BA";
paths = (
{
closed = 1;
nodes = (
"282 231 LINE",
"404.67 328.33 OFFCURVE",
"498.67 439.17 OFFCURVE",
"564 563.5 CURVE SMOOTH",
"629.33 687.83 OFFCURVE",
"669.67 830.33 OFFCURVE",
"685 991 CURVE",
"568 1000 LINE",
"543.33 747.33 OFFCURVE",
"448 542.67 OFFCURVE",
"282 386 CURVE"
);
},
{
closed = 1;
nodes = (
"212 -120 LINE",
"302 40 OFFCURVE",
"347 202.67 OFFCURVE",
"347 368 CURVE SMOOTH",
"347 513.33 OFFCURVE",
"314.67 666.67 OFFCURVE",
"250 828 CURVE",
"139 778 LINE",
"197 631.33 OFFCURVE",
"226 493.67 OFFCURVE",
"226 365 CURVE SMOOTH",
"226 224.33 OFFCURVE",
"185 80.67 OFFCURVE",
"103 -66 CURVE"
);
},
{
closed = 1;
nodes = (
"446 494 LINE",
"607 -2 LINE",
"718 38 LINE",
"532 612 LINE"
);
}
);
vertWidth = 1000;
width = 850;
}
);
note = u1B186;
unicode = 1B186;
},
{
glyphname = u1B187;
layers = (
{
hints = (
{
place = "{527, 114}";
type = Stem;
}
);
layerId = "41DC85D1-EFC7-4239-A657-2B8BDE01F0BA";
paths = (
{
closed = 1;
nodes = (
"216 818 LINE",
"270.67 702.67 OFFCURVE",
"312 597.33 OFFCURVE",
"340 502 CURVE SMOOTH",
"368 406.67 OFFCURVE",
"382 314 OFFCURVE",
"382 224 CURVE SMOOTH",
"382 121.33 OFFCURVE",
"362.67 19.33 OFFCURVE",
"324 -82 CURVE",
"437 -120 LINE",
"479 -0.67 OFFCURVE",
"500 115.67 OFFCURVE",
"500 229 CURVE SMOOTH",
"500 325.67 OFFCURVE",
"485.5 425.33 OFFCURVE",
"456.5 528 CURVE SMOOTH",
"427.5 630.67 OFFCURVE",
"383.67 744.33 OFFCURVE",
"325 869 CURVE"
);
},
{
closed = 1;
nodes = (
"442 527 LINE",
"552 654.33 OFFCURVE",
"618.33 808 OFFCURVE",
"641 988 CURVE",
"527 1000 LINE",
"510.33 870 OFFCURVE",
"467.33 756.67 OFFCURVE",
"398 660 CURVE"
);
},
{
closed = 1;
nodes = (
"331 604 LINE",
"267.67 544.67 OFFCURVE",
"188.33 485.67 OFFCURVE",
"93 427 CURVE",
"152 324 LINE",
"238.67 376 OFFCURVE",
"310.33 426.67 OFFCURVE",
"367 476 CURVE"
);
},
{
closed = 1;
nodes = (
"480 211 LINE",
"586.67 292.33 OFFCURVE",
"672.67 374 OFFCURVE",
"738 456 CURVE",
"650 534 LINE",
"612.67 486 OFFCURVE",
"553.33 426.33 OFFCURVE",
"472 355 CURVE"
);
},
{
closed = 1;
nodes = (
"414 321 LINE",
"336.67 263 OFFCURVE",
"256 211 OFFCURVE",
"172 165 CURVE",
"226 60 LINE",
"289.33 94.67 OFFCURVE",
"350 132.33 OFFCURVE",
"408 173 CURVE"
);
}
);
vertWidth = 1000;
width = 850;
}
);
note = u1B187;
unicode = 1B187;
},
{
glyphname = u1B188;
layers = (
{
hints = (
{
horizontal = 1;
place = "{-40, 169}";
type = Stem;
},
{
place = "{106, 160}";
type = Stem;
},
{
place = "{602, 125}";
type = Stem;
}
);
layerId = "41DC85D1-EFC7-4239-A657-2B8BDE01F0BA";
paths = (
{
closed = 1;
nodes = (
"597 993 LINE",
"600.3 921.16 OFFCURVE",
"601.97 854.16 OFFCURVE",
"602 792 CURVE SMOOTH",
"601.92 520.5 OFFCURVE",
"572.92 287.5 OFFCURVE",
"515 93 CURVE",
"351 545 LINE",
"231 504 LINE",
"454 -110 LINE",
"558 -120 LINE",
"670.42 114.2 OFFCURVE",
"726.75 418.2 OFFCURVE",
"727 792 CURVE SMOOTH",
"726.98 854.42 OFFCURVE",
"724.98 923.76 OFFCURVE",
"721 1000 CURVE"
);
},
{
closed = 1;
nodes = (
"163 129 OFFCURVE",
"144 121 OFFCURVE",
"129 105 CURVE SMOOTH",
"114.15 87.81 OFFCURVE",
"106.49 67.48 OFFCURVE",
"106 44 CURVE SMOOTH",
"106 21 OFFCURVE",
"114 1 OFFCURVE",
"130 -16 CURVE SMOOTH",
"144.87 -31.43 OFFCURVE",
"163.54 -39.43 OFFCURVE",
"186 -40 CURVE SMOOTH",
"209 -40 OFFCURVE",
"228 -32 OFFCURVE",
"243 -16 CURVE SMOOTH",
"257.84 0.21 OFFCURVE",
"265.5 20.21 OFFCURVE",
"266 44 CURVE SMOOTH",
"265.77 68.45 OFFCURVE",
"258.44 88.78 OFFCURVE",
"244 105 CURVE SMOOTH",
"229.09 120.45 OFFCURVE",
"209.76 128.45 OFFCURVE",
"186 129 CURVE SMOOTH"
);
}
);
vertWidth = 1000;
width = 850;
}
);
note = u1B188;
unicode = 1B188;
},
{
glyphname = u1B189;
layers = (
{
hints = (
{
place = "{547, 117}";
type = Stem;
}
);
layerId = "41DC85D1-EFC7-4239-A657-2B8BDE01F0BA";
paths = (
{
closed = 1;
nodes = (
"172 335 LINE",
"314 414.33 OFFCURVE",
"424.67 505.83 OFFCURVE",
"504 609.5 CURVE SMOOTH",
"583.33 713.17 OFFCURVE",
"636.67 836.33 OFFCURVE",
"664 979 CURVE",
"547 1000 LINE",
"523 878.67 OFFCURVE",
"476.33 773.33 OFFCURVE",
"407 684 CURVE SMOOTH",
"337.67 594.67 OFFCURVE",
"238.67 512.33 OFFCURVE",
"110 437 CURVE"
);
},
{
closed = 1;
nodes = (
"237 85 LINE",
"307.67 123.67 OFFCURVE",
"370 160.33 OFFCURVE",
"424 195 CURVE",
"424 339 LINE",
"364 296.33 OFFCURVE",
"284 247.67 OFFCURVE",
"184 193 CURVE"
);
},
{
closed = 1;
nodes = (
"458 -120 LINE",
"500.67 -12.67 OFFCURVE",
"522 93 OFFCURVE",
"522 197 CURVE SMOOTH",
"522 318.33 OFFCURVE",
"494.67 460.33 OFFCURVE",
"440 623 CURVE",
"340 534 LINE",
"380 408.67 OFFCURVE",
"400 295 OFFCURVE",
"400 193 CURVE SMOOTH",
"400 99 OFFCURVE",
"382 8.67 OFFCURVE",
"346 -78 CURVE"
);
},
{
closed = 1;
nodes = (
"493 230 LINE",
"586.33 296.67 OFFCURVE",
"668.33 370 OFFCURVE",
"739 450 CURVE",
"652 529 LINE",
"600.67 472.33 OFFCURVE",
"545 420 OFFCURVE",
"485 372 CURVE"
);
}
);
vertWidth = 1000;
width = 850;
}
);
note = u1B189;
unicode = 1B189;
},
{
glyphname = u1B18A;
layers = (
{
layerId = "41DC85D1-EFC7-4239-A657-2B8BDE01F0BA";
paths = (
{
closed = 1;
nodes = (
"196 377 LINE",
"325.89 458.08 OFFCURVE",
"431.23 546.74 OFFCURVE",
"512 643 CURVE SMOOTH",
"592.26 739.56 OFFCURVE",
"649.93 850.89 OFFCURVE",
"685 977 CURVE",
"568 1000 LINE",
"536 890.55 OFFCURVE",
"484.33 793.89 OFFCURVE",
"413 710 CURVE SMOOTH",
"342.22 627.49 OFFCURVE",
"247.89 549.82 OFFCURVE",
"130 477 CURVE"
);
},
{
closed = 1;
nodes = (
"219 -120 LINE",
"397.19 -26.36 OFFCURVE",
"554.85 84.31 OFFCURVE",
"692 212 CURVE",
"608 296 LINE",
"485.69 182.86 OFFCURVE",
"337.35 78.86 OFFCURVE",
"163 -16 CURVE"
);
},
{
closed = 1;
nodes = (
"243 142 LINE",
"399.45 233.99 OFFCURVE",
"532.11 340.66 OFFCURVE",
"641 462 CURVE",
"556 538 LINE",
"512.32 489.69 OFFCURVE",
"456.32 438.03 OFFCURVE",
"388 383 CURVE SMOOTH",
"317.43 327.24 OFFCURVE",
"250.1 280.91 OFFCURVE",
"186 244 CURVE"
);
}
);
vertWidth = 1000;
width = 850;
}
);
note = u1B18A;
unicode = 1B18A;
},
{
glyphname = u1B18B;
layers = (
{
hints = (
{
place = "{282, 125}";
type = Stem;
},
{
place = "{569, 125}";
type = Stem;
},
{
place = "{290, 125}";
type = Stem;
}
);
layerId = "41DC85D1-EFC7-4239-A657-2B8BDE01F0BA";
paths = (
{
closed = 1;
nodes = (
"372 -120 LINE",
"395.12 -41.28 OFFCURVE",
"406.79 31.72 OFFCURVE",
"407 99 CURVE SMOOTH",
"406.74 238.96 OFFCURVE",
"352.74 374.63 OFFCURVE",
"245 506 CURVE",
"253 437 LINE",
"358.62 568.96 OFFCURVE",
"412.62 756.63 OFFCURVE",
"415 1000 CURVE",
"290 998 LINE",
"288.8 767.56 OFFCURVE",
"234.14 590.89 OFFCURVE",
"126 468 CURVE",
"126 458 LINE",
"229.43 356.18 OFFCURVE",
"281.43 234.84 OFFCURVE",
"282 94 CURVE SMOOTH",
"281.88 39.62 OFFCURVE",
"271.22 -21.72 OFFCURVE",
"250 -90 CURVE"
);
},
{
closed = 1;
nodes = (
"447 459 LINE",
"527.84 356.85 OFFCURVE",
"568.5 248.19 OFFCURVE",
"569 133 CURVE SMOOTH",
"568.94 104.04 OFFCURVE",
"565.27 64.38 OFFCURVE",
"558 14 CURVE",
"682 -4 LINE",
"690 42 OFFCURVE",
"694 86 OFFCURVE",
"694 128 CURVE SMOOTH",
"693.76 265.38 OFFCURVE",
"646.43 396.05 OFFCURVE",
"552 520 CURVE",
"561 425 LINE",
"642.99 533.38 OFFCURVE",
"688.66 681.05 OFFCURVE",
"698 868 CURVE",
"573 876 LINE",
"570.02 790.93 OFFCURVE",
"558.69 715.93 OFFCURVE",
"539 651 CURVE SMOOTH",
"520.59 590.39 OFFCURVE",
"489.92 528.72 OFFCURVE",
"447 466 CURVE"
);
}
);
vertWidth = 1000;
width = 850;
}
);
note = u1B18B;
unicode = 1B18B;
},
{
glyphname = u1B18C;
layers = (
{
hints = (
{
place = "{43, 150}";
type = Stem;
},
{
place = "{262, 117}";
type = Stem;
},
{
place = "{455, 117}";
type = Stem;
},
{
place = "{643, 150}";
type = Stem;
},
{
horizontal = 1;
place = "{293, 159}";
type = Stem;
},
{
horizontal = 1;
place = "{446, 159}";
type = Stem;
}
);
layerId = "41DC85D1-EFC7-4239-A657-2B8BDE01F0BA";
paths = (
{
closed = 1;
nodes = (
"230 -120 LINE",
"329.33 43.33 OFFCURVE",
"379 208.33 OFFCURVE",
"379 375 CURVE SMOOTH",
"379 523 OFFCURVE",
"337.33 674 OFFCURVE",
"254 828 CURVE",
"150 775 LINE",
"224.67 636.33 OFFCURVE",
"262 503 OFFCURVE",
"262 375 CURVE SMOOTH",
"262 229 OFFCURVE",
"217 83 OFFCURVE",
"127 -63 CURVE"
);
},
{
closed = 1;
nodes = (
"140 293 OFFCURVE",
"158 300.33 OFFCURVE",
"172 315 CURVE SMOOTH",
"186 329.67 OFFCURVE",
"193 348.67 OFFCURVE",
"193 372 CURVE SMOOTH",
"193 395.33 OFFCURVE",
"186 414.5 OFFCURVE",
"172 429.5 CURVE SMOOTH",
"158 444.5 OFFCURVE",
"140 452 OFFCURVE",
"118 452 CURVE SMOOTH",
"96.67 452 OFFCURVE",
"78.83 444.33 OFFCURVE",
"64.5 429 CURVE SMOOTH",
"50.17 413.67 OFFCURVE",
"43 394.67 OFFCURVE",
"43 372 CURVE SMOOTH",
"43 350 OFFCURVE",
"50.33 331.33 OFFCURVE",
"65 316 CURVE SMOOTH",
"79.67 300.67 OFFCURVE",
"97.33 293 OFFCURVE",
"118 293 CURVE SMOOTH"
);
},
{
closed = 1;
nodes = (
"699 131 LINE",
"614.33 279.67 OFFCURVE",
"572 426.33 OFFCURVE",
"572 571 CURVE SMOOTH",
"572 697 OFFCURVE",
"603.67 825.33 OFFCURVE",
"667 956 CURVE",
"558 1000 LINE",
"489.33 856 OFFCURVE",
"455 713 OFFCURVE",
"455 571 CURVE SMOOTH",
"455 405.67 OFFCURVE",
"502.33 240 OFFCURVE",
"597 74 CURVE"
);
},
{
closed = 1;
nodes = (
"643 503 OFFCURVE",
"650.33 484.33 OFFCURVE",
"665 469 CURVE SMOOTH",
"679.67 453.67 OFFCURVE",
"697.33 446 OFFCURVE",
"718 446 CURVE SMOOTH",
"740 446 OFFCURVE",
"758 453.33 OFFCURVE",
"772 468 CURVE SMOOTH",
"786 482.67 OFFCURVE",
"793 501.67 OFFCURVE",
"793 525 CURVE SMOOTH",
"793 548.33 OFFCURVE",
"786 567.5 OFFCURVE",
"772 582.5 CURVE SMOOTH",
"758 597.5 OFFCURVE",
"740 605 OFFCURVE",
"718 605 CURVE SMOOTH",
"696.67 605 OFFCURVE",
"678.83 597.33 OFFCURVE",
"664.5 582 CURVE SMOOTH",
"650.17 566.67 OFFCURVE",
"643 547.67 OFFCURVE",
"643 525 CURVE SMOOTH"
);
}
);
vertWidth = 1000;
width = 850;
}
);
note = u1B18C;
unicode = 1B18C;
},
{
glyphname = u1B18D;
layers = (
{
hints = (
{
place = "{244, 123}";
type = Stem;
}
);
layerId = "41DC85D1-EFC7-4239-A657-2B8BDE01F0BA";
paths = (
{
closed = 1;
nodes = (
"299 -120 LINE",
"344.33 -21.33 OFFCURVE",
"367 75.33 OFFCURVE",
"367 170 CURVE SMOOTH",
"367 287.33 OFFCURVE",
"331 403.67 OFFCURVE",
"259 519 CURVE",
"260 450 LINE",
"348 509.33 OFFCURVE",
"422.83 580.5 OFFCURVE",
"484.5 663.5 CURVE SMOOTH",
"546.17 746.5 OFFCURVE",
"597.67 845.67 OFFCURVE",
"639 961 CURVE",
"519 1001 LINE",
"479.67 891 OFFCURVE",
"428.83 796.33 OFFCURVE",
"366.5 717 CURVE SMOOTH",
"304.17 637.67 OFFCURVE",
"224.33 566.67 OFFCURVE",
"127 504 CURVE",
"127 496 LINE",
"205 390.67 OFFCURVE",
"244 282 OFFCURVE",
"244 170 CURVE SMOOTH",
"244 88.67 OFFCURVE",
"223.33 5.67 OFFCURVE",
"182 -79 CURVE"
);
},
{
closed = 1;
nodes = (
"696 154 LINE",
"737.33 376.67 OFFCURVE",
"688 595 OFFCURVE",
"548 809 CURVE",
"450 739 LINE",
"509.33 649.67 OFFCURVE",
"549.5 564 OFFCURVE",
"570.5 482 CURVE SMOOTH",
"591.5 400 OFFCURVE",
"599.67 300.33 OFFCURVE",
"595 183 CURVE",
"637 233 LINE",
"577 279 OFFCURVE",
"530.33 356 OFFCURVE",
"497 464 CURVE",
"386 427 LINE",
"402 359 OFFCURVE",
"428.17 297.83 OFFCURVE",
"464.5 243.5 CURVE SMOOTH",
"500.83 189.17 OFFCURVE",
"545.67 147.67 OFFCURVE",
"599 119 CURVE"
);
}
);
vertWidth = 1000;
width = 850;
}
);
note = u1B18D;
unicode = 1B18D;
},
{
glyphname = u1B18E;
layers = (
{
hints = (
{
horizontal = 1;
place = "{-120, 163}";
type = Stem;
},
{
place = "{392, 152}";
type = Stem;
},
{
place = "{624, 113}";
type = Stem;
}
);
layerId = "41DC85D1-EFC7-4239-A657-2B8BDE01F0BA";
paths = (
{
closed = 1;
nodes = (
"490 -120 OFFCURVE",
"508.17 -112.33 OFFCURVE",
"522.5 -97 CURVE SMOOTH",
"536.83 -81.67 OFFCURVE",
"544 -62.33 OFFCURVE",
"544 -39 CURVE SMOOTH",
"544 -15 OFFCURVE",
"537 4.67 OFFCURVE",
"523 20 CURVE SMOOTH",
"509 35.33 OFFCURVE",
"490.67 43 OFFCURVE",
"468 43 CURVE SMOOTH",
"446 43 OFFCURVE",
"427.83 35.17 OFFCURVE",
"413.5 19.5 CURVE SMOOTH",
"399.17 3.83 OFFCURVE",
"392 -15.67 OFFCURVE",
"392 -39 CURVE SMOOTH",
"392 -61.67 OFFCURVE",
"399.33 -80.83 OFFCURVE",
"414 -96.5 CURVE SMOOTH",
"428.67 -112.17 OFFCURVE",
"446.67 -120 OFFCURVE",
"468 -120 CURVE SMOOTH"
);
},
{
closed = 1;
nodes = (
"598 57 LINE",
"707 96 LINE",
"403 930 LINE",
"294 891 LINE"
);
},
{
closed = 1;
nodes = (
"170 -55 LINE",
"320.67 56.33 OFFCURVE",
"449.67 183.67 OFFCURVE",
"557 327 CURVE",
"491 438 LINE",
"382.33 288 OFFCURVE",
"251 155 OFFCURVE",
"97 39 CURVE"
);
},
{
closed = 1;
nodes = (
"193 318 LINE",
"293 372 OFFCURVE",
"379 429.67 OFFCURVE",
"451 491 CURVE",
"412 622 LINE",
"341.33 554 OFFCURVE",
"248.67 489 OFFCURVE",
"134 427 CURVE"
);
},
{
closed = 1;
nodes = (
"624 1000 LINE",
"601.33 882 OFFCURVE",
"554 777.33 OFFCURVE",
"482 686 CURVE",
"524 552 LINE",
"638 674 OFFCURVE",
"709 817.33 OFFCURVE",
"737 982 CURVE"
);
}
);
vertWidth = 1000;
width = 850;
}
);
note = u1B18E;
unicode = 1B18E;
},
{
glyphname = u1B18F;
layers = (
{
hints = (
{
horizontal = 1;
place = "{256, 164}";
type = Stem;
},
{
place = "{90, 156}";
type = Stem;
},
{
horizontal = 1;
place = "{344, 164}";
type = Stem;
},
{
place = "{628, 156}";
type = Stem;
},
{
place = "{519, 119}";
type = Stem;
}
);
layerId = "41DC85D1-EFC7-4239-A657-2B8BDE01F0BA";
paths = (
{
closed = 1;
nodes = (
"190.67 256 OFFCURVE",
"209.33 263.83 OFFCURVE",
"224 279.5 CURVE SMOOTH",
"238.67 295.17 OFFCURVE",
"246 314.67 OFFCURVE",
"246 338 CURVE SMOOTH",
"246 362 OFFCURVE",
"238.67 381.67 OFFCURVE",
"224 397 CURVE SMOOTH",
"209.33 412.33 OFFCURVE",
"190.67 420 OFFCURVE",
"168 420 CURVE SMOOTH",
"146 420 OFFCURVE",
"127.5 412.17 OFFCURVE",
"112.5 396.5 CURVE SMOOTH",
"97.5 380.83 OFFCURVE",
"90 361.33 OFFCURVE",
"90 338 CURVE SMOOTH",
"90 315.33 OFFCURVE",
"97.67 296 OFFCURVE",
"113 280 CURVE SMOOTH",
"128.33 264 OFFCURVE",
"146.67 256 OFFCURVE",
"168 256 CURVE SMOOTH"
);
},
{
closed = 1;
nodes = (
"628 403.33 OFFCURVE",
"635.67 384 OFFCURVE",
"651 368 CURVE SMOOTH",
"666.33 352 OFFCURVE",
"684.67 344 OFFCURVE",
"706 344 CURVE SMOOTH",
"728.67 344 OFFCURVE",
"747.33 351.83 OFFCURVE",
"762 367.5 CURVE SMOOTH",
"776.67 383.17 OFFCURVE",
"784 402.67 OFFCURVE",
"784 426 CURVE SMOOTH",
"784 450 OFFCURVE",
"776.67 469.67 OFFCURVE",
"762 485 CURVE SMOOTH",
"747.33 500.33 OFFCURVE",
"728.67 508 OFFCURVE",
"706 508 CURVE SMOOTH",
"684 508 OFFCURVE",
"665.5 500.17 OFFCURVE",
"650.5 484.5 CURVE SMOOTH",
"635.5 468.83 OFFCURVE",
"628 449.33 OFFCURVE",
"628 426 CURVE SMOOTH"
);
},
{
closed = 1;
nodes = (
"150 679 LINE",
"232.67 583.67 OFFCURVE",
"312.17 474 OFFCURVE",
"388.5 350 CURVE SMOOTH",
"464.83 226 OFFCURVE",
"528.33 104 OFFCURVE",
"579 -16 CURVE",
"688 32 LINE",
"629.33 166 OFFCURVE",
"560.67 297.5 OFFCURVE",
"482 426.5 CURVE SMOOTH",
"403.33 555.5 OFFCURVE",
"322.33 665.33 OFFCURVE",
"239 756 CURVE"
);
},
{
closed = 1;
nodes = (
"507 359 LINE",
"577.67 523 OFFCURVE",
"621.33 734.67 OFFCURVE",
"638 994 CURVE",
"519 1000 LINE",
"507 798.67 OFFCURVE",
"476 628.67 OFFCURVE",
"426 490 CURVE"
);
},
{
closed = 1;
nodes = (
"384 396 LINE",
"318 252 OFFCURVE",
"215.67 106.33 OFFCURVE",
"77 -41 CURVE",
"168 -120 LINE",
"290 8.67 OFFCURVE",
"386.67 139.67 OFFCURVE",
"458 273 CURVE"
);
}
);
vertWidth = 1000;
width = 850;
}
);
note = u1B18F;
unicode = 1B18F;
},
{
glyphname = u1B190;
layers = (
{
hints = (
{
horizontal = 1;
place = "{-120, 98}";
type = Stem;
},
{
horizontal = 1;
place = "{130, 98}";
type = Stem;
},
{
place = "{487, 122}";
type = Stem;
},
{
place = "{282, 123}";
type = Stem;
},
{
place = "{225, 118}";
type = Stem;
}
);
layerId = "41DC85D1-EFC7-4239-A657-2B8BDE01F0BA";
paths = (
{
closed = 1;
nodes = (
"735 262 LINE",
"648.14 391.12 OFFCURVE",
"604.47 514.78 OFFCURVE",
"604 633 CURVE SMOOTH",
"604.18 730.77 OFFCURVE",
"632.51 837.43 OFFCURVE",
"689 953 CURVE",
"580 1000 LINE",
"517.68 872.06 OFFCURVE",
"486.34 749.73 OFFCURVE",
"486 633 CURVE SMOOTH",
"486.23 491.47 OFFCURVE",
"535.9 346.81 OFFCURVE",
"635 199 CURVE"
);
},
{
closed = 1;
nodes = (
"492.46 -119.73 OFFCURVE",
"531.13 -104.07 OFFCURVE",
"563 -73 CURVE SMOOTH",
"593.15 -41.47 OFFCURVE",
"608.49 -1.47 OFFCURVE",
"609 47 CURVE SMOOTH",
"608.77 98.5 OFFCURVE",
"593.44 141.84 OFFCURVE",
"563 177 CURVE SMOOTH",
"532.15 210.42 OFFCURVE",
"493.48 227.42 OFFCURVE",
"447 228 CURVE SMOOTH",
"399.86 227.71 OFFCURVE",
"360.53 210.71 OFFCURVE",
"329 177 CURVE SMOOTH",
"298.14 141.78 OFFCURVE",
"282.48 98.44 OFFCURVE",
"282 47 CURVE SMOOTH",
"282.26 -0.13 OFFCURVE",
"297.93 -40.13 OFFCURVE",
"329 -73 CURVE SMOOTH",
"360.22 -103.81 OFFCURVE",
"399.55 -119.48 OFFCURVE",
"447 -120 CURVE SMOOTH"
);
},
{
closed = 1;
nodes = (
"419.75 -21.33 OFFCURVE",
"405.75 3.33 OFFCURVE",
"405 52 CURVE SMOOTH",
"405 104 OFFCURVE",
"419 130 OFFCURVE",
"447 130 CURVE SMOOTH",
"472.98 129.35 OFFCURVE",
"486.31 103.35 OFFCURVE",
"487 52 CURVE SMOOTH",
"486.65 3.98 OFFCURVE",
"473.32 -20.68 OFFCURVE",
"447 -22 CURVE SMOOTH"
);
},
{
closed = 1;
nodes = (
"202 118 LINE",
"295.51 239.71 OFFCURVE",
"342.51 367.38 OFFCURVE",
"343 501 CURVE SMOOTH",
"342.8 615.39 OFFCURVE",
"306.8 736.72 OFFCURVE",
"235 865 CURVE",
"130 810 LINE",
"192.93 697.83 OFFCURVE",
"224.59 594.83 OFFCURVE",
"225 501 CURVE SMOOTH",
"224.75 391.3 OFFCURVE",
"184.41 285.96 OFFCURVE",
"104 185 CURVE"
);
}
);
vertWidth = 1000;
width = 850;
}
);
note = u1B190;
unicode = 1B190;
},
{
glyphname = u1B191;
layers = (
{
hints = (
{
place = "{349, 114}";
type = Stem;
},
{
place = "{498, 116}";
type = Stem;
}
);
layerId = "41DC85D1-EFC7-4239-A657-2B8BDE01F0BA";
paths = (
{
closed = 1;
nodes = (
"179 420 LINE",
"467.54 528.25 OFFCURVE",
"645.2 712.58 OFFCURVE",
"712 973 CURVE",
"595 1000 LINE",
"563.1 890 OFFCURVE",
"509.77 797.33 OFFCURVE",
"435 722 CURVE SMOOTH",
"359.26 646.5 OFFCURVE",
"257.93 581.83 OFFCURVE",
"131 528 CURVE"
);
},
{
closed = 1;
nodes = (
"200 191 LINE",
"348.32 248.24 OFFCURVE",
"454.32 308.91 OFFCURVE",
"518 373 CURVE SMOOTH",
"581.46 436.85 OFFCURVE",
"613.46 515.18 OFFCURVE",
"614 608 CURVE SMOOTH",
"614 656 OFFCURVE",
"604 707 OFFCURVE",
"584 761 CURVE",
"491 666 LINE",
"495.5 648.55 OFFCURVE",
"497.83 629.22 OFFCURVE",
"498 608 CURVE SMOOTH",
"497.69 546.12 OFFCURVE",
"472.02 491.79 OFFCURVE",
"421 445 CURVE SMOOTH",
"370.85 400 OFFCURVE",
"282.18 351.67 OFFCURVE",
"155 300 CURVE"
);
},
{
closed = 1;
nodes = (
"372 345 LINE",
"387.75 187.43 OFFCURVE",
"380.09 38.43 OFFCURVE",
"349 -102 CURVE",
"463 -120 LINE",
"498.28 28.74 OFFCURVE",
"504.61 205.74 OFFCURVE",
"482 411 CURVE"
);
},
{
closed = 1;
nodes = (
"471 83 LINE",
"571.65 141.53 OFFCURVE",
"660.65 199.86 OFFCURVE",
"738 258 CURVE",
"673 349 LINE",
"612.74 304.11 OFFCURVE",
"547.41 260.11 OFFCURVE",
"477 217 CURVE"
);
},
{
closed = 1;
nodes = (
"417 188 LINE",
"324.13 135.73 OFFCURVE",
"235.79 91.4 OFFCURVE",
"152 55 CURVE",
"193 -48 LINE",
"249.42 -24.67 OFFCURVE",
"320.09 8.99 OFFCURVE",
"405 53 CURVE"
);
}
);
vertWidth = 1000;
width = 850;
}
);
note = u1B191;
unicode = 1B191;
},
{
glyphname = u1B192;
layers = (
{
hints = (
{
horizontal = 1;
place = "{75, 164}";
type = Stem;
},
{
place = "{72, 156}";
type = Stem;
},
{
place = "{366, 126}";
type = Stem;
},
{
place = "{628, 129}";
type = Stem;
}
);
layerId = "41DC85D1-EFC7-4239-A657-2B8BDE01F0BA";
paths = (
{
closed = 1;
nodes = (
"423 -120 LINE",
"468.68 -21.36 OFFCURVE",
"491.68 75.31 OFFCURVE",
"492 170 CURVE SMOOTH",
"491.8 284.02 OFFCURVE",
"456.8 401.69 OFFCURVE",
"387 523 CURVE",
"381 447 LINE",
"460.97 500.85 OFFCURVE",
"531.31 570.19 OFFCURVE",
"592 655 CURVE SMOOTH",
"648.96 735.33 OFFCURVE",
"699.62 837.66 OFFCURVE",
"744 962 CURVE",
"621 1000 LINE",
"586.65 891.45 OFFCURVE",
"540.99 798.78 OFFCURVE",
"484 722 CURVE SMOOTH",
"426.15 646.14 OFFCURVE",
"347.82 573.47 OFFCURVE",
"249 504 CURVE",
"249 496 LINE",
"326.52 391.3 OFFCURVE",
"365.52 282.63 OFFCURVE",
"366 170 CURVE SMOOTH",
"365.84 93.35 OFFCURVE",
"346.17 12.01 OFFCURVE",
"307 -74 CURVE"
);
},
{
closed = 1;
nodes = (
"171.46 75.27 OFFCURVE",
"190.12 82.93 OFFCURVE",
"206 98 CURVE SMOOTH",
"220.16 112.59 OFFCURVE",
"227.5 132.25 OFFCURVE",
"228 157 CURVE SMOOTH",
"227.76 181.1 OFFCURVE",
"220.43 200.77 OFFCURVE",
"206 216 CURVE SMOOTH",
"190.84 230.8 OFFCURVE",
"172.17 238.47 OFFCURVE",
"150 239 CURVE SMOOTH",
"128.54 238.73 OFFCURVE",
"109.88 231.07 OFFCURVE",
"94 216 CURVE SMOOTH",
"79.84 200.49 OFFCURVE",
"72.5 180.82 OFFCURVE",
"72 157 CURVE SMOOTH",
"72.27 134.18 OFFCURVE",
"79.94 114.85 OFFCURVE",
"95 99 CURVE SMOOTH",
"109.83 83.58 OFFCURVE",
"128.17 75.58 OFFCURVE",
"150 75 CURVE SMOOTH"
);
},
{
closed = 1;
nodes = (
"533 647 LINE",
"596 528.66 OFFCURVE",
"627.66 404.33 OFFCURVE",
"628 274 CURVE SMOOTH",
"627.97 241.34 OFFCURVE",
"626.97 216.67 OFFCURVE",
"625 200 CURVE",
"753 194 LINE",
"755.59 216.04 OFFCURVE",
"756.93 243.37 OFFCURVE",
"757 276 CURVE SMOOTH",
"756.9 356.16 OFFCURVE",
"745.24 438.49 OFFCURVE",
"722 523 CURVE SMOOTH",
"697.76 606.5 OFFCURVE",
"664.42 681.5 OFFCURVE",
"622 748 CURVE"
);
}
);
vertWidth = 1000;
width = 850;
}
);
note = u1B192;
unicode = 1B192;
},
{
glyphname = u1B193;
layers = (
{
hints = (
{
horizontal = 1;
place = "{12, 162}";
type = Stem;
},
{
horizontal = 1;
place = "{475, 162}";
type = Stem;
},
{
place = "{66, 154}";
type = Stem;
},
{
place = "{369, 154}";
type = Stem;
},
{
place = "{607, 123}";
type = Stem;
}
);
layerId = "41DC85D1-EFC7-4239-A657-2B8BDE01F0BA";
paths = (
{
closed = 1;
nodes = (
"500 -120 LINE",
"653.33 68 OFFCURVE",
"730 353.33 OFFCURVE",
"730 736 CURVE SMOOTH",
"730 832 OFFCURVE",
"727.67 920 OFFCURVE",
"723 1000 CURVE",
"601 993 LINE",
"605 927.67 OFFCURVE",
"607 841 OFFCURVE",
"607 733 CURVE SMOOTH",
"607 565 OFFCURVE",
"592.17 419.5 OFFCURVE",
"562.5 296.5 CURVE SMOOTH",
"532.83 173.5 OFFCURVE",
"485 63 OFFCURVE",
"419 -35 CURVE",
"501 -36 LINE",
"283 566 LINE",
"166 524 LINE",
"397 -110 LINE"
);
},
{
closed = 1;
nodes = (
"165.67 12 OFFCURVE",
"184.17 19.67 OFFCURVE",
"198.5 35 CURVE SMOOTH",
"212.83 50.33 OFFCURVE",
"220 69.67 OFFCURVE",
"220 93 CURVE SMOOTH",
"220 116.33 OFFCURVE",
"212.83 135.67 OFFCURVE",
"198.5 151 CURVE SMOOTH",
"184.17 166.33 OFFCURVE",
"165.67 174 OFFCURVE",
"143 174 CURVE SMOOTH",
"121 174 OFFCURVE",
"102.67 166.33 OFFCURVE",
"88 151 CURVE SMOOTH",
"73.33 135.67 OFFCURVE",
"66 116.33 OFFCURVE",
"66 93 CURVE SMOOTH",
"66 70.33 OFFCURVE",
"73.5 51.17 OFFCURVE",
"88.5 35.5 CURVE SMOOTH",
"103.5 19.83 OFFCURVE",
"121.67 12 OFFCURVE",
"143 12 CURVE SMOOTH"
);
},
{
closed = 1;
nodes = (
"369 533.33 OFFCURVE",
"376.5 514.17 OFFCURVE",
"391.5 498.5 CURVE SMOOTH",
"406.5 482.83 OFFCURVE",
"424.67 475 OFFCURVE",
"446 475 CURVE SMOOTH",
"468.67 475 OFFCURVE",
"487.17 482.67 OFFCURVE",
"501.5 498 CURVE SMOOTH",
"515.83 513.33 OFFCURVE",
"523 532.67 OFFCURVE",
"523 556 CURVE SMOOTH",
"523 579.33 OFFCURVE",
"515.83 598.67 OFFCURVE",
"501.5 614 CURVE SMOOTH",
"487.17 629.33 OFFCURVE",
"468.67 637 OFFCURVE",
"446 637 CURVE SMOOTH",
"424 637 OFFCURVE",
"405.67 629.33 OFFCURVE",
"391 614 CURVE SMOOTH",
"376.33 598.67 OFFCURVE",
"369 579.33 OFFCURVE",
"369 556 CURVE SMOOTH"
);
}
);
vertWidth = 1000;
width = 850;
}
);
note = u1B193;
unicode = 1B193;
},
{
glyphname = u1B194;
layers = (
{
layerId = "41DC85D1-EFC7-4239-A657-2B8BDE01F0BA";
paths = (
{
closed = 1;
nodes = (
"255 852 LINE",
"578 -33 LINE",
"691 8 LINE",
"368 893 LINE"
);
},
{
closed = 1;
nodes = (
"242 -120 LINE",
"359.7 -34.8 OFFCURVE",
"466.04 64.2 OFFCURVE",
"561 177 CURVE",
"497 284 LINE",
"396.69 160.57 OFFCURVE",
"288.03 56.91 OFFCURVE",
"171 -27 CURVE"
);
},
{
closed = 1;
nodes = (
"233 174 LINE",
"313.52 224 OFFCURVE",
"389.52 277.33 OFFCURVE",
"461 334 CURVE",
"420 449 LINE",
"346.08 387.32 OFFCURVE",
"263.75 328.98 OFFCURVE",
"173 274 CURVE"
);
},
{
closed = 1;
nodes = (
"189 386 LINE",
"266.9 435.11 OFFCURVE",
"333.56 483.11 OFFCURVE",
"389 530 CURVE",
"345 652 LINE",
"288.9 597.96 OFFCURVE",
"216.23 541.63 OFFCURVE",
"127 483 CURVE"
);
},
{
closed = 1;
nodes = (
"534 391 LINE",
"613.3 462.59 OFFCURVE",
"680.97 536.92 OFFCURVE",
"737 614 CURVE",
"643 680 LINE",
"603.14 624.35 OFFCURVE",
"552.81 567.02 OFFCURVE",
"492 508 CURVE"
);
},
{
closed = 1;
nodes = (
"461 597 LINE",
"559.02 706.3 OFFCURVE",
"624.69 833.3 OFFCURVE",
"658 978 CURVE",
"545 1000 LINE",
"520.38 899.22 OFFCURVE",
"477.05 807.89 OFFCURVE",
"415 726 CURVE"
);
}
);
vertWidth = 1000;
width = 850;
}
);
note = u1B194;
unicode = 1B194;
},
{
glyphname = u1B195;
layers = (
{
hints = (
{
place = "{95, 154}";
type = Stem;
},
{
place = "{422, 121}";
type = Stem;
},
{
place = "{605, 154}";
type = Stem;
},
{
place = "{440, 121}";
type = Stem;
},
{
horizontal = 1;
place = "{472, 167}";
type = Stem;
},
{
horizontal = 1;
place = "{372, 167}";
type = Stem;
}
);
layerId = "41DC85D1-EFC7-4239-A657-2B8BDE01F0BA";
paths = (
{
closed = 1;
nodes = (
"187 -29 LINE",
"265.67 50.33 OFFCURVE",
"328.5 134.5 OFFCURVE",
"375.5 223.5 CURVE SMOOTH",
"422.5 312.5 OFFCURVE",
"459.33 418.17 OFFCURVE",
"486 540.5 CURVE SMOOTH",
"512.67 662.83 OFFCURVE",
"531.67 814.33 OFFCURVE",
"543 995 CURVE",
"422 1000 LINE",
"407.33 756.67 OFFCURVE",
"376.17 565.83 OFFCURVE",
"328.5 427.5 CURVE SMOOTH",
"280.83 289.17 OFFCURVE",
"203.33 163 OFFCURVE",
"96 49 CURVE"
);
},
{
closed = 1;
nodes = (
"561 -120 LINE",
"561.67 -2.67 OFFCURVE",
"553.67 107.17 OFFCURVE",
"537 209.5 CURVE SMOOTH",
"520.33 311.83 OFFCURVE",
"492.67 420.33 OFFCURVE",
"454 535 CURVE",
"376 400 LINE",
"420.67 241.33 OFFCURVE",
"442 69 OFFCURVE",
"440 -117 CURVE"
);
},
{
closed = 1;
nodes = (
"195.33 472 OFFCURVE",
"214 479.83 OFFCURVE",
"228 495.5 CURVE SMOOTH",
"242 511.17 OFFCURVE",
"249 531.33 OFFCURVE",
"249 556 CURVE SMOOTH",
"249 579.33 OFFCURVE",
"242 599 OFFCURVE",
"228 615 CURVE SMOOTH",
"214 631 OFFCURVE",
"195.33 639 OFFCURVE",
"172 639 CURVE SMOOTH",
"150 639 OFFCURVE",
"131.67 630.83 OFFCURVE",
"117 614.5 CURVE SMOOTH",
"102.33 598.17 OFFCURVE",
"95 578.67 OFFCURVE",
"95 556 CURVE SMOOTH",
"95 532 OFFCURVE",
"102.33 512 OFFCURVE",
"117 496 CURVE SMOOTH",
"131.67 480 OFFCURVE",
"150 472 OFFCURVE",
"172 472 CURVE SMOOTH"
);
},
{
closed = 1;
nodes = (
"705.33 372 OFFCURVE",
"724 379.83 OFFCURVE",
"738 395.5 CURVE SMOOTH",
"752 411.17 OFFCURVE",
"759 431.33 OFFCURVE",
"759 456 CURVE SMOOTH",
"759 479.33 OFFCURVE",
"752 499 OFFCURVE",
"738 515 CURVE SMOOTH",
"724 531 OFFCURVE",
"705.33 539 OFFCURVE",
"682 539 CURVE SMOOTH",
"660 539 OFFCURVE",
"641.67 530.83 OFFCURVE",
"627 514.5 CURVE SMOOTH",
"612.33 498.17 OFFCURVE",
"605 478.67 OFFCURVE",
"605 456 CURVE SMOOTH",
"605 432 OFFCURVE",
"612.33 412 OFFCURVE",
"627 396 CURVE SMOOTH",
"641.67 380 OFFCURVE",
"660 372 OFFCURVE",
"682 372 CURVE SMOOTH"
);
}
);
vertWidth = 1000;
width = 850;
}
);
note = u1B195;
unicode = 1B195;
},
{
glyphname = u1B196;
layers = (
{
hints = (
{
place = "{476, 117}";
type = Stem;
},
{
place = "{661, 118}";
type = Stem;
}
);
layerId = "41DC85D1-EFC7-4239-A657-2B8BDE01F0BA";
paths = (
{
closed = 1;
nodes = (
"275 708 LINE",
"412.65 475.19 OFFCURVE",
"479.65 199.53 OFFCURVE",
"476 -119 CURVE",
"593 -120 LINE",
"594.9 65.36 OFFCURVE",
"575.23 237.36 OFFCURVE",
"534 396 CURVE SMOOTH",
"493.57 550.34 OFFCURVE",
"426.24 700.67 OFFCURVE",
"332 847 CURVE",
"235 832 LINE",
"186.75 672.35 OFFCURVE",
"128.42 520.02 OFFCURVE",
"60 375 CURVE",
"171 327 LINE",
"233.63 464.87 OFFCURVE",
"284.96 593.2 OFFCURVE",
"325 712 CURVE"
);
},
{
closed = 1;
nodes = (
"496 469 LINE",
"542.81 608.4 OFFCURVE",
"581.15 731.4 OFFCURVE",
"611 838 CURVE",
"579 840 LINE",
"624.42 665.01 OFFCURVE",
"651.75 504.68 OFFCURVE",
"661 359 CURVE",
"779 370 LINE",
"764 579 OFFCURVE",
"719 789 OFFCURVE",
"644 1000 CURVE",
"536 994 LINE",
"504.19 876.47 OFFCURVE",
"468.52 756.81 OFFCURVE",
"429 635 CURVE"
);
},
{
closed = 1;
nodes = (
"390 525 LINE",
"343.68 387.11 OFFCURVE",
"282.34 222.44 OFFCURVE",
"206 31 CURVE",
"317 -8 LINE",
"374 135 OFFCURVE",
"417 249 OFFCURVE",
"446 334 CURVE"
);
}
);
vertWidth = 1000;
width = 850;
}
);
note = u1B196;
unicode = 1B196;
},
{
glyphname = u1B197;
layers = (
{
layerId = "41DC85D1-EFC7-4239-A657-2B8BDE01F0BA";
paths = (
{
closed = 1;
nodes = (
"316 -120 LINE",
"384.84 -80.71 OFFCURVE",
"462.84 -26.38 OFFCURVE",
"550 43 CURVE SMOOTH",
"629.98 107.64 OFFCURVE",
"698.98 170.97 OFFCURVE",
"757 233 CURVE",
"674 311 LINE",
"623.11 257.16 OFFCURVE",
"558.78 199.16 OFFCURVE",
"481 137 CURVE SMOOTH",
"402 74 OFFCURVE",
"328 21 OFFCURVE",
"259 -22 CURVE"
);
},
{
closed = 1;
nodes = (
"186 820 LINE",
"470 38 LINE",
"566 129 LINE",
"300 859 LINE"
);
},
{
closed = 1;
nodes = (
"418 474 LINE",
"559.19 616.48 OFFCURVE",
"652.52 783.81 OFFCURVE",
"698 976 CURVE",
"583 1000 LINE",
"545.79 851.88 OFFCURVE",
"478.13 721.54 OFFCURVE",
"380 609 CURVE"
);
},
{
closed = 1;
nodes = (
"317 548 LINE",
"257.43 492.59 OFFCURVE",
"192.1 443.26 OFFCURVE",
"121 400 CURVE",
"182 297 LINE",
"245.42 335.14 OFFCURVE",
"302.42 376.81 OFFCURVE",
"353 422 CURVE"
);
},
{
closed = 1;
nodes = (
"487 254 LINE",
"563 321 OFFCURVE",
"626 385 OFFCURVE",
"676 446 CURVE",
"586 522 LINE",
"543.24 474.67 OFFCURVE",
"497.91 428.34 OFFCURVE",
"450 383 CURVE"
);
},
{
closed = 1;
nodes = (
"383 331 LINE",
"328.03 284.24 OFFCURVE",
"266.7 238.24 OFFCURVE",
"199 193 CURVE",
"261 93 LINE",
"312.33 125.26 OFFCURVE",
"369.67 165.59 OFFCURVE",
"433 214 CURVE"
);
}
);
vertWidth = 1000;
width = 850;
}
);
note = u1B197;
unicode = 1B197;
},
{
glyphname = u1B198;
layers = (
{
hints = (
{
place = "{250, 120}";
type = Stem;
},
{
place = "{421, 114}";
type = Stem;
},
{
place = "{626, 113}";
type = Stem;
}
);
layerId = "41DC85D1-EFC7-4239-A657-2B8BDE01F0BA";
paths = (
{
closed = 1;
nodes = (
"302 -120 LINE",
"347.02 -19.63 OFFCURVE",
"369.69 77.04 OFFCURVE",
"370 170 CURVE SMOOTH",
"369.8 285.89 OFFCURVE",
"335.47 401.22 OFFCURVE",
"267 516 CURVE",
"264 452 LINE",
"353.81 512.38 OFFCURVE",
"430.14 584.38 OFFCURVE",
"493 668 CURVE SMOOTH",
"553.8 748.61 OFFCURVE",
"606.13 846.28 OFFCURVE",
"650 961 CURVE",
"535 1000 LINE",
"495.88 893.01 OFFCURVE",
"444.21 799.68 OFFCURVE",
"380 720 CURVE SMOOTH",
"314.77 639.95 OFFCURVE",
"232.43 567.95 OFFCURVE",
"133 504 CURVE",
"133 496 LINE",
"210.52 391.3 OFFCURVE",
"249.52 282.63 OFFCURVE",
"250 170 CURVE SMOOTH",
"249.84 92.93 OFFCURVE",
"229.84 10.26 OFFCURVE",
"190 -78 CURVE"
);
},
{
closed = 1;
nodes = (
"552 622 LINE",
"465.35 544.95 OFFCURVE",
"421.68 459.61 OFFCURVE",
"421 366 CURVE SMOOTH",
"421 320 OFFCURVE",
"433 276 OFFCURVE",
"457 234 CURVE SMOOTH",
"479.26 192.84 OFFCURVE",
"512.59 155.51 OFFCURVE",
"557 122 CURVE",
"637 122 LINE",
"704.47 192.84 OFFCURVE",
"738.47 278.51 OFFCURVE",
"739 379 CURVE SMOOTH",
"738.83 451.01 OFFCURVE",
"720.16 524.01 OFFCURVE",
"683 598 CURVE SMOOTH",
"645.41 669.82 OFFCURVE",
"593.07 732.49 OFFCURVE",
"526 786 CURVE",
"455 695 LINE",
"505.59 653.74 OFFCURVE",
"547.26 604.41 OFFCURVE",
"580 547 CURVE SMOOTH",
"610.3 492.89 OFFCURVE",
"625.64 436.22 OFFCURVE",
"626 377 CURVE SMOOTH",
"625.8 331.58 OFFCURVE",
"612.14 285.91 OFFCURVE",
"585 240 CURVE",
"552.2 277.13 OFFCURVE",
"535.53 318.13 OFFCURVE",
"535 363 CURVE SMOOTH",
"535.33 420.6 OFFCURVE",
"560.99 473.26 OFFCURVE",
"612 521 CURVE"
);
}
);
vertWidth = 1000;
width = 850;
}
);
note = u1B198;
unicode = 1B198;
},
{
glyphname = u1B199;
layers = (
{
hints = (
{
place = "{371, 118}";
type = Stem;
}
);
layerId = "41DC85D1-EFC7-4239-A657-2B8BDE01F0BA";
paths = (
{
closed = 1;
nodes = (
"156 306 LINE",
"276 390.67 OFFCURVE",
"362.5 486.5 OFFCURVE",
"415.5 593.5 CURVE SMOOTH",
"468.5 700.5 OFFCURVE",
"494.67 835.33 OFFCURVE",
"494 998 CURVE",
"373 1000 LINE",
"372.33 855.33 OFFCURVE",
"349.5 737.67 OFFCURVE",
"304.5 647 CURVE SMOOTH",
"259.5 556.33 OFFCURVE",
"185 474 OFFCURVE",
"81 400 CURVE"
);
},
{
closed = 1;
nodes = (
"241 -120 LINE",
"398.33 15.33 OFFCURVE",
"481 195.33 OFFCURVE",
"489 420 CURVE",
"371 427 LINE",
"361.67 235.67 OFFCURVE",
"290.67 82.33 OFFCURVE",
"158 -33 CURVE"
);
},
{
closed = 1;
nodes = (
"704 -58 LINE",
"632.67 63.33 OFFCURVE",
"544 170.33 OFFCURVE",
"438 263 CURVE",
"367 168 LINE",
"454.33 91.33 OFFCURVE",
"532.67 -4.67 OFFCURVE",
"602 -120 CURVE"
);
},
{
closed = 1;
nodes = (
"404 645 LINE",
"506.67 549.67 OFFCURVE",
"592.33 442 OFFCURVE",
"661 322 CURVE",
"765 385 LINE",
"682.33 525.67 OFFCURVE",
"579.67 649 OFFCURVE",
"457 755 CURVE"
);
}
);
vertWidth = 1000;
width = 850;
}
);
note = u1B199;
unicode = 1B199;
},
{
glyphname = u1B19A;
layers = (
{
hints = (
{
place = "{506, 119}";
type = Stem;
},
{
place = "{666, 115}";
type = Stem;
}
);
layerId = "41DC85D1-EFC7-4239-A657-2B8BDE01F0BA";
paths = (
{
closed = 1;
nodes = (
"257 252 LINE",
"483 443.33 OFFCURVE",
"605.67 690.67 OFFCURVE",
"625 994 CURVE",
"506 1000 LINE",
"490.67 767.33 OFFCURVE",
"406.33 570.33 OFFCURVE",
"253 409 CURVE"
);
},
{
closed = 1;
nodes = (
"176 -120 LINE",
"262 47.33 OFFCURVE",
"305 211.67 OFFCURVE",
"305 373 CURVE SMOOTH",
"305 518.33 OFFCURVE",
"269.67 672 OFFCURVE",
"199 834 CURVE",
"88 787 LINE",
"151.33 641 OFFCURVE",
"183 503 OFFCURVE",
"183 373 CURVE SMOOTH",
"183 228.33 OFFCURVE",
"144 80.33 OFFCURVE",
"66 -71 CURVE"
);
},
{
closed = 1;
nodes = (
"340 421 LINE",
"499 -18 LINE",
"590 -29 LINE",
"631.33 27 OFFCURVE",
"668.83 92.67 OFFCURVE",
"702.5 168 CURVE SMOOTH",
"736.17 243.33 OFFCURVE",
"762.33 319.33 OFFCURVE",
"781 396 CURVE",
"666 422 LINE",
"644 326 OFFCURVE",
"611.33 236.33 OFFCURVE",
"568 153 CURVE",
"440 510 LINE"
);
}
);
vertWidth = 1000;
width = 850;
}
);
note = u1B19A;
unicode = 1B19A;
},
{
glyphname = u1B19B;
layers = (
{
hints = (
{
horizontal = 1;
place = "{193, 159}";
type = Stem;
},
{
horizontal = 1;
place = "{447, 159}";
type = Stem;
},
{
place = "{117, 152}";
type = Stem;
},
{
place = "{621, 119}";
type = Stem;
},
{
place = "{126, 152}";
type = Stem;
}
);
layerId = "41DC85D1-EFC7-4239-A657-2B8BDE01F0BA";
paths = (
{
closed = 1;
nodes = (
"213.18 193.29 OFFCURVE",
"231.18 200.95 OFFCURVE",
"247 216 CURVE SMOOTH",
"261.14 230.55 OFFCURVE",
"268.47 249.21 OFFCURVE",
"269 272 CURVE SMOOTH",
"268.75 294.78 OFFCURVE",
"261.42 313.78 OFFCURVE",
"247 329 CURVE SMOOTH",
"231.85 343.78 OFFCURVE",
"213.85 351.45 OFFCURVE",
"193 352 CURVE SMOOTH",
"172.82 351.71 OFFCURVE",
"154.82 344.05 OFFCURVE",
"139 329 CURVE SMOOTH",
"124.85 314.45 OFFCURVE",
"117.52 295.45 OFFCURVE",
"117 272 CURVE SMOOTH",
"117.25 249.86 OFFCURVE",
"124.59 231.19 OFFCURVE",
"139 216 CURVE SMOOTH",
"154.15 201.22 OFFCURVE",
"172.15 193.55 OFFCURVE",
"193 193 CURVE SMOOTH"
);
},
{
closed = 1;
nodes = (
"222.18 447.29 OFFCURVE",
"240.18 454.95 OFFCURVE",
"256 470 CURVE SMOOTH",
"270.14 484.51 OFFCURVE",
"277.47 503.18 OFFCURVE",
"278 526 CURVE SMOOTH",
"277.76 549.14 OFFCURVE",
"270.76 568.47 OFFCURVE",
"257 584 CURVE SMOOTH",
"242.49 598.13 OFFCURVE",
"224.16 605.46 OFFCURVE",
"202 606 CURVE SMOOTH",
"181.82 605.71 OFFCURVE",
"163.82 598.05 OFFCURVE",
"148 583 CURVE SMOOTH",
"133.85 568.45 OFFCURVE",
"126.52 549.45 OFFCURVE",
"126 526 CURVE SMOOTH",
"126.25 503.86 OFFCURVE",
"133.59 485.19 OFFCURVE",
"148 470 CURVE SMOOTH",
"163.15 455.22 OFFCURVE",
"181.15 447.55 OFFCURVE",
"202 447 CURVE SMOOTH"
);
},
{
closed = 1;
nodes = (
"282 802 LINE",
"616 -120 LINE",
"730 -78 LINE",
"395 844 LINE"
);
},
{
closed = 1;
nodes = (
"576 313 LINE",
"660.27 486.89 OFFCURVE",
"714.94 713.56 OFFCURVE",
"740 993 CURVE",
"621 1000 LINE",
"601.09 786.77 OFFCURVE",
"566.43 612.77 OFFCURVE",
"517 478 CURVE"
);
},
{
closed = 1;
nodes = (
"455 364 LINE",
"390.4 243.05 OFFCURVE",
"301.73 128.05 OFFCURVE",
"189 19 CURVE",
"273 -69 LINE",
"370.05 24.18 OFFCURVE",
"449.05 119.51 OFFCURVE",
"510 217 CURVE"
);
}
);
vertWidth = 1000;
width = 850;
}
);
note = u1B19B;
unicode = 1B19B;
},
{
glyphname = u1B19C;
layers = (
{
hints = (
{
place = "{202, 122}";
type = Stem;
},
{
place = "{519, 120}";
type = Stem;
},
{
place = "{529, 117}";
type = Stem;
}
);
layerId = "41DC85D1-EFC7-4239-A657-2B8BDE01F0BA";
paths = (
{
closed = 1;
nodes = (
"454 384 LINE",
"560 535.33 OFFCURVE",
"621.67 738.67 OFFCURVE",
"639 994 CURVE",
"519 1000 LINE",
"503.67 772 OFFCURVE",
"457.33 596.33 OFFCURVE",
"380 473 CURVE",
"454 474 LINE",
"309 880 LINE",
"196 839 LINE",
"357 399 LINE"
);
},
{
closed = 1;
nodes = (
"223 -120 LINE",
"257.67 -66.67 OFFCURVE",
"283.17 -19.17 OFFCURVE",
"299.5 22.5 CURVE SMOOTH",
"315.83 64.17 OFFCURVE",
"324 107 OFFCURVE",
"324 151 CURVE SMOOTH",
"324 209.67 OFFCURVE",
"316 263 OFFCURVE",
"300 311 CURVE SMOOTH",
"284 359 OFFCURVE",
"257 409.33 OFFCURVE",
"219 462 CURVE",
"118 397 LINE",
"148 355.67 OFFCURVE",
"169.5 316.5 OFFCURVE",
"182.5 279.5 CURVE SMOOTH",
"195.5 242.5 OFFCURVE",
"202 201.67 OFFCURVE",
"202 157 CURVE SMOOTH",
"202 89 OFFCURVE",
"174.67 17 OFFCURVE",
"120 -59 CURVE"
);
},
{
closed = 1;
nodes = (
"529 151.33 OFFCURVE",
"537.33 102.67 OFFCURVE",
"554 58 CURVE SMOOTH",
"570.67 13.33 OFFCURVE",
"597.33 -34.67 OFFCURVE",
"634 -86 CURVE",
"733 -20 LINE",
"702.33 20 OFFCURVE",
"680.17 57.33 OFFCURVE",
"666.5 92 CURVE SMOOTH",
"652.83 126.67 OFFCURVE",
"646 164 OFFCURVE",
"646 204 CURVE SMOOTH",
"646 240.67 OFFCURVE",
"653.33 276.5 OFFCURVE",
"668 311.5 CURVE SMOOTH",
"682.67 346.5 OFFCURVE",
"706 386.33 OFFCURVE",
"738 431 CURVE",
"638 499 LINE",
"600 446.33 OFFCURVE",
"572.33 397.17 OFFCURVE",
"555 351.5 CURVE SMOOTH",
"537.67 305.83 OFFCURVE",
"529 256.67 OFFCURVE",
"529 204 CURVE SMOOTH"
);
}
);
vertWidth = 1000;
width = 850;
}
);
note = u1B19C;
unicode = 1B19C;
},
{
glyphname = u1B19D;
layers = (
{
hints = (
{
place = "{345, 119}";
type = Stem;
}
);
layerId = "41DC85D1-EFC7-4239-A657-2B8BDE01F0BA";
paths = (
{
closed = 1;
nodes = (
"125 251 LINE",
"245.67 353.67 OFFCURVE",
"331.5 462.17 OFFCURVE",
"382.5 576.5 CURVE SMOOTH",
"433.5 690.83 OFFCURVE",
"460.67 830.67 OFFCURVE",
"464 996 CURVE",
"345 1000 LINE",
"339.67 851.33 OFFCURVE",
"315.17 728.17 OFFCURVE",
"271.5 630.5 CURVE SMOOTH",
"227.83 532.83 OFFCURVE",
"152.67 436.33 OFFCURVE",
"46 341 CURVE"
);
},
{
closed = 1;
nodes = (
"347 676 LINE",
"418.33 616.67 OFFCURVE",
"480.33 557.33 OFFCURVE",
"533 498 CURVE SMOOTH",
"585.67 438.67 OFFCURVE",
"646.33 360 OFFCURVE",
"715 262 CURVE",
"812 331 LINE",
"746.67 425.67 OFFCURVE",
"685.67 504.67 OFFCURVE",
"629 568 CURVE SMOOTH",
"572.33 631.33 OFFCURVE",
"503.67 697.33 OFFCURVE",
"423 766 CURVE"
);
},
{
closed = 1;
nodes = (
"200 399 LINE",
"272 337 OFFCURVE",
"339.83 262 OFFCURVE",
"403.5 174 CURVE SMOOTH",
"467.17 86 OFFCURVE",
"519.33 -4 OFFCURVE",
"560 -96 CURVE",
"669 -39 LINE",
"579.67 157.67 OFFCURVE",
"446.67 338 OFFCURVE",
"270 502 CURVE"
);
},
{
closed = 1;
nodes = (
"509 209 LINE",
"557.67 291 OFFCURVE",
"594.67 381 OFFCURVE",
"620 479 CURVE",
"525 586 LINE",
"507.67 491.33 OFFCURVE",
"475 400.33 OFFCURVE",
"427 313 CURVE"
);
},
{
closed = 1;
nodes = (
"377 242 LINE",
"312.33 145.33 OFFCURVE",
"227.67 57.33 OFFCURVE",
"123 -22 CURVE",
"195 -118 LINE",
"299 -41.33 OFFCURVE",
"385 43.33 OFFCURVE",
"453 136 CURVE"
);
}
);
vertWidth = 1000;
width = 850;
}
);
note = u1B19D;
unicode = 1B19D;
},
{
glyphname = u1B19E;
layers = (
{
hints = (
{
place = "{530, 116}";
type = Stem;
}
);
layerId = "41DC85D1-EFC7-4239-A657-2B8BDE01F0BA";
paths = (
{
closed = 1;
nodes = (
"159 295 LINE",
"432.96 479.65 OFFCURVE",
"595.29 707.98 OFFCURVE",
"646 980 CURVE",
"530 1000 LINE",
"479.82 755.79 OFFCURVE",
"333.15 552.79 OFFCURVE",
"90 391 CURVE"
);
},
{
closed = 1;
nodes = (
"243 66 LINE",
"298.19 104.88 OFFCURVE",
"345.86 141.88 OFFCURVE",
"386 177 CURVE",
"389 335 LINE",
"323.73 272.98 OFFCURVE",
"253.4 215.64 OFFCURVE",
"178 163 CURVE"
);
},
{
closed = 1;
nodes = (
"415 -120 LINE",
"544.61 -14.37 OFFCURVE",
"648.61 92.3 OFFCURVE",
"727 200 CURVE",
"632 269 LINE",
"573.82 189.14 OFFCURVE",
"504.49 110.81 OFFCURVE",
"424 34 CURVE",
"458 15 LINE",
"477.2 127.45 OFFCURVE",
"486.87 224.11 OFFCURVE",
"487 305 CURVE SMOOTH",
"485.89 392.69 OFFCURVE",
"477.22 500.69 OFFCURVE",
"461 629 CURVE",
"354 514 LINE",
"374.83 315.77 OFFCURVE",
"367.83 119.1 OFFCURVE",
"333 -76 CURVE"
);
},
{
closed = 1;
nodes = (
"465 234 LINE",
"555.02 322.09 OFFCURVE",
"632.35 410.76 OFFCURVE",
"697 500 CURVE",
"602 568 LINE",
"560 509 OFFCURVE",
"513 451 OFFCURVE",
"461 394 CURVE"
);
}
);
vertWidth = 1000;
width = 850;
}
);
note = u1B19E;
unicode = 1B19E;
},
{
glyphname = u1B19F;
layers = (
{
hints = (
{
place = "{130, 117}";
type = Stem;
},
{
place = "{577, 120}";
type = Stem;
},
{
place = "{593, 118}";
type = Stem;
}
);
layerId = "41DC85D1-EFC7-4239-A657-2B8BDE01F0BA";
paths = (
{
closed = 1;
nodes = (
"790 -44 LINE",
"749.57 38.61 OFFCURVE",
"697.91 118.61 OFFCURVE",
"635 196 CURVE",
"676.01 270.38 OFFCURVE",
"696.67 353.71 OFFCURVE",
"697 446 CURVE SMOOTH",
"696.88 534.37 OFFCURVE",
"678.21 632.7 OFFCURVE",
"641 741 CURVE",
"668.22 811.14 OFFCURVE",
"691.55 888.47 OFFCURVE",
"711 973 CURVE",
"593 1000 LINE",
"538.71 759.55 OFFCURVE",
"434.38 552.89 OFFCURVE",
"280 380 CURVE",
"280 378 LINE",
"354.16 313.53 OFFCURVE",
"420.83 249.2 OFFCURVE",
"480 185 CURVE",
"419.42 114.41 OFFCURVE",
"333.09 46.75 OFFCURVE",
"221 -18 CURVE",
"278 -120 LINE",
"395.8 -58 OFFCURVE",
"489.8 13 OFFCURVE",
"560 93 CURVE",
"612.72 26.5 OFFCURVE",
"655.38 -39.17 OFFCURVE",
"688 -104 CURVE"
);
},
{
closed = 1;
nodes = (
"489.07 450.81 OFFCURVE",
"529.4 513.15 OFFCURVE",
"564 575 CURVE",
"572.53 532.04 OFFCURVE",
"576.86 489.71 OFFCURVE",
"577 448 CURVE SMOOTH",
"576.89 389.96 OFFCURVE",
"567.55 337.63 OFFCURVE",
"549 291 CURVE",
"511.29 328.67 OFFCURVE",
"475.96 361 OFFCURVE",
"443 388 CURVE"
);
},
{
closed = 1;
nodes = (
"63 485 LINE",
"107.24 416.84 OFFCURVE",
"129.57 347.5 OFFCURVE",
"130 277 CURVE SMOOTH",
"129.81 216.92 OFFCURVE",
"110.81 150.25 OFFCURVE",
"73 77 CURVE",
"177 33 LINE",
"223.28 111.14 OFFCURVE",
"246.61 192.14 OFFCURVE",
"247 276 CURVE SMOOTH",
"246.79 373.02 OFFCURVE",
"218.45 461.02 OFFCURVE",
"162 540 CURVE"
);
}
);
vertWidth = 1000;
width = 850;
}
);
note = u1B19F;
unicode = 1B19F;
},
{
glyphname = u1B1A0;
layers = (
{
hints = (
{
place = "{372, 118}";
type = Stem;
},
{
place = "{662, 118}";
type = Stem;
}
);
layerId = "41DC85D1-EFC7-4239-A657-2B8BDE01F0BA";
paths = (
{
closed = 1;
nodes = (
"483 -120 LINE",
"487.62 -63.29 OFFCURVE",
"489.95 2.04 OFFCURVE",
"490 76 CURVE SMOOTH",
"489.87 383.77 OFFCURVE",
"439.21 648.77 OFFCURVE",
"338 871 CURVE",
"236 856 LINE",
"183.11 679.55 OFFCURVE",
"122.45 518.22 OFFCURVE",
"54 372 CURVE",
"170 322 LINE",
"237.27 485.75 OFFCURVE",
"291.93 642.08 OFFCURVE",
"334 791 CURVE",
"255 794 LINE",
"332.78 598.18 OFFCURVE",
"371.78 366.85 OFFCURVE",
"372 100 CURVE SMOOTH",
"371.97 29.66 OFFCURVE",
"368.97 -41.67 OFFCURVE",
"363 -114 CURVE"
);
},
{
closed = 1;
nodes = (
"471 216 LINE",
"538.86 462.71 OFFCURVE",
"589.2 654.71 OFFCURVE",
"622 792 CURVE",
"592 794 LINE",
"630.36 624.59 OFFCURVE",
"653.7 472.92 OFFCURVE",
"662 339 CURVE",
"780 350 LINE",
"763.91 572.06 OFFCURVE",
"718.91 788.73 OFFCURVE",
"645 1000 CURVE",
"540 989 LINE",
"511.54 843.14 OFFCURVE",
"470.21 660.14 OFFCURVE",
"416 440 CURVE"
);
}
);
vertWidth = 1000;
width = 850;
}
);
note = u1B1A0;
unicode = 1B1A0;
},
{
glyphname = u1B1A1;
layers = (
{
hints = (
{
horizontal = 1;
place = "{538, 169}";
type = Stem;
},
{
place = "{153, 160}";
type = Stem;
},
{
place = "{507, 123}";
type = Stem;
}
);
layerId = "41DC85D1-EFC7-4239-A657-2B8BDE01F0BA";
paths = (
{
closed = 1;
nodes = (
"172 -23 LINE",
"316 118.33 OFFCURVE",
"422.33 266.33 OFFCURVE",
"491 421 CURVE SMOOTH",
"559.67 575.67 OFFCURVE",
"606 765 OFFCURVE",
"630 989 CURVE",
"507 1000 LINE",
"486.33 791.33 OFFCURVE",
"444.5 615.67 OFFCURVE",
"381.5 473 CURVE SMOOTH",
"318.5 330.33 OFFCURVE",
"219 193 OFFCURVE",
"83 61 CURVE"
);
},
{
closed = 1;
nodes = (
"534 -120 LINE",
"578 -73.33 OFFCURVE",
"622.5 -14.33 OFFCURVE",
"667.5 57 CURVE SMOOTH",
"712.5 128.33 OFFCURVE",
"748.33 194.67 OFFCURVE",
"775 256 CURVE",
"666 308 LINE",
"616 194.67 OFFCURVE",
"553 90.33 OFFCURVE",
"477 -5 CURVE",
"550 -10 LINE",
"429 322 LINE",
"341 193 LINE",
"451 -111 LINE"
);
},
{
closed = 1;
nodes = (
"153 598.67 OFFCURVE",
"160.67 578.83 OFFCURVE",
"176 562.5 CURVE SMOOTH",
"191.33 546.17 OFFCURVE",
"210.33 538 OFFCURVE",
"233 538 CURVE SMOOTH",
"256.33 538 OFFCURVE",
"275.5 545.83 OFFCURVE",
"290.5 561.5 CURVE SMOOTH",
"305.5 577.17 OFFCURVE",
"313 597.33 OFFCURVE",
"313 622 CURVE SMOOTH",
"313 646.67 OFFCURVE",
"305.5 667 OFFCURVE",
"290.5 683 CURVE SMOOTH",
"275.5 699 OFFCURVE",
"256.33 707 OFFCURVE",
"233 707 CURVE SMOOTH",
"210.33 707 OFFCURVE",
"191.33 698.83 OFFCURVE",
"176 682.5 CURVE SMOOTH",
"160.67 666.17 OFFCURVE",
"153 646 OFFCURVE",
"153 622 CURVE SMOOTH"
);
}
);
vertWidth = 1000;
width = 850;
}
);
note = u1B1A1;
unicode = 1B1A1;
},
{
glyphname = u1B1A2;
layers = (
{
hints = (
{
place = "{470, 120}";
type = Stem;
}
);
layerId = "41DC85D1-EFC7-4239-A657-2B8BDE01F0BA";
paths = (
{
closed = 1;
nodes = (
"474 -120 LINE",
"541.33 -22.67 OFFCURVE",
"600.67 82.5 OFFCURVE",
"652 195.5 CURVE SMOOTH",
"703.33 308.5 OFFCURVE",
"743.33 417 OFFCURVE",
"772 521 CURVE",
"657 550 LINE",
"593.67 337.33 OFFCURVE",
"512.33 157 OFFCURVE",
"413 9 CURVE",
"494 -20 LINE",
"174 434 LINE",
"75 366 LINE",
"412 -115 LINE"
);
},
{
closed = 1;
nodes = (
"556 123 LINE",
"630 229 LINE",
"251 768 LINE",
"152 700 LINE"
);
},
{
closed = 1;
nodes = (
"471 423 LINE",
"541.67 614.33 OFFCURVE",
"581.33 804.67 OFFCURVE",
"590 994 CURVE",
"470 1000 LINE",
"460.67 840 OFFCURVE",
"431.67 686.67 OFFCURVE",
"383 540 CURVE"
);
},
{
closed = 1;
nodes = (
"348 465 LINE",
"318.67 388.33 OFFCURVE",
"285.67 318.67 OFFCURVE",
"249 256 CURVE",
"331 151 LINE",
"364.33 207.67 OFFCURVE",
"398.33 274.67 OFFCURVE",
"433 352 CURVE"
);
}
);
vertWidth = 1000;
width = 850;
}
);
note = u1B1A2;
unicode = 1B1A2;
},
{
glyphname = u1B1A3;
layers = (
{
hints = (
{
horizontal = 1;
place = "{189, 112}";
type = Stem;
},
{
place = "{468, 127}";
type = Stem;
}
);
layerId = "41DC85D1-EFC7-4239-A657-2B8BDE01F0BA";
paths = (
{
closed = 1;
nodes = (
"461 577 LINE",
"383.19 531.13 OFFCURVE",
"291.86 486.46 OFFCURVE",
"187 443 CURVE",
"231 335 LINE",
"332.74 374.73 OFFCURVE",
"423.41 417.06 OFFCURVE",
"503 462 CURVE"
);
},
{
closed = 1;
nodes = (
"168 533 LINE",
"403.5 626.86 OFFCURVE",
"575.84 763.52 OFFCURVE",
"685 943 CURVE",
"581 1002 LINE",
"484.87 850.64 OFFCURVE",
"331.54 730.97 OFFCURVE",
"121 643 CURVE"
);
},
{
closed = 1;
nodes = (
"195 185 LINE",
"271.46 171.74 OFFCURVE",
"337.71 151.69 OFFCURVE",
"393.76 124.85 CURVE SMOOTH",
"497.86 74.54 OFFCURVE",
"573.6 -7.08 OFFCURVE",
"621 -120 CURVE",
"727 -77 LINE",
"721.42 -61.61 OFFCURVE",
"715.31 -46.37 OFFCURVE",
"708.68 -31.28 CURVE SMOOTH",
"623.38 161.24 OFFCURVE",
"459.82 271.34 OFFCURVE",
"218 299 CURVE"
);
},
{
closed = 1;
nodes = (
"520 139 LINE",
"562.95 203.3 OFFCURVE",
"584.62 277.97 OFFCURVE",
"585 363 CURVE SMOOTH",
"584.72 507.31 OFFCURVE",
"526.38 643.98 OFFCURVE",
"410 773 CURVE",
"325 667 LINE",
"413.77 559.95 OFFCURVE",
"458.44 454.95 OFFCURVE",
"459 352 CURVE SMOOTH",
"458.82 306.64 OFFCURVE",
"447.15 262.97 OFFCURVE",
"424 221 CURVE"
);
},
{
closed = 1;
nodes = (
"384 165 LINE",
"322 98 OFFCURVE",
"237 40 OFFCURVE",
"129 -9 CURVE",
"187 -120 LINE",
"313.4 -63.65 OFFCURVE",
"413.07 6.68 OFFCURVE",
"486 91 CURVE"
);
},
{
closed = 1;
nodes = (
"503 457 LINE",
"597.54 511.54 OFFCURVE",
"681.87 571.54 OFFCURVE",
"756 637 CURVE",
"680 731 LINE",
"607.16 669.07 OFFCURVE",
"534.16 616.07 OFFCURVE",
"461 572 CURVE"
);
}
);
vertWidth = 1000;
width = 850;
}
);
note = u1B1A3;
unicode = 1B1A3;
},
{
glyphname = u1B1A4;
layers = (
{
layerId = "41DC85D1-EFC7-4239-A657-2B8BDE01F0BA";
paths = (
{
closed = 1;
nodes = (
"195 -120 LINE",
"333 -40 OFFCURVE",
"466 48 OFFCURVE",
"594 144 CURVE",
"513 247 LINE",
"387.67 146.33 OFFCURVE",
"261.67 60.67 OFFCURVE",
"135 -10 CURVE"
);
},
{
closed = 1;
nodes = (
"330 565 LINE",
"424 628.33 OFFCURVE",
"502.67 688 OFFCURVE",
"566 744 CURVE SMOOTH",
"629.33 800 OFFCURVE",
"683.67 860 OFFCURVE",
"729 924 CURVE",
"626 1000 LINE",
"585.33 940.67 OFFCURVE",
"536.33 885.17 OFFCURVE",
"479 833.5 CURVE SMOOTH",
"421.67 781.83 OFFCURVE",
"351 727 OFFCURVE",
"267 669 CURVE"
);
},
{
closed = 1;
nodes = (
"473 102 LINE",
"594 144 LINE",
"388 708 LINE",
"267 669 LINE"
);
},
{
closed = 1;
nodes = (
"493 364 LINE",
"583 430.67 OFFCURVE",
"672.67 503.67 OFFCURVE",
"762 583 CURVE",
"680 681 LINE",
"633.33 635.67 OFFCURVE",
"556 572 OFFCURVE",
"448 490 CURVE"
);
},
{
closed = 1;
nodes = (
"368 438 LINE",
"256 361.33 OFFCURVE",
"159.67 300.67 OFFCURVE",
"79 256 CURVE",
"137 140 LINE",
"215.67 184 OFFCURVE",
"307 241 OFFCURVE",
"411 311 CURVE"
);
}
);
vertWidth = 1000;
width = 850;
}
);
note = u1B1A4;
unicode = 1B1A4;
},
{
glyphname = u1B1A5;
layers = (
{
hints = (
{
place = "{235, 119}";
type = Stem;
},
{
place = "{502, 118}";
type = Stem;
}
);
layerId = "41DC85D1-EFC7-4239-A657-2B8BDE01F0BA";
paths = (
{
closed = 1;
nodes = (
"286 -120 LINE",
"331.02 -19.63 OFFCURVE",
"353.69 77.04 OFFCURVE",
"354 170 CURVE SMOOTH",
"353.79 291.26 OFFCURVE",
"318.79 403.59 OFFCURVE",
"249 507 CURVE",
"246 456 LINE",
"328.01 514.49 OFFCURVE",
"399.01 585.16 OFFCURVE",
"459 668 CURVE SMOOTH",
"516.09 748.92 OFFCURVE",
"564.43 846.92 OFFCURVE",
"604 962 CURVE",
"490 1000 LINE",
"453.39 891.5 OFFCURVE",
"405.05 796.84 OFFCURVE",
"345 716 CURVE SMOOTH",
"285.95 637.2 OFFCURVE",
"210.28 566.53 OFFCURVE",
"118 504 CURVE",
"118 496 LINE",
"195.52 391.3 OFFCURVE",
"234.52 282.63 OFFCURVE",
"235 170 CURVE SMOOTH",
"234.84 94.01 OFFCURVE",
"215.17 13.01 OFFCURVE",
"176 -73 CURVE"
);
},
{
closed = 1;
nodes = (
"354 618 LINE",
"452.21 472.84 OFFCURVE",
"501.54 329.84 OFFCURVE",
"502 189 CURVE SMOOTH",
"501.9 129.11 OFFCURVE",
"492.57 66.11 OFFCURVE",
"474 0 CURVE",
"591 -24 LINE",
"610.16 55.96 OFFCURVE",
"619.83 128.96 OFFCURVE",
"620 195 CURVE SMOOTH",
"619.76 363.21 OFFCURVE",
"558.1 538.21 OFFCURVE",
"435 720 CURVE"
);
},
{
closed = 1;
nodes = (
"585 384 LINE",
"647.48 449.66 OFFCURVE",
"703.15 525.66 OFFCURVE",
"752 612 CURVE",
"647 670 LINE",
"613 610 OFFCURVE",
"577 557 OFFCURVE",
"539 511 CURVE"
);
},
{
closed = 1;
nodes = (
"469 444 LINE",
"419.42 392.5 OFFCURVE",
"363.08 343.5 OFFCURVE",
"300 297 CURVE",
"329 170 LINE",
"390 213 OFFCURVE",
"449 261 OFFCURVE",
"506 314 CURVE"
);
}
);
vertWidth = 1000;
width = 850;
}
);
note = u1B1A5;
unicode = 1B1A5;
},
{
glyphname = u1B1A6;
layers = (
{
hints = (
{
place = "{246, 119}";
type = Stem;
},
{
place = "{468, 121}";
type = Stem;
},
{
place = "{595, 114}";
type = Stem;
}
);
layerId = "41DC85D1-EFC7-4239-A657-2B8BDE01F0BA";
paths = (
{
closed = 1;
nodes = (
"589 -2 LINE",
"595.67 81.33 OFFCURVE",
"599 152.33 OFFCURVE",
"599 211 CURVE SMOOTH",
"599 326.33 OFFCURVE",
"588.83 438.33 OFFCURVE",
"568.5 547 CURVE SMOOTH",
"548.17 655.67 OFFCURVE",
"515 777.33 OFFCURVE",
"469 912 CURVE",
"353 873 LINE",
"437 625 OFFCURVE",
"479 402.33 OFFCURVE",
"479 205 CURVE SMOOTH",
"479 144.33 OFFCURVE",
"475.33 79 OFFCURVE",
"468 9 CURVE"
);
},
{
closed = 1;
nodes = (
"339 102 LINE",
"386.33 132 OFFCURVE",
"441 171.33 OFFCURVE",
"503 220 CURVE SMOOTH",
"578 277 LINE",
"646 340.33 OFFCURVE",
"712 415.67 OFFCURVE",
"776 503 CURVE",
"683 569 LINE",
"653 529 OFFCURVE",
"613.67 483 OFFCURVE",
"565 431 CURVE",
"499 374 LINE",
"451.67 327.33 OFFCURVE",
"399.33 285 OFFCURVE",
"342 247 CURVE SMOOTH",
"276 207 LINE SMOOTH",
"216.67 167.67 OFFCURVE",
"157 131.67 OFFCURVE",
"97 99 CURVE",
"145 -5 LINE",
"194.33 19 OFFCURVE",
"235.67 42.33 OFFCURVE",
"269 65 CURVE"
);
},
{
closed = 1;
nodes = (
"330 367 LINE",
"386 410.33 OFFCURVE",
"435.33 455.33 OFFCURVE",
"478 502 CURVE SMOOTH",
"541 571 LINE",
"629 691 OFFCURVE",
"685 829.67 OFFCURVE",
"709 987 CURVE",
"595 1000 LINE",
"580.33 898 OFFCURVE",
"550.33 807 OFFCURVE",
"505 727 CURVE",
"447 647 LINE SMOOTH",
"412.33 595.67 OFFCURVE",
"365.67 547 OFFCURVE",
"307 501 CURVE SMOOTH",
"247 459 LINE SMOOTH",
"201.67 423.67 OFFCURVE",
"145 385.67 OFFCURVE",
"77 345 CURVE",
"133 239 LINE",
"176.33 263.67 OFFCURVE",
"221.33 292.33 OFFCURVE",
"268 325 CURVE SMOOTH"
);
},
{
closed = 1;
nodes = (
"352 -120 LINE",
"360.67 -18 OFFCURVE",
"365 75.67 OFFCURVE",
"365 161 CURVE SMOOTH",
"365 265 OFFCURVE",
"357.5 360.67 OFFCURVE",
"342.5 448 CURVE SMOOTH",
"327.5 535.33 OFFCURVE",
"302.67 631.33 OFFCURVE",
"268 736 CURVE",
"152 699 LINE",
"214.67 505 OFFCURVE",
"246 321.33 OFFCURVE",
"246 148 CURVE SMOOTH",
"246 70.67 OFFCURVE",
"241 -14.67 OFFCURVE",
"231 -108 CURVE"
);
}
);
vertWidth = 1000;
width = 850;
}
);
note = u1B1A6;
unicode = 1B1A6;
},
{
glyphname = u1B1A7;
layers = (
{
hints = (
{
place = "{520, 118}";
type = Stem;
}
);
layerId = "41DC85D1-EFC7-4239-A657-2B8BDE01F0BA";
paths = (
{
closed = 1;
nodes = (
"185 330 LINE",
"309 422.67 OFFCURVE",
"407.5 521 OFFCURVE",
"480.5 625 CURVE SMOOTH",
"553.5 729 OFFCURVE",
"606 846 OFFCURVE",
"638 976 CURVE",
"520 1000 LINE",
"490.67 882.67 OFFCURVE",
"444.33 779.67 OFFCURVE",
"381 691 CURVE SMOOTH",
"317.67 602.33 OFFCURVE",
"229 514.33 OFFCURVE",
"115 427 CURVE"
);
},
{
closed = 1;
nodes = (
"260 106 LINE",
"328.67 156.67 OFFCURVE",
"393 210.67 OFFCURVE",
"453 268 CURVE",
"408 389 LINE",
"348 329.67 OFFCURVE",
"275.33 267.33 OFFCURVE",
"190 202 CURVE"
);
},
{
closed = 1;
nodes = (
"336 -120 LINE",
"408 -67.33 OFFCURVE",
"481.83 -5.5 OFFCURVE",
"557.5 65.5 CURVE SMOOTH",
"633.17 136.5 OFFCURVE",
"694.33 200.67 OFFCURVE",
"741 258 CURVE",
"653 336 LINE",
"609 281.33 OFFCURVE",
"550.33 220 OFFCURVE",
"477 152 CURVE SMOOTH",
"403.67 84 OFFCURVE",
"334 25.33 OFFCURVE",
"268 -24 CURVE"
);
},
{
closed = 1;
nodes = (
"459 71 LINE",
"557 163 LINE",
"405 586 LINE",
"302 503 LINE"
);
},
{
closed = 1;
nodes = (
"453 266 LINE",
"534.33 342.67 OFFCURVE",
"607.67 424.33 OFFCURVE",
"673 511 CURVE",
"576 580 LINE",
"520 506.67 OFFCURVE",
"464 442.33 OFFCURVE",
"408 387 CURVE"
);
}
);
vertWidth = 1000;
width = 850;
}
);
note = u1B1A7;
unicode = 1B1A7;
},
{
glyphname = u1B1A8;
layers = (
{
hints = (
{
place = "{135, 146}";
type = Stem;
},
{
place = "{389, 121}";
type = Stem;
},
{
place = "{591, 146}";
type = Stem;
},
{
horizontal = 1;
place = "{-41, 153}";
type = Stem;
},
{
horizontal = 1;
place = "{88, 153}";
type = Stem;
}
);
layerId = "41DC85D1-EFC7-4239-A657-2B8BDE01F0BA";
paths = (
{
closed = 1;
nodes = (
"158 364 LINE",
"424.93 517.74 OFFCURVE",
"591.27 720.07 OFFCURVE",
"657 971 CURVE",
"542 1000 LINE",
"485.66 782.17 OFFCURVE",
"337.66 604.5 OFFCURVE",
"98 467 CURVE"
);
},
{
closed = 1;
nodes = (
"228.42 -40.74 OFFCURVE",
"245.76 -33.4 OFFCURVE",
"260 -19 CURVE SMOOTH",
"274 -4 OFFCURVE",
"281 14 OFFCURVE",
"281 35 CURVE SMOOTH",
"280.77 56.41 OFFCURVE",
"274.1 75.07 OFFCURVE",
"261 91 CURVE",
"247.12 104.48 OFFCURVE",
"229.45 111.48 OFFCURVE",
"208 112 CURVE SMOOTH",
"187.58 111.74 OFFCURVE",
"170.24 104.4 OFFCURVE",
"156 90 CURVE SMOOTH",
"142.5 75.17 OFFCURVE",
"135.5 56.83 OFFCURVE",
"135 35 CURVE SMOOTH",
"135 14 OFFCURVE",
"142 -4 OFFCURVE",
"156 -19 CURVE SMOOTH",
"169.54 -33.1 OFFCURVE",
"186.88 -40.43 OFFCURVE",
"208 -41 CURVE SMOOTH"
);
},
{
closed = 1;
nodes = (
"684.42 88.26 OFFCURVE",
"701.76 95.6 OFFCURVE",
"716 110 CURVE SMOOTH",
"730 125 OFFCURVE",
"737 143 OFFCURVE",
"737 164 CURVE SMOOTH",
"736.77 185.41 OFFCURVE",
"730.1 204.07 OFFCURVE",
"717 220 CURVE",
"703.12 233.48 OFFCURVE",
"685.45 240.48 OFFCURVE",
"664 241 CURVE SMOOTH",
"643.58 240.74 OFFCURVE",
"626.24 233.4 OFFCURVE",
"612 219 CURVE SMOOTH",
"598.5 204.17 OFFCURVE",
"591.5 185.83 OFFCURVE",
"591 164 CURVE SMOOTH",
"591 143 OFFCURVE",
"598 125 OFFCURVE",
"612 110 CURVE SMOOTH",
"625.54 95.9 OFFCURVE",
"642.88 88.57 OFFCURVE",
"664 88 CURVE SMOOTH"
);
},
{
closed = 1;
nodes = (
"327 536 LINE",
"368.1 406.41 OFFCURVE",
"388.76 291.41 OFFCURVE",
"389 191 CURVE SMOOTH",
"388.86 99.01 OFFCURVE",
"369.86 8.35 OFFCURVE",
"332 -81 CURVE",
"446 -120 LINE",
"488.4 -14.17 OFFCURVE",
"509.73 91.5 OFFCURVE",
"510 197 CURVE SMOOTH",
"509.87 320.77 OFFCURVE",
"482.54 462.77 OFFCURVE",
"428 623 CURVE"
);
},
{
closed = 1;
nodes = (
"489 320 LINE",
"572.57 383.53 OFFCURVE",
"645.23 449.53 OFFCURVE",
"707 518 CURVE",
"622 600 LINE",
"581.31 553.49 OFFCURVE",
"528.97 504.15 OFFCURVE",
"465 452 CURVE"
);
},
{
closed = 1;
nodes = (
"382 389 LINE",
"324.7 349.46 OFFCURVE",
"259.03 309.46 OFFCURVE",
"185 269 CURVE",
"239 164 LINE",
"291.82 192.61 OFFCURVE",
"345.48 224.27 OFFCURVE",
"400 259 CURVE"
);
}
);
vertWidth = 1000;
width = 850;
}
);
note = u1B1A8;
unicode = 1B1A8;
},
{
glyphname = u1B1A9;
layers = (
{
layerId = "41DC85D1-EFC7-4239-A657-2B8BDE01F0BA";
paths = (
{
closed = 1;
nodes = (
"203 -120 LINE",
"350.5 -74.73 OFFCURVE",
"463.16 -19.39 OFFCURVE",
"541 46 CURVE SMOOTH",
"618.38 110.89 OFFCURVE",
"657.38 194.56 OFFCURVE",
"658 297 CURVE SMOOTH",
"657.9 341.46 OFFCURVE",
"650.56 387.79 OFFCURVE",
"636 436 CURVE",
"537 346 LINE",
"540.85 328.38 OFFCURVE",
"542.85 311.05 OFFCURVE",
"543 294 CURVE SMOOTH",
"542.82 256.32 OFFCURVE",
"533.15 220.99 OFFCURVE",
"514 188 CURVE SMOOTH",
"495 156 OFFCURVE",
"467 128 OFFCURVE",
"430 104 CURVE SMOOTH",
"394.69 81.18 OFFCURVE",
"355.69 60.85 OFFCURVE",
"313 43 CURVE SMOOTH",
"278.45 28.72 OFFCURVE",
"230.45 12.05 OFFCURVE",
"169 -7 CURVE"
);
},
{
closed = 1;
nodes = (
"320 403 LINE",
"385 225 LINE",
"486 285 LINE",
"426 449 LINE"
);
},
{
closed = 1;
nodes = (
"221 93 LINE",
"340.46 128.56 OFFCURVE",
"443.12 179.23 OFFCURVE",
"529 245 CURVE SMOOTH",
"615.23 311.62 OFFCURVE",
"684.56 390.96 OFFCURVE",
"737 483 CURVE",
"635 542 LINE",
"541.35 380.27 OFFCURVE",
"391.02 268.61 OFFCURVE",
"184 207 CURVE"
);
},
{
closed = 1;
nodes = (
"159 298 LINE",
"311.42 345.95 OFFCURVE",
"427.75 405.28 OFFCURVE",
"508 476 CURVE SMOOTH",
"587.41 546.88 OFFCURVE",
"627.41 637.54 OFFCURVE",
"628 748 CURVE SMOOTH",
"627.9 792.1 OFFCURVE",
"620.9 840.76 OFFCURVE",
"607 894 CURVE",
"508 804 LINE",
"511.23 785.45 OFFCURVE",
"512.89 766.79 OFFCURVE",
"513 748 CURVE SMOOTH",
"512.83 704.76 OFFCURVE",
"502.83 665.43 OFFCURVE",
"483 630 CURVE SMOOTH",
"463.33 595.03 OFFCURVE",
"434.33 563.69 OFFCURVE",
"396 536 CURVE SMOOTH",
"356.69 508.86 OFFCURVE",
"316.35 485.86 OFFCURVE",
"275 467 CURVE SMOOTH",
"229.58 446.98 OFFCURVE",
"179.58 428.31 OFFCURVE",
"125 411 CURVE"
);
},
{
closed = 1;
nodes = (
"172 511 LINE",
"294.91 547.83 OFFCURVE",
"400.91 604.5 OFFCURVE",
"490 681 CURVE SMOOTH",
"578 757 OFFCURVE",
"646 847 OFFCURVE",
"694 951 CURVE",
"586 1000 LINE",
"491.03 818.79 OFFCURVE",
"339.37 693.45 OFFCURVE",
"131 624 CURVE"
);
}
);
vertWidth = 1000;
width = 850;
}
);
note = u1B1A9;
unicode = 1B1A9;
},
{
glyphname = u1B1AA;
layers = (
{
hints = (
{
horizontal = 1;
place = "{238, 103}";
type = Stem;
},
{
place = "{47, 119}";
type = Stem;
},
{
place = "{234, 118}";
type = Stem;
},
{
place = "{681, 118}";
type = Stem;
},
{
place = "{547, 120}";
type = Stem;
},
{
place = "{629, 116}";
type = Stem;
}
);
layerId = "41DC85D1-EFC7-4239-A657-2B8BDE01F0BA";
paths = (
{
closed = 1;
nodes = (
"370 449 LINE",
"615.21 568.02 OFFCURVE",
"758.21 744.35 OFFCURVE",
"799 978 CURVE",
"681 1000 LINE",
"648.76 814.15 OFFCURVE",
"526.09 665.81 OFFCURVE",
"313 555 CURVE"
);
},
{
closed = 1;
nodes = (
"244 -7 OFFCURVE",
"280 9 OFFCURVE",
"309 41 CURVE SMOOTH",
"337.2 72.6 OFFCURVE",
"351.53 112.27 OFFCURVE",
"352 160 CURVE SMOOTH",
"351.79 211.14 OFFCURVE",
"337.79 254.47 OFFCURVE",
"310 290 CURVE SMOOTH",
"281.13 322.41 OFFCURVE",
"244.8 339.41 OFFCURVE",
"201 341 CURVE SMOOTH",
"158.2 340.7 OFFCURVE",
"121.53 323.7 OFFCURVE",
"91 290 CURVE SMOOTH",
"62.11 254.73 OFFCURVE",
"47.44 211.4 OFFCURVE",
"47 160 CURVE SMOOTH",
"47.25 113.55 OFFCURVE",
"61.92 73.88 OFFCURVE",
"91 41 CURVE SMOOTH",
"119.87 10.56 OFFCURVE",
"156.54 -5.44 OFFCURVE",
"201 -7 CURVE SMOOTH"
);
},
{
closed = 1;
nodes = (
"179.31 97.57 OFFCURVE",
"167.65 120.57 OFFCURVE",
"166 165 CURVE SMOOTH",
"166.33 211.39 OFFCURVE",
"178 235.72 OFFCURVE",
"201 238 CURVE",
"211.57 237.55 OFFCURVE",
"220.23 231.89 OFFCURVE",
"227 221 CURVE",
"231.52 209.22 OFFCURVE",
"233.86 190.55 OFFCURVE",
"234 165 CURVE SMOOTH",
"233.92 140.66 OFFCURVE",
"231.59 122.99 OFFCURVE",
"227 112 CURVE SMOOTH",
"222.08 103.09 OFFCURVE",
"213.42 97.76 OFFCURVE",
"201 96 CURVE"
);
},
{
closed = 1;
nodes = (
"643 -120 LINE",
"658.89 -36.24 OFFCURVE",
"666.89 57.1 OFFCURVE",
"667 160 CURVE SMOOTH",
"666.95 238.56 OFFCURVE",
"661.28 312.56 OFFCURVE",
"650 382 CURVE",
"537 313 LINE",
"543.58 270.34 OFFCURVE",
"546.91 219.34 OFFCURVE",
"547 160 CURVE SMOOTH",
"546.94 70.17 OFFCURVE",
"539.27 -15.83 OFFCURVE",
"524 -98 CURVE"
);
},
{
closed = 1;
nodes = (
"414 191 LINE",
"529 241 OFFCURVE",
"613 297 OFFCURVE",
"666 359 CURVE SMOOTH",
"718.18 419.6 OFFCURVE",
"744.52 491.26 OFFCURVE",
"745 574 CURVE SMOOTH",
"744.9 625.2 OFFCURVE",
"735.23 689.54 OFFCURVE",
"716 767 CURVE",
"611 710 LINE",
"622.82 661.42 OFFCURVE",
"628.82 616.09 OFFCURVE",
"629 574 CURVE SMOOTH",
"628.71 518.78 OFFCURVE",
"607.71 469.45 OFFCURVE",
"566 426 CURVE SMOOTH",
"522.55 381.77 OFFCURVE",
"456.22 339.44 OFFCURVE",
"367 299 CURVE"
);
}
);
vertWidth = 1000;
width = 850;
}
);
note = u1B1AA;
unicode = 1B1AA;
},
{
glyphname = u1B1AB;
layers = (
{
hints = (
{
place = "{165, 116}";
type = Stem;
},
{
place = "{616, 114}";
type = Stem;
}
);
layerId = "41DC85D1-EFC7-4239-A657-2B8BDE01F0BA";
paths = (
{
closed = 1;
nodes = (
"224 -120 LINE",
"262 -3.33 OFFCURVE",
"281 111 OFFCURVE",
"281 223 CURVE SMOOTH",
"281 337 OFFCURVE",
"265 450.67 OFFCURVE",
"233 564 CURVE",
"120 538 LINE",
"150 432.67 OFFCURVE",
"165 328.67 OFFCURVE",
"165 226 CURVE SMOOTH",
"165 131.33 OFFCURVE",
"148.33 24.67 OFFCURVE",
"115 -94 CURVE"
);
},
{
closed = 1;
nodes = (
"689 87 LINE",
"635.67 261 OFFCURVE",
"564 411 OFFCURVE",
"474 537 CURVE",
"437 393 LINE",
"495 295.67 OFFCURVE",
"542.67 183.33 OFFCURVE",
"580 56 CURVE"
);
},
{
closed = 1;
nodes = (
"349 979 LINE",
"371 828.33 OFFCURVE",
"382 694 OFFCURVE",
"382 576 CURVE SMOOTH",
"382 391.33 OFFCURVE",
"353.33 215.33 OFFCURVE",
"296 48 CURVE",
"407 17 LINE",
"466.33 195 OFFCURVE",
"496 387 OFFCURVE",
"496 593 CURVE SMOOTH",
"496 716.33 OFFCURVE",
"485 852 OFFCURVE",
"463 1000 CURVE"
);
},
{
closed = 1;
nodes = (
"482 662 LINE",
"532 704.67 OFFCURVE",
"582 753.33 OFFCURVE",
"632 808 CURVE",
"587 837 LINE",
"606.33 728.33 OFFCURVE",
"616 631.33 OFFCURVE",
"616 546 CURVE SMOOTH",
"616 488 OFFCURVE",
"612.33 416.67 OFFCURVE",
"605 332 CURVE",
"719 320 LINE",
"726.33 386 OFFCURVE",
"730 454.67 OFFCURVE",
"730 526 CURVE SMOOTH",
"730 653.33 OFFCURVE",
"713.67 791.67 OFFCURVE",
"681 941 CURVE",
"605 956 LINE",
"567.67 910 OFFCURVE",
"523.67 862 OFFCURVE",
"473 812 CURVE"
);
},
{
closed = 1;
nodes = (
"390 740 LINE",
"294 654.67 OFFCURVE",
"204 587.33 OFFCURVE",
"120 538 CURVE",
"173 436 LINE",
"238.33 474 OFFCURVE",
"312.33 526.67 OFFCURVE",
"395 594 CURVE"
);
}
);
vertWidth = 1000;
width = 850;
}
);
note = u1B1AB;
unicode = 1B1AB;
},
{
glyphname = u1B1AC;
layers = (
{
hints = (
{
horizontal = 1;
place = "{0, 21}";
target = up;
type = BottomGhost;
},
{
place = "{582, 118}";
type = Stem;
}
);
layerId = "41DC85D1-EFC7-4239-A657-2B8BDE01F0BA";
paths = (
{
closed = 1;
nodes = (
"784 24 LINE",
"746.96 110.2 OFFCURVE",
"700.63 190.53 OFFCURVE",
"645 265 CURVE",
"681.37 336.14 OFFCURVE",
"699.7 418.48 OFFCURVE",
"700 512 CURVE SMOOTH",
"699.88 611.4 OFFCURVE",
"682.21 709.73 OFFCURVE",
"647 807 CURVE",
"665.8 862.48 OFFCURVE",
"681.47 918.48 OFFCURVE",
"694 975 CURVE",
"578 1000 LINE",
"553.66 895.27 OFFCURVE",
"518.33 798.93 OFFCURVE",
"472 711 CURVE SMOOTH",
"426.49 627.16 OFFCURVE",
"366.82 547.16 OFFCURVE",
"293 471 CURVE",
"293 461 LINE",
"363.81 403.63 OFFCURVE",
"432.15 334.97 OFFCURVE",
"498 255 CURVE",
"460.73 201.9 OFFCURVE",
"410.39 151.9 OFFCURVE",
"347 105 CURVE",
"323 134 LINE",
"345.65 181.29 OFFCURVE",
"368.98 239.29 OFFCURVE",
"393 308 CURVE",
"290 343 LINE",
"273.98 298.59 OFFCURVE",
"257.31 257.26 OFFCURVE",
"240 219 CURVE",
"202.56 253.17 OFFCURVE",
"166.23 282.84 OFFCURVE",
"131 308 CURVE",
"62 222 LINE",
"106.41 188.09 OFFCURVE",
"147.75 152.09 OFFCURVE",
"186 114 CURVE",
"148.41 51.79 OFFCURVE",
"110.75 -2.87 OFFCURVE",
"73 -50 CURVE",
"157 -120 LINE",
"194.53 -78.49 OFFCURVE",
"230.53 -29.15 OFFCURVE",
"265 28 CURVE",
"306.43 -21.6 OFFCURVE",
"340.76 -69.6 OFFCURVE",
"368 -116 CURVE",
"458 -52 LINE",
"446 -31 OFFCURVE",
"433 -11 OFFCURVE",
"419 8 CURVE",
"481.84 54.76 OFFCURVE",
"533.5 104.09 OFFCURVE",
"574 156 CURVE",
"616 94 OFFCURVE",
"651 33 OFFCURVE",
"679 -27 CURVE"
);
},
{
closed = 1;
nodes = (
"577.19 588.78 OFFCURVE",
"581.86 547.12 OFFCURVE",
"582 509 CURVE SMOOTH",
"581.9 457.19 OFFCURVE",
"574.57 410.53 OFFCURVE",
"560 369 CURVE",
"525.41 406.67 OFFCURVE",
"489.74 442 OFFCURVE",
"453 475 CURVE",
"494.72 521.7 OFFCURVE",
"533.05 574.7 OFFCURVE",
"568 634 CURVE"
);
}
);
vertWidth = 1000;
width = 850;
}
);
note = u1B1AC;
unicode = 1B1AC;
},
{
glyphname = u1B1AD;
layers = (
{
hints = (
{
place = "{357, 115}";
type = Stem;
}
);
layerId = "41DC85D1-EFC7-4239-A657-2B8BDE01F0BA";
paths = (
{
closed = 1;
nodes = (
"124 400 LINE",
"230.67 481.33 OFFCURVE",
"312 569.83 OFFCURVE",
"368 665.5 CURVE SMOOTH",
"424 761.17 OFFCURVE",
"458.67 869.67 OFFCURVE",
"472 991 CURVE",
"357 1000 LINE",
"347 900.67 OFFCURVE",
"317.5 809.83 OFFCURVE",
"268.5 727.5 CURVE SMOOTH",
"219.5 645.17 OFFCURVE",
"148.33 566.67 OFFCURVE",
"55 492 CURVE"
);
},
{
closed = 1;
nodes = (
"254 -120 LINE",
"326.67 -75.33 OFFCURVE",
"400.5 -19 OFFCURVE",
"475.5 49 CURVE SMOOTH",
"550.5 117 OFFCURVE",
"618.33 188.67 OFFCURVE",
"679 264 CURVE",
"592 329 LINE",
"543.33 268.33 OFFCURVE",
"481.67 204.5 OFFCURVE",
"407 137.5 CURVE SMOOTH",
"332.33 70.5 OFFCURVE",
"261.67 15.33 OFFCURVE",
"195 -28 CURVE"
);
},
{
closed = 1;
nodes = (
"296 116 LINE",
"410.67 200.67 OFFCURVE",
"507.33 297.33 OFFCURVE",
"586 406 CURVE",
"500 470 LINE",
"429.33 373.33 OFFCURVE",
"339.67 283.67 OFFCURVE",
"231 201 CURVE"
);
},
{
closed = 1;
nodes = (
"255 288 LINE",
"371.67 378.67 OFFCURVE",
"460 474 OFFCURVE",
"520 574 CURVE",
"431 633 LINE",
"407.67 592.33 OFFCURVE",
"374.33 548.5 OFFCURVE",
"331 501.5 CURVE SMOOTH",
"287.67 454.5 OFFCURVE",
"240 410.67 OFFCURVE",
"188 370 CURVE"
);
},
{
closed = 1;
nodes = (
"377 780 LINE",
"483.67 688.67 OFFCURVE",
"590 565.67 OFFCURVE",
"696 411 CURVE",
"795 481 LINE",
"691.67 625 OFFCURVE",
"574.33 754 OFFCURVE",
"443 868 CURVE"
);
}
);
vertWidth = 1000;
width = 850;
}
);
note = u1B1AD;
unicode = 1B1AD;
},
{
glyphname = u1B1AE;
layers = (
{
hints = (
{
place = "{400, 120}";
type = Stem;
}
);
layerId = "41DC85D1-EFC7-4239-A657-2B8BDE01F0BA";
paths = (
{
closed = 1;
nodes = (
"265 371 LINE",
"409 537.67 OFFCURVE",
"494 743.67 OFFCURVE",
"520 989 CURVE",
"400 1000 LINE",
"381.33 802 OFFCURVE",
"320.67 636 OFFCURVE",
"218 502 CURVE",
"260 487 LINE",
"162 758 LINE",
"51 719 LINE",
"175 390 LINE"
);
},
{
closed = 1;
nodes = (
"339 -120 LINE",
"396.33 -62.67 OFFCURVE",
"454.17 3.67 OFFCURVE",
"512.5 79 CURVE SMOOTH",
"570.83 154.33 OFFCURVE",
"621 228.33 OFFCURVE",
"663 301 CURVE",
"559 356 LINE",
"523 292.67 OFFCURVE",
"477.17 225.5 OFFCURVE",
"421.5 154.5 CURVE SMOOTH",
"365.83 83.5 OFFCURVE",
"309 18.33 OFFCURVE",
"251 -41 CURVE"
);
},
{
closed = 1;
nodes = (
"307 130 LINE",
"411.67 238.67 OFFCURVE",
"496.67 358 OFFCURVE",
"562 488 CURVE",
"454 538 LINE",
"395.33 419.33 OFFCURVE",
"316.33 309 OFFCURVE",
"217 207 CURVE"
);
},
{
closed = 1;
nodes = (
"413 723 LINE",
"504.33 638.33 OFFCURVE",
"600 523 OFFCURVE",
"700 377 CURVE",
"800 442 LINE",
"701.33 590.67 OFFCURVE",
"587.33 722.33 OFFCURVE",
"458 837 CURVE"
);
}
);
vertWidth = 1000;
width = 850;
}
);
note = u1B1AE;
unicode = 1B1AE;
},
{
glyphname = u1B1AF;
layers = (
{
hints = (
{
horizontal = 1;
place = "{222, 157}";
type = Stem;
},
{
horizontal = 1;
place = "{709, 157}";
type = Stem;
},
{
place = "{76, 150}";
type = Stem;
},
{
place = "{391, 150}";
type = Stem;
},
{
place = "{639, 118}";
type = Stem;
}
);
layerId = "41DC85D1-EFC7-4239-A657-2B8BDE01F0BA";
paths = (
{
closed = 1;
nodes = (
"391 237 LINE",
"475.8 304.19 OFFCURVE",
"543.8 371.86 OFFCURVE",
"595 440 CURVE SMOOTH",
"644.41 507.78 OFFCURVE",
"682.08 585.11 OFFCURVE",
"708 672 CURVE SMOOTH",
"733.67 761.63 OFFCURVE",
"750 869.3 OFFCURVE",
"757 995 CURVE",
"639 1000 LINE",
"630.97 847.16 OFFCURVE",
"609.31 727.49 OFFCURVE",
"574 641 CURVE SMOOTH",
"539 555 OFFCURVE",
"478 472 OFFCURVE",
"391 392 CURVE"
);
},
{
closed = 1;
nodes = (
"171.18 222.29 OFFCURVE",
"189.18 229.95 OFFCURVE",
"205 245 CURVE SMOOTH",
"218.5 259.83 OFFCURVE",
"225.5 278.17 OFFCURVE",
"226 300 CURVE SMOOTH",
"226 323 OFFCURVE",
"219 342 OFFCURVE",
"205 357 CURVE SMOOTH",
"190.49 371.12 OFFCURVE",
"172.49 378.45 OFFCURVE",
"151 379 CURVE SMOOTH",
"129.89 378.73 OFFCURVE",
"112.23 371.4 OFFCURVE",
"98 357 CURVE SMOOTH",
"83.85 342.45 OFFCURVE",
"76.52 323.45 OFFCURVE",
"76 300 CURVE SMOOTH",
"76.26 278.5 OFFCURVE",
"83.6 260.16 OFFCURVE",
"98 245 CURVE SMOOTH",
"113.11 230.23 OFFCURVE",
"130.78 222.56 OFFCURVE",
"151 222 CURVE SMOOTH"
);
},
{
closed = 1;
nodes = (
"308 -120 LINE",
"380 37 OFFCURVE",
"416 190 OFFCURVE",
"416 339 CURVE SMOOTH",
"415.82 504.01 OFFCURVE",
"370.49 674.34 OFFCURVE",
"280 850 CURVE",
"170 794 LINE",
"252 635 OFFCURVE",
"293 482 OFFCURVE",
"293 335 CURVE SMOOTH",
"293 206 OFFCURVE",
"261 70 OFFCURVE",
"197 -73 CURVE"
);
},
{
closed = 1;
nodes = (
"513 483 LINE",
"679 -29 LINE",
"793 9 LINE",
"601 602 LINE"
);
},
{
closed = 1;
nodes = (
"391.26 765.5 OFFCURVE",
"398.6 747.16 OFFCURVE",
"413 732 CURVE SMOOTH",
"428.11 717.23 OFFCURVE",
"445.78 709.56 OFFCURVE",
"466 709 CURVE SMOOTH",
"486.18 709.29 OFFCURVE",
"504.18 716.95 OFFCURVE",
"520 732 CURVE SMOOTH",
"533.5 746.83 OFFCURVE",
"540.5 765.17 OFFCURVE",
"541 787 CURVE SMOOTH",
"541 810 OFFCURVE",
"534 829 OFFCURVE",
"520 844 CURVE SMOOTH",
"505.49 858.12 OFFCURVE",
"487.49 865.45 OFFCURVE",
"466 866 CURVE SMOOTH",
"444.89 865.73 OFFCURVE",
"427.23 858.4 OFFCURVE",
"413 844 CURVE SMOOTH",
"398.85 829.45 OFFCURVE",
"391.52 810.45 OFFCURVE",
"391 787 CURVE SMOOTH"
);
}
);
vertWidth = 1000;
width = 850;
}
);
note = u1B1AF;
unicode = 1B1AF;
},
{
glyphname = u1B1B0;
layers = (
{
hints = (
{
horizontal = 1;
place = "{509, 159}";
type = Stem;
},
{
place = "{71, 152}";
type = Stem;
},
{
place = "{396, 123}";
type = Stem;
},
{
horizontal = 1;
place = "{575, 159}";
type = Stem;
},
{
place = "{639, 152}";
type = Stem;
},
{
place = "{530, 121}";
type = Stem;
}
);
layerId = "41DC85D1-EFC7-4239-A657-2B8BDE01F0BA";
paths = (
{
closed = 1;
nodes = (
"167.18 509.29 OFFCURVE",
"185.18 516.95 OFFCURVE",
"201 532 CURVE SMOOTH",
"215.14 546.55 OFFCURVE",
"222.47 565.21 OFFCURVE",
"223 588 CURVE SMOOTH",
"222.75 610.78 OFFCURVE",
"215.42 629.78 OFFCURVE",
"201 645 CURVE SMOOTH",
"185.85 659.78 OFFCURVE",
"167.85 667.45 OFFCURVE",
"147 668 CURVE SMOOTH",
"126.82 667.71 OFFCURVE",
"108.82 660.05 OFFCURVE",
"93 645 CURVE SMOOTH",
"78.85 630.45 OFFCURVE",
"71.52 611.45 OFFCURVE",
"71 588 CURVE SMOOTH",
"71.25 565.86 OFFCURVE",
"78.59 547.19 OFFCURVE",
"93 532 CURVE SMOOTH",
"108.15 517.22 OFFCURVE",
"126.15 509.55 OFFCURVE",
"147 509 CURVE SMOOTH"
);
},
{
closed = 1;
nodes = (
"639.25 631.86 OFFCURVE",
"646.59 613.19 OFFCURVE",
"661 598 CURVE SMOOTH",
"676.15 583.22 OFFCURVE",
"694.15 575.55 OFFCURVE",
"715 575 CURVE SMOOTH",
"735.18 575.29 OFFCURVE",
"753.18 582.95 OFFCURVE",
"769 598 CURVE SMOOTH",
"783.14 612.55 OFFCURVE",
"790.47 631.21 OFFCURVE",
"791 654 CURVE SMOOTH",
"790.75 676.78 OFFCURVE",
"783.42 695.78 OFFCURVE",
"769 711 CURVE SMOOTH",
"753.85 725.78 OFFCURVE",
"735.85 733.45 OFFCURVE",
"715 734 CURVE SMOOTH",
"694.82 733.71 OFFCURVE",
"676.82 726.05 OFFCURVE",
"661 711 CURVE SMOOTH",
"646.85 696.45 OFFCURVE",
"639.52 677.45 OFFCURVE",
"639 654 CURVE SMOOTH"
);
},
{
closed = 1;
nodes = (
"742 355 LINE",
"600.04 569.1 OFFCURVE",
"412.71 753.43 OFFCURVE",
"180 908 CURVE",
"109 812 LINE",
"210.61 742.17 OFFCURVE",
"309.28 660.51 OFFCURVE",
"405 567 CURVE SMOOTH",
"497.97 475.87 OFFCURVE",
"577.3 381.2 OFFCURVE",
"643 283 CURVE"
);
},
{
closed = 1;
nodes = (
"478 -120 LINE",
"505.15 -34.17 OFFCURVE",
"518.81 62.16 OFFCURVE",
"519 169 CURVE SMOOTH",
"518.93 230.41 OFFCURVE",
"511.93 297.75 OFFCURVE",
"498 371 CURVE",
"378 347 LINE",
"389.87 277.52 OFFCURVE",
"395.87 218.18 OFFCURVE",
"396 169 CURVE SMOOTH",
"395.91 71.15 OFFCURVE",
"383.91 -14.51 OFFCURVE",
"360 -88 CURVE"
);
},
{
closed = 1;
nodes = (
"144 241 LINE",
"273.16 326.97 OFFCURVE",
"378.83 426.97 OFFCURVE",
"461 541 CURVE",
"369 632 LINE",
"295.64 524.78 OFFCURVE",
"196.64 427.12 OFFCURVE",
"72 339 CURVE"
);
},
{
closed = 1;
nodes = (
"515 603 LINE",
"580.78 717.6 OFFCURVE",
"626.11 842.93 OFFCURVE",
"651 979 CURVE",
"530 1000 LINE",
"507.19 890.42 OFFCURVE",
"470.53 788.42 OFFCURVE",
"420 694 CURVE"
);
}
);
vertWidth = 1000;
width = 850;
}
);
note = u1B1B0;
unicode = 1B1B0;
},
{
glyphname = u1B1B1;
layers = (
{
hints = (
{
place = "{185, 116}";
type = Stem;
},
{
place = "{422, 112}";
type = Stem;
}
);
layerId = "41DC85D1-EFC7-4239-A657-2B8BDE01F0BA";
paths = (
{
closed = 1;
nodes = (
"439 29 LINE",
"484.38 75.42 OFFCURVE",
"532.71 129.76 OFFCURVE",
"584 192 CURVE",
"537 318 LINE",
"499.29 265.14 OFFCURVE",
"451.96 210.14 OFFCURVE",
"395 153 CURVE",
"445 147 LINE",
"432.1 242.69 OFFCURVE",
"404.43 354.36 OFFCURVE",
"362 482 CURVE SMOOTH",
"319.33 608.86 OFFCURVE",
"271.33 728.19 OFFCURVE",
"218 840 CURVE",
"116 789 LINE",
"243.62 514.6 OFFCURVE",
"320.62 273.93 OFFCURVE",
"347 67 CURVE"
);
},
{
closed = 1;
nodes = (
"301 -113 LINE",
"296.85 24.27 OFFCURVE",
"265.85 148.6 OFFCURVE",
"208 260 CURVE",
"105 208 LINE",
"156.05 100.58 OFFCURVE",
"182.71 -8.75 OFFCURVE",
"185 -120 CURVE"
);
},
{
closed = 1;
nodes = (
"171 303 LINE",
"210 341 OFFCURVE",
"246 380 OFFCURVE",
"279 420 CURVE",
"234 548 LINE",
"194.87 492.4 OFFCURVE",
"147.87 438.07 OFFCURVE",
"93 385 CURVE"
);
},
{
closed = 1;
nodes = (
"450 522 LINE",
"640 -4 LINE",
"747 37 LINE",
"557 563 LINE"
);
},
{
closed = 1;
nodes = (
"646 274 LINE",
"704.21 356.37 OFFCURVE",
"749.21 428.7 OFFCURVE",
"781 491 CURVE",
"680 541 LINE",
"645.36 479.57 OFFCURVE",
"618.7 434.57 OFFCURVE",
"600 406 CURVE"
);
},
{
closed = 1;
nodes = (
"341 504 LINE",
"439.21 646.13 OFFCURVE",
"503.54 805.13 OFFCURVE",
"534 981 CURVE",
"422 1000 LINE",
"397.82 863.66 OFFCURVE",
"354.49 742.66 OFFCURVE",
"292 637 CURVE"
);
}
);
vertWidth = 1000;
width = 850;
}
);
note = u1B1B1;
unicode = 1B1B1;
},
{
glyphname = u1B1B2;
layers = (
{
hints = (
{
horizontal = 1;
place = "{431, 96}";
type = Stem;
},
{
horizontal = 1;
place = "{659, 96}";
type = Stem;
},
{
place = "{42, 118}";
type = Stem;
},
{
place = "{228, 117}";
type = Stem;
},
{
place = "{478, 123}";
type = Stem;
},
{
place = "{590, 121}";
type = Stem;
}
);
layerId = "41DC85D1-EFC7-4239-A657-2B8BDE01F0BA";
paths = (
{
closed = 1;
nodes = (
"573 -120 LINE",
"591.67 -26 OFFCURVE",
"601 67 OFFCURVE",
"601 159 CURVE SMOOTH",
"601 225 OFFCURVE",
"596 290.67 OFFCURVE",
"586 356 CURVE",
"466 337 LINE",
"474 267.67 OFFCURVE",
"478 208.33 OFFCURVE",
"478 159 CURVE SMOOTH",
"478 72.33 OFFCURVE",
"470 -14.67 OFFCURVE",
"454 -102 CURVE"
);
},
{
closed = 1;
nodes = (
"238.33 431 OFFCURVE",
"274.17 445.67 OFFCURVE",
"302.5 475 CURVE SMOOTH",
"330.83 504.33 OFFCURVE",
"345 541.33 OFFCURVE",
"345 586 CURVE SMOOTH",
"345 634.67 OFFCURVE",
"330.83 675 OFFCURVE",
"302.5 707 CURVE SMOOTH",
"274.17 739 OFFCURVE",
"238.33 755 OFFCURVE",
"195 755 CURVE SMOOTH",
"151.67 755 OFFCURVE",
"115.33 739 OFFCURVE",
"86 707 CURVE SMOOTH",
"56.67 675 OFFCURVE",
"42 634.67 OFFCURVE",
"42 586 CURVE SMOOTH",
"42 541.33 OFFCURVE",
"56.67 504.33 OFFCURVE",
"86 475 CURVE SMOOTH",
"115.33 445.67 OFFCURVE",
"151.67 431 OFFCURVE",
"195 431 CURVE SMOOTH"
);
},
{
closed = 1;
nodes = (
"171.67 527 OFFCURVE",
"160 548.33 OFFCURVE",
"160 591 CURVE SMOOTH",
"160 636.33 OFFCURVE",
"171.67 659 OFFCURVE",
"195 659 CURVE SMOOTH",
"217 659 OFFCURVE",
"228 636.33 OFFCURVE",
"228 591 CURVE SMOOTH",
"228 548.33 OFFCURVE",
"217 527 OFFCURVE",
"195 527 CURVE SMOOTH"
);
},
{
closed = 1;
nodes = (
"262 847 LINE",
"333.33 782.33 OFFCURVE",
"410.17 693.17 OFFCURVE",
"492.5 579.5 CURVE SMOOTH",
"574.83 465.83 OFFCURVE",
"638 362 OFFCURVE",
"682 268 CURVE",
"790 325 LINE",
"738 433.67 OFFCURVE",
"672.17 543.17 OFFCURVE",
"592.5 653.5 CURVE SMOOTH",
"512.83 763.83 OFFCURVE",
"431.33 857.33 OFFCURVE",
"348 934 CURVE"
);
},
{
closed = 1;
nodes = (
"608 589 LINE",
"662 706.33 OFFCURVE",
"696.33 840.33 OFFCURVE",
"711 991 CURVE",
"590 1000 LINE",
"581.33 896.67 OFFCURVE",
"559.67 800.33 OFFCURVE",
"525 711 CURVE",
"487 644 LINE SMOOTH",
"417.67 516.67 OFFCURVE",
"318 400.33 OFFCURVE",
"188 295 CURVE",
"270 198 LINE",
"397.33 303.33 OFFCURVE",
"495.33 413 OFFCURVE",
"564 527 CURVE"
);
}
);
vertWidth = 1000;
width = 850;
}
);
note = u1B1B2;
unicode = 1B1B2;
},
